<svg xmlns="http://www.w3.org/2000/svg" width="387.54" height="393.261" viewBox="0 0 387.54 393.261">
  <path id="coinmarketcap-logo" d="M336.908,234.985a20.709,20.709,0,0,1-21.114,1.418c-7.8-4.405-12-14.734-12-28.81V164.454c0-20.709-8.2-35.443-21.924-39.443-23.19-6.785-40.506,21.62-47.189,32.3l-41.012,66.379V142.682c-.456-18.683-6.532-29.873-18.025-33.215-7.595-2.228-18.987-1.316-30.076,15.595L53.873,272.25a162.024,162.024,0,0,1-18.43-75.645c0-88.708,70.885-160.859,158.226-160.859S352.148,107.9,352.148,196.605v.911c.861,17.164-4.709,30.835-15.19,37.468Zm50.632-38.329V195.8C386.831,87.7,300.149,0,193.669,0S0,88.2,0,196.605,86.885,393.261,193.669,393.261a191.435,191.435,0,0,0,131.638-52.449,18.025,18.025,0,0,0,.918-25.322,17.367,17.367,0,0,0-24.607-1.165A156.606,156.606,0,0,1,75.949,303.794l82.531-132.657v61.215c0,29.417,11.392,38.936,20.962,41.721s24.2.861,39.544-24.05l45.569-73.771c1.418-2.38,2.785-4.405,4-6.177v37.519c0,27.493,11.038,49.468,30.379,60.3a55.7,55.7,0,0,0,56.759-2.278c21.266-13.823,32.86-38.835,31.645-68.961Z" fill="#fff"/>
</svg>
