<?xml version="1.0" encoding="utf-8"?>
<!-- Generator: Adobe Illustrator 26.0.0, SVG Export Plug-In . SVG Version: 6.00 Build 0)  -->
<svg version="1.1" id="Layer_1" xmlns="http://www.w3.org/2000/svg" xmlns:xlink="http://www.w3.org/1999/xlink" x="0px" y="0px"
	 viewBox="0 0 992.5 276" style="enable-background:new 0 0 992.5 276;" xml:space="preserve">
<style type="text/css">
	.st0{fill:#8DC63F;}
	.st1{fill:#F9E988;}
	.st2{fill:#FFFFFF;}
	.st3{fill:#8BC53F;}
	.st4{fill:#009345;}
	.st5{fill:#58595B;}
	.st6{fill-rule:evenodd;clip-rule:evenodd;fill:#FFFFFF;}
</style>
<g id="Coin_Gecko_AI">
	<path class="st0" d="M276,137.4c0.3,76.2-61.2,138.3-137.4,138.6C62.4,276.3,0.3,214.8,0,138.6C-0.3,62.4,61.2,0.3,137.4,0l0,0
		C213.6-0.3,275.7,61.2,276,137.4C276,137.4,276,137.4,276,137.4z"/>
	<path class="st1" d="M265.6,137.4c0.3,70.5-56.5,127.9-127,128.3c-70.5,0.3-127.9-56.5-128.3-127C10,68.2,66.9,10.8,137.4,10.4
		c0,0,0,0,0,0l0,0C207.9,10.1,265.3,67,265.6,137.4z"/>
	<path class="st2" d="M140.4,18.7c8.1-1.4,16.4-1.4,24.5,0c8.2,1.3,16.1,4,23.4,7.9c7.3,4,13.6,9.4,19.8,14.5s12.5,10.3,18.4,16
		c6.1,5.6,11.3,12,15.7,19c4.5,6.9,8.2,14.4,11,22.2c5.3,15.7,7.2,32.5,4.5,48.6H257c-2.7-15.9-6.3-31.2-12-45.6
		c-2.7-7.3-5.8-14.4-9.4-21.2c-3.8-6.9-7.9-13.6-12.4-20c-4.6-6.5-10.2-12.2-16.6-16.8c-6.5-4.6-13.9-7.6-21.1-10.5
		S171,27,163.5,24.8s-15.2-3.8-23.1-5.4L140.4,18.7z"/>
	<path class="st3" d="M202.7,92.4c-9.3-2.7-18.9-6.5-28.6-10.3c-0.6-2.4-2.7-5.5-7.1-9.2c-6.4-5.5-18.3-5.4-28.6-2.9
		c-11.4-2.7-22.6-3.6-33.4-1c-88.3,24.3-38.2,83.6-70.6,143.2c4.6,9.8,54.3,66.8,126.2,51.5c0,0-24.6-59.1,30.9-87.4
		C236.6,153.2,269.1,110.5,202.7,92.4z"/>
	<path class="st2" d="M213.6,131.2c0,3-2.4,5.4-5.3,5.4c-3,0-5.4-2.4-5.4-5.3c0-3,2.4-5.4,5.3-5.4
		C211.2,125.9,213.6,128.2,213.6,131.2z"/>
	<path class="st4" d="M138.5,69.9c6.4,0.5,29.7,8,35.7,12.1C169.2,67.5,152.3,65.6,138.5,69.9L138.5,69.9z"/>
	<path class="st2" d="M144.6,106.6c0,13.6-11,24.7-24.7,24.7s-24.7-11-24.7-24.7c0-13.6,11-24.7,24.7-24.7l0,0
		C133.5,81.9,144.6,92.9,144.6,106.6L144.6,106.6z"/>
	<path class="st5" d="M137.3,106.8c0,9.6-7.8,17.4-17.4,17.4s-17.4-7.8-17.4-17.4s7.8-17.4,17.4-17.4l0,0l0,0
		C129.5,89.4,137.3,97.2,137.3,106.8z"/>
	<path class="st3" d="M233.6,142.1c-20,14.1-42.7,24.8-75,24.8c-15.1,0-18.2-16-28.1-8.2c-5.2,4.1-23.3,13.1-37.7,12.4
		S55,162,48.5,131.2c-2.6,30.8-3.9,53.4-15.5,79.4c23,36.8,77.8,65.2,127.6,53c-5.3-37.3,27.4-73.9,45.7-92.6
		C213.3,163.9,226.6,152.3,233.6,142.1L233.6,142.1z"/>
	<path class="st5" d="M232.9,143c-6.2,5.7-13.6,9.9-21.1,13.6c-7.6,3.6-15.5,6.5-23.7,8.6c-8.2,2.1-16.7,3.7-25.3,2.9
		s-17.4-3.7-23.1-10.2l0.3-0.3c7,4.5,15.1,6.1,23.1,6.4c8.1,0.3,16.3-0.4,24.3-2c8.1-1.7,16-4.1,23.6-7.3c7.6-3.1,15.2-6.8,21.7-12
		L232.9,143z"/>
</g>
<g>
	<path class="st6" d="M676.3,174.3c-0.4,0.4-0.7,0.4-1.1,0.7c-11,12.5-24.9,14.6-39.9,10.7c-18.5-4.6-28.5-17.8-32.4-36
		c-2.5-11.8-1.8-23.5,2.9-34.6c8.2-19.6,26.7-30.3,47.7-27.4c9.6,1.4,18.5,4.6,25.3,11.8c5,5.3,7.8,11.8,8.9,18.9
		c0.4,1.4-0.4,1.8-1.4,1.8c-4.3,0-8.9,0-13.2,0c-1.1,0-1.4-0.4-1.8-1.4c-2.1-9.6-8.6-15-17.8-16.7c-10.7-2.1-20,0-27.1,8.6
		c-6.4,7.8-8.2,17.5-8.2,27.4c0,7.5,1.4,14.6,4.6,21c7.5,14.3,26,19.2,39.9,11c7.8-4.6,10.3-12.1,11-20.7c0-1.8-1.1-1.4-2.1-1.4
		c-7.1,0-13.9,0-21,0c-2.1,0-2.5-0.7-2.5-2.5c0-2.9,0-5.3,0-8.2c0-1.8,0.7-2.1,2.1-2.1c12.1,0,24.6,0,36.7,0c1.4,0,2.1,0.4,2.1,1.8
		c0,15.7,0,31,0,46.7c0,1.4-0.4,1.8-1.8,1.8c-2.9,0-6.4,0.7-8.6-0.4c-2.1-1.4-1.4-5-2.1-7.8C676.7,176.1,676.3,175.1,676.3,174.3z
		 M394.1,120.2c-2.1,0-4.3,0-6.8,0c-1.4,0-1.8-0.4-2.1-1.8c-2.9-10-9.3-16-19.6-17.1c-11.4-1.1-21,2.5-26.7,12.8
		c-8.6,15.7-8.2,31.7,0.4,47c5.7,10.3,18.2,15,29.6,11.8c10-2.9,14.6-10.3,16.7-20c0.7-3.9,0.7-3.9,4.6-3.9c3.6,0,7.1,0,10.7,0
		c1.4,0,1.8,0.4,1.4,1.8c-1.8,18.9-13.9,33.5-32.4,36.3c-26.7,4.3-48.8-12.1-53.1-38.8c-1.8-11.8-0.7-23.2,3.9-34.2
		c8.2-18.5,26.4-28.5,46.7-26c9.6,1.4,18.5,4.6,25.7,11.8c5,5.3,7.8,11.8,8.9,18.9c0.4,1.4,0,1.8-1.4,1.8
		C398.7,119.8,396.2,120.2,394.1,120.2z M918.6,185c-6.1,0-11.4,0-17.1,0c-1.4,0-2.1-0.7-2.5-1.8c-6.1-10-12.5-19.6-18.5-29.6
		c-1.1-1.8-1.4-1.8-3.2-0.4c-6.1,4.3-8.6,10-7.5,17.5c0.7,3.9,0,8.2,0,12.5c0,1.8-0.7,2.1-2.1,2.1c-3.6,0-7.1,0-10.7,0
		c-1.8,0-2.1-0.7-2.1-2.5c0-14.6,0-29.2,0-44.2c0-15.3,0-30.6,0-46.3c0-2.5,0.7-3.2,3.2-2.9c3.2,0.4,6.4,0.4,9.6,0
		c2.1,0,2.5,0.7,2.5,2.5c0,16,0,32.1,0,48.1v2.9l0.7,0.4c1.1-1.4,2.5-2.9,3.6-4.3c7.1-7.5,14.3-14.6,21.7-22.1
		c0.7-0.7,1.4-1.4,2.5-1.4c5.7,0,11.4,0,17.1,0c0,1.1-1.1,1.4-1.4,2.1c-7.5,7.1-14.6,14.3-22.4,21.4c-1.8,1.4-1.8,2.5-0.4,4.6
		c8.6,12.8,17.1,25.7,25.7,38.5C917.2,183.3,917.9,184,918.6,185L918.6,185z M742.6,154.4c-7.8,0-15.3,0-23.2,0
		c-1.8,0-2.1,0.4-2.1,2.1c0.7,13.9,13.5,22.4,26.4,17.1c3.6-1.4,6.4-4.3,7.8-8.2c0.7-1.8,1.8-2.1,3.2-2.1c3.2,0,6.8,0,10,0
		c1.8,0,2.1,0.4,1.4,2.1c-3.9,12.5-12.5,19.2-25.3,21c-11.4,1.8-22.1-0.7-30.3-9.3c-5.7-6.1-8.2-13.9-8.9-22.1
		c-0.7-10,0.7-19.6,7.1-28.1c8.2-10.7,19.2-14.6,32.1-12.5c13.5,2.5,21.7,11,25.7,23.9c1.4,4.6,1.8,9.3,1.4,14.3
		c0,1.8-0.7,2.1-2.1,2.1C758.3,154.4,750.4,154.4,742.6,154.4z M735.1,144.4c5.3,0,10.7,0,15.7,0c1.8,0,2.1-0.4,1.8-2.1
		c-1.4-9.3-8.2-16-17.1-16.4c-9.3-0.4-16.7,6.1-18.2,15.7c-0.4,1.8,0,2.5,2.1,2.5C724.8,144.4,729.8,144.4,735.1,144.4L735.1,144.4z
		 M412.6,150.5c0-4.3,0.7-8.9,1.8-13.2c4.6-15,17.8-24.2,34.2-23.2c12.5,0.7,22.8,5,28.9,16c7.1,13.5,7.1,27.8-0.4,41
		c-6.8,12.5-18.5,16.4-32.1,15.7C424.8,185.8,412.6,171.9,412.6,150.5z M428,150.5c0,6.1,1.1,11.4,4.6,16.4
		c5.7,8.2,16.7,10.7,24.9,5c1.8-1.4,3.6-2.9,5-4.6c6.1-8.9,6.4-23.9,0-33.1c-7.5-10.7-23.2-10.7-30.3,0.4
		C429,139.1,428,144.8,428,150.5z M922.5,150.8c0-10,2.1-18.9,8.9-26.4c6.8-7.8,16-10.7,26-10.7c10,0,19.2,2.9,26.4,10.7
		c7.5,8.6,9.3,18.9,8.6,29.9c-0.4,3.9-1.1,7.8-2.5,11.4c-5.3,13.9-18.2,21.7-34.6,20.7c-19.2-1.1-31.4-13.5-32.4-32.8
		C922.9,153,922.5,151.5,922.5,150.8L922.5,150.8z M977,151.5c0-7.1-1.8-13.2-4.3-17.5c-5.3-8.6-16.7-10.7-24.9-5.3
		c-2.1,1.4-3.9,3.2-5.3,5.3c-6.1,8.9-5.7,23.9,0,32.4c5.7,8.2,16.7,10.7,24.9,5c2.1-1.4,3.6-2.9,5-5C976,161.9,977,156.2,977,151.5z
		 M541.6,125.5c4.3-5.3,9.3-9.3,16-11c6.1-1.4,12.1-1.1,17.8,1.4c8.6,3.6,12.1,11,12.5,20c0.4,15.7,0,31.4,0,47
		c0,1.8-0.4,2.1-2.1,2.1c-3.6,0-7.1,0-10.7,0c-1.8,0-2.5-0.4-2.5-2.5c0-13.2,0-26.7,0-39.9c0-2.9-0.4-5.7-1.1-8.2
		c-2.1-7.1-8.9-10-17.1-7.8c-7.1,2.1-11.8,8.6-11.8,16.7c0,12.8,0,26,0,38.8c0,2.1-0.4,3.2-2.9,2.9c-3.2-0.4-6.8-0.4-10,0
		c-1.8,0-2.5-0.4-2.5-2.5c0-10,0-19.6,0-29.6c0-11.4,0-22.8,0-34.2c0-2.5,0.7-3.2,3.2-2.9c3.2,0.4,6.1,0,9.3,0
		c1.8,0,2.5,0.4,2.1,2.1C541.6,120.5,541.6,123,541.6,125.5L541.6,125.5z M833.8,139.1c-0.4,0-0.7,0-1.1,0c-3.9,0.4-6.4,0-8.2-4.6
		c-4.3-10.7-21.4-11-28.5-1.1c-2.5,3.2-3.6,7.1-4.3,11.4c-0.7,6.8-0.7,13.5,2.1,20c3.6,7.8,10,11.4,18.2,10.3
		c6.8-1.1,11.4-5.3,13.2-12.8c0.4-2.1,1.4-2.9,3.6-2.5c3.6,0,6.8,0,10.3,0c1.8,0,2.1,0.7,1.8,2.1c-3.6,17.1-15.7,26.7-33.5,25.7
		c-17.8-1.1-29.6-12.8-31-31c-0.7-7.8,0-15.7,3.2-23.2c5.3-12.5,17.5-19.6,31.7-18.9c8.6,0.4,16.4,2.5,22.8,8.6
		c3.9,3.9,6.1,8.9,7.1,14.3c0.4,1.8-0.4,2.5-2.1,2.1C837.7,139.1,835.9,139.1,833.8,139.1z M510.6,150.8c0,10.3,0,20.7,0,31
		c0,2.9-0.7,3.6-3.2,3.2c-3.2-0.4-6.1-0.4-9.3,0c-2.1,0-2.9-0.4-2.9-2.9c0-18.5,0-37.1,0-55.6c0-2.9,0-5.7,0-8.6
		c0-1.8,0.4-2.1,2.1-2.1c3.6,0,7.1,0,10.7,0c2.1,0,2.9,0.4,2.9,2.9C510.6,129.5,510.6,140.1,510.6,150.8z M503.5,89.5
		c2.1,0.4,5.3-1.1,6.8,0.4s0.4,4.6,0.4,7.1c0,2.1,1.1,5-0.4,6.4c-1.4,1.4-4.3,0.4-6.4,0.4c-2.9,0-6.4,1.1-8.2-0.4
		c-1.4-1.8-0.4-5.3-0.4-7.8c0-6.1,0-6.1,6.1-6.1C501.4,89.5,503.5,89.5,503.5,89.5z"/>
</g>
</svg>
