<svg xmlns="http://www.w3.org/2000/svg" width="374.936" height="490" viewBox="0 0 374.936 490">
  <g id="dehub-icon-logo" transform="translate(-847.98 -299.3)">
    <path id="Path_10" data-name="Path 10" d="M983.125,1450.082a121.264,121.264,0,0,1-68.685-109.176V1179.931a31.321,31.321,0,0,0-31.321-31.321H847.98v192.3a187.556,187.556,0,0,0,153.159,184.346v-46.823A31.5,31.5,0,0,0,983.125,1450.082Z" transform="translate(0 -736.453)" fill="#fff"/>
    <path id="Path_11" data-name="Path 11" d="M2584.368,1179.931v160.975a121.162,121.162,0,0,1-71,110.178,31.489,31.489,0,0,0-18.66,28.577v46.092c88.493-14.96,156.118-92.167,156.118-184.847v-192.3h-35.14A31.32,31.32,0,0,0,2584.368,1179.931Z" transform="translate(-1427.912 -736.453)" fill="#fff"/>
    <path id="Path_12" data-name="Path 12" d="M2088.45,300.922a1.623,1.623,0,0,0-1.623-1.622H2051.4a29.413,29.413,0,0,0-29.413,29.413V548.176a1.623,1.623,0,0,0,1.622,1.622h36.752a28.086,28.086,0,0,0,28.086-28.086Z" transform="translate(-1018.007 0)" fill="#fff"/>
  </g>
</svg>
