<svg xmlns="http://www.w3.org/2000/svg" width="1777.842" height="419.149" viewBox="0 0 1777.842 419.149">
  <g id="dehub-type-logo" transform="translate(-696.1 -1026.41)">
    <path id="Path_1" data-name="Path 1" d="M839.761,1524.51H696.1v31.722a25.129,25.129,0,0,0,25.129,25.129H840.29c57.965,0,105.931,46.385,106.389,104.349a105.21,105.21,0,0,1-105.2,106.07H721.23a25.129,25.129,0,0,0-25.129,25.129v31.722H841.478a162.061,162.061,0,0,0,162.053-161.3C1003.939,1597.777,929.313,1524.51,839.761,1524.51Z" transform="translate(0 -404.616)" fill="#fff"/>
    <path id="Path_2" data-name="Path 2" d="M2906.645,2954.29H2626.48V3009H2932v-29.354A25.35,25.35,0,0,0,2906.645,2954.29Z" transform="translate(-1568.083 -1566.053)" fill="#fff"/>
    <path id="Path_3" data-name="Path 3" d="M2927.581,1577.818V1550.39h-301.1V1605.1H2900.3A27.277,27.277,0,0,0,2927.581,1577.818Z" transform="translate(-1568.083 -425.639)" fill="#fff"/>
    <path id="Path_4" data-name="Path 4" d="M2900.825,2277.154V2246.98H2626.48v54.706h249.813A24.532,24.532,0,0,0,2900.825,2277.154Z" transform="translate(-1568.083 -991.492)" fill="#fff"/>
    <path id="Path_5" data-name="Path 5" d="M4784.822,1569.473v83.456h-175v-83.456c0-15.842-11.674-28.683-26.073-28.683H4551.68v320.789h31.388a26.757,26.757,0,0,0,26.756-26.756V1711.075h175v123.748a26.757,26.757,0,0,0,26.756,26.756h31.388V1540.79h-32.071C4796.5,1540.79,4784.822,1553.631,4784.822,1569.473Z" transform="translate(-3131.959 -417.84)" fill="#fff"/>
    <path id="Path_6" data-name="Path 6" d="M8705.032,1697.071a93.77,93.77,0,0,0,19.778-57.346c.27-52.275-43.51-95.046-95.787-95.046H8412.64v30.046a26.8,26.8,0,0,0,26.8,26.8h190.079c20.68,0,38.078,16.343,38.433,37.022a37.714,37.714,0,0,1-37.665,38.373H8412.64v30.046a26.8,26.8,0,0,0,26.8,26.8h207.489c21.019,0,38.552,16.875,38.449,37.891a37.466,37.466,0,0,1-11.543,26.957,38.592,38.592,0,0,1-26.854,10.55H8439.444a26.8,26.8,0,0,0-26.8,26.8v30.046h233.972a95.919,95.919,0,0,0,67.887-27.653,93.934,93.934,0,0,0,27.732-67.1C8742.165,1741.24,8727.465,1714.379,8705.032,1697.071Z" transform="translate(-6268.289 -421)" fill="#fff"/>
    <path id="Path_7" data-name="Path 7" d="M6530.135,1798.67a103.735,103.735,0,0,1-58.754-93.39v-137.7a26.791,26.791,0,0,0-26.792-26.792H6414.53v164.49a160.437,160.437,0,0,0,131.013,157.69v-40.053A26.936,26.936,0,0,0,6530.135,1798.67Z" transform="translate(-4645.187 -417.841)" fill="#fff"/>
    <path id="Path_8" data-name="Path 8" d="M7488.545,1567.59v137.7a103.641,103.641,0,0,1-60.732,94.246,26.937,26.937,0,0,0-15.962,24.446v39.428c75.7-12.8,133.545-78.839,133.545-158.118V1540.8h-30.06A26.788,26.788,0,0,0,7488.545,1567.59Z" transform="translate(-5455.329 -417.849)" fill="#fff"/>
    <path id="Path_9" data-name="Path 9" d="M7182.4,1027.8a1.389,1.389,0,0,0-1.389-1.389h-30.3a25.158,25.158,0,0,0-25.159,25.159V1239.3a1.389,1.389,0,0,0,1.389,1.389h31.438a24.025,24.025,0,0,0,24.025-24.025V1027.8Z" transform="translate(-5222.762)" fill="#fff"/>
  </g>
</svg>
