<svg id="Layer_1" data-name="Layer 1" xmlns="http://www.w3.org/2000/svg" viewBox="0 0 518.71 131.23"><defs><style>.cls-1{fill:#fff;}</style></defs><path class="cls-1" d="M273.39,114.8h-.3L203.62,12.64H71.06V61.3h5.57V18.22H82a48.11,48.11,0,0,1,0,96.21H60.55A48.1,48.1,0,0,1,47.62,20l-1.51-5.37A53.68,53.68,0,0,0,60.55,120H82a53.74,53.74,0,0,0,53.56-50.34h60.72v45.64H132.16v5.58h69.73V20l68.25,100.36H279V11.61h-5.58ZM196.31,64.09H135.65a53.77,53.77,0,0,0-29.83-45.87h90.49ZM513,87.8a21.51,21.51,0,0,0-4.46-12.07,28.59,28.59,0,0,0-10.78-8.51c-5.47-2.6-12.3-4.16-20.37-4.65a85.8,85.8,0,0,1-19-3.18c-12-3.56-18.58-9.16-19.63-16.64-.05-.81-.55-10.92,6.29-18.36,5.14-5.6,13.22-8.45,24-8.47,13.13,0,22.74,3.28,28.56,9.67a24.47,24.47,0,0,1,6,17.18l2.78.28,2.77.28a29.75,29.75,0,0,0-7.38-21.42c-6.89-7.63-17.87-11.51-32.61-11.57h-.31c-12.37.06-21.79,3.53-28,10.34a28.26,28.26,0,0,0-5.46,8.84V11.61h-5.58V79.48c0,1.45-1.4,35.58-33.72,35.58h-3.29c-32.32,0-33.69-34.13-33.73-35.5V11.61h-5.58v68c0,.41,1.53,41,39.31,41h3.29c20.13,0,30-11.52,34.75-22.36a25.61,25.61,0,0,0,5.2,9.71c7.15,8.34,19.62,12.59,37.08,12.65h.34c14.45-.06,25.22-3.9,32-11.43A30,30,0,0,0,513,87.8Zm-11.63,17.72c-5.74,6.3-15.17,9.51-28,9.53-15.77,0-26.86-3.6-32.93-10.62a20,20,0,0,1-4.83-15l0-16.5h-.16V50.24c9,16.62,40.25,17.86,41.67,17.9,30.14,1.83,30.3,19,30.29,19.71v.34A24.72,24.72,0,0,1,501.32,105.52ZM313,120.63h5.57v-109H313Z"/></svg>