<svg xmlns="http://www.w3.org/2000/svg" width="1089.501" height="516.871" viewBox="0 0 1089.501 516.871">
  <g id="svgg" transform="translate(-1.321 -14.611)">
    <path id="path0" d="M637.16,6.306c-1.636,1.972.112,2.423,10.026,2.595l9.365.164L646.1,9.188c-8.726.1-10.559-.011-11.127-.7-.429-.519-1.636-.819-3.277-.819-4.905,0-4.987,3.034-.093,3.425,2.256.178,2.155.213-.863.3s-3.414.227-3.414,1.191c0,1.439-4.037,1.565-5.572.172-1.6-1.448-3.31.347-1.857,1.953.929,1.027.918,1.071-.311,1.245a2.476,2.476,0,0,1-2.182-.912c-.9-1.076-.937-1.062-2.955.953-2,1.994-2.021,2.07-1.054,3.141,1.314,1.453-.964,1.625-2.548.191-1.63-1.475-7.666,4.733-6.189,6.366.959,1.06.953,1.092-.188,1.092-.814,0-1.177.339-1.177,1.092a.965.965,0,0,1-1.092,1.092.965.965,0,0,0-1.092,1.092.965.965,0,0,1-1.092,1.092.965.965,0,0,0-1.092,1.092.965.965,0,0,1-1.092,1.092.965.965,0,0,0-1.092,1.092.965.965,0,0,1-1.092,1.092.965.965,0,0,0-1.092,1.092.965.965,0,0,1-1.092,1.092c-.754,0-1.093.363-1.093,1.177,0,1.142-.033,1.147-1.09.191-1.63-1.475-10.026,6.743-8.551,8.374,1.434,1.584,1.256,3.859-.2,2.543-1.065-.964-1.136-.959-2.357.188a4.335,4.335,0,0,1-1.906,1.183.65.65,0,0,0-.647.647,4.393,4.393,0,0,1-1.2,1.923c-1.721,1.833-.123,3.764,1.729,2.089,1.081-.98,1.109-.978,1.109.172,0,.814-.339,1.177-1.092,1.177s-1.092.363-1.092,1.177c0,1.144-.03,1.15-1.1.186s-1.147-.942-3.141,1.054c-2.016,2.018-2.029,2.059-.953,2.955a2.476,2.476,0,0,1,.912,2.182c-.172,1.224-.224,1.237-1.232.322-1.6-1.448-5.653,2.507-4.119,4.018.909.893,1.013.874,2.016-.347l1.057-1.289v1.426c0,1.062-.279,1.426-1.092,1.426-.754,0-1.092.363-1.092,1.177,0,1.15-.027,1.153-1.109.172-1.641-1.483-3.474.183-2,1.819,1.445,1.595,1.289,3.889-.175,2.565-1.639-1.483-5.735,2.431-4.162,3.977.909.893,1.013.874,2.016-.347l1.057-1.289v1.426c0,1.062-.279,1.426-1.092,1.426-.909,0-1.092.363-1.092,2.185s-.183,2.185-1.092,2.185c-.754,0-1.092.363-1.092,1.177,0,1.15-.027,1.153-1.109.172-1.641-1.483-3.474.183-2,1.819,1.456,1.606,1.286,3.886-.188,2.551-1.641-1.483-3.474.183-2,1.819,1.445,1.595,1.289,3.889-.175,2.565-1.639-1.483-5.735,2.431-4.162,3.977.909.893,1.013.874,2.016-.347l1.057-1.289v1.426c0,1.062-.279,1.426-1.092,1.426-.909,0-1.092.363-1.092,2.185s-.183,2.185-1.092,2.185-1.093.363-1.093,2.185-.183,2.185-1.092,2.185c-.754,0-1.092.363-1.092,1.177,0,1.15-.027,1.153-1.109.172-1.641-1.483-3.474.183-2,1.819,1.456,1.606,1.286,3.886-.188,2.551-1.641-1.483-3.474.183-2,1.819,1.393,1.535,1.267,5.572-.172,5.572-.909,0-1.092.363-1.092,2.185s-.183,2.185-1.092,2.185-1.106.391-1.174,2.321c-.055,1.554-.156,1.838-.306.86-.489-3.2-3.436-3.171-3.436.03a2.593,2.593,0,0,1-1.092,2.125,3.161,3.161,0,0,0-.273,4.5c1.33,1.1,1.112,5.462-.273,5.462-.9,0-1.092.363-1.092,2.122,0,1.661-.238,2.182-1.093,2.406-.838.218-1.106.776-1.155,2.384-.036,1.155-.178,1.669-.314,1.144-.481-1.844-3.447-1.256-3.447.683q0,1.639.819,1.639c.625,0,.8.617.737,2.595-.049,1.519-.175,1.988-.306,1.133-.494-3.242-3.436-3.157-3.436.1a3.211,3.211,0,0,0,.819,2.185c1.33,1.1,1.112,5.462-.273,5.462-.918,0-1.092.363-1.092,2.27,0,2.248-.011,2.259-1.109,1.265-1.641-1.483-3.474.183-2,1.819a4.873,4.873,0,0,1,.839,3.43c-.052,1.543-.164,1.887-.306.953-.494-3.242-3.436-3.157-3.436.1a3.211,3.211,0,0,0,.819,2.185c.538.448.792,1.546.737,3.206-.049,1.529-.169,1.95-.306,1.068-.306-2.01-1.532-2.988-2.616-2.089a3.407,3.407,0,0,0,0,4.37c.538.448.792,1.546.737,3.206-.049,1.529-.169,1.95-.306,1.068-.494-3.242-3.436-3.157-3.436.1a3.211,3.211,0,0,0,.819,2.185c.538.448.792,1.546.737,3.206-.049,1.529-.169,1.95-.306,1.068-.655-4.293-5.6-1.4-5.615,3.286,0,1.783-.306,2.614-1.218,3.351-1.529,1.24-.563,2.745,1.759,2.745,2.013,0,2.622-.871,2.87-4.11.186-2.409.221-2.3.309.97.09,3.357,0,3.687-.994,3.687-.97,0-1.092.363-1.092,3.215,0,2.753-.156,3.253-1.092,3.5s-1.106.784-1.174,3.477c-.044,1.756-.183,2.535-.306,1.732-.494-3.242-3.436-3.157-3.436.1a3.211,3.211,0,0,0,.819,2.185c.538.448.792,1.546.737,3.206-.049,1.529-.169,1.95-.306,1.068-.494-3.242-3.436-3.157-3.436.1a3.211,3.211,0,0,0,.819,2.185c.538.448.792,1.546.737,3.206-.049,1.529-.169,1.95-.306,1.068-.456-2.991-3.436-3.234-3.436-.281a4.35,4.35,0,0,1-1.183,2.384c-1.128,1.2-1.139,1.305-.227,2.313s.9,1.062-.322,1.234a2.476,2.476,0,0,1-2.182-.912c-.907-1.09-.915-1.09-2.22.137a4.568,4.568,0,0,1-1.958,1.229.65.65,0,0,0-.647.647,4.335,4.335,0,0,1-1.183,1.906c-1.147,1.221-1.153,1.292-.188,2.357,1.319,1.458-.961,1.628-2.548.191-1.636-1.48-5.487,2.543-4,4.181,1.316,1.456-.967,1.625-2.551.188-1.636-1.48-5.487,2.543-4,4.181,1.316,1.456-.967,1.625-2.551.188-1.636-1.48-5.487,2.543-4,4.181,1.325,1.464-.97,1.62-2.565.175-1.636-1.478-3.3.355-1.819,2,.98,1.082.978,1.109-.172,1.109-.814,0-1.177.339-1.177,1.092,0,.814-.363,1.092-1.426,1.092h-1.426l1.289-1.057c1.221-1,1.24-1.106.347-2.016-1.546-1.573-5.46,2.524-3.977,4.162,1.325,1.464-.97,1.62-2.565.175-1.636-1.478-3.3.355-1.819,2,.98,1.082.978,1.109-.172,1.109-.814,0-1.177.339-1.177,1.092,0,.814-.363,1.092-1.426,1.092h-1.426l1.289-1.057c1.221-1,1.24-1.106.347-2.016-1.546-1.573-5.46,2.524-3.977,4.162,1.325,1.464-.97,1.62-2.565.175-1.636-1.478-3.3.355-1.819,2,1.355,1.494-.953,1.636-2.586.158-1.005-.909-1.1-.9-2.043.273a3.456,3.456,0,0,1-2.4,1.224,2.591,2.591,0,0,0-2.092,1.092,2.59,2.59,0,0,1-2.185,1.092,2.583,2.583,0,0,0-2.185,1.092,2.59,2.59,0,0,1-2.185,1.092,2.583,2.583,0,0,0-2.185,1.092,2.593,2.593,0,0,1-2.125,1.092c-3.2,0-3.228,2.947-.03,3.436.882.137.462.257-1.068.306-1.661.055-2.758-.2-3.206-.737-.991-1.2-3.616-1.027-4.539.289-.721,1.03-1.267,1.1-7.541.956l-6.765-.153-.161-3.641c-.1-2.354-.44-3.873-.956-4.3a3,3,0,0,1-.795-2.043c0-1.346.03-1.357,1.084-.4s1.251.817,8.824-6.743c4.255-4.25,8.068-7.726,8.472-7.726,1.147,0,.948-3.144-.219-3.447-.718-.188-.653-.265.273-.314.844-.044,1.229-.4,1.229-1.155,0-.814.363-1.092,1.426-1.092h1.426l-1.289,1.057c-1.221,1-1.24,1.106-.347,2.016,1.546,1.573,5.46-2.524,3.977-4.162-.964-1.065-.959-1.1.186-1.1.814,0,1.177-.339,1.177-1.092,0-.814.363-1.092,1.426-1.092h1.426l-1.289,1.057c-1.221,1-1.24,1.106-.347,2.016,1.546,1.573,5.46-2.524,3.977-4.162-1.325-1.464.97-1.62,2.565-.175,1.636,1.478,3.3-.355,1.819-2-.98-1.082-.978-1.109.172-1.109.814,0,1.177-.339,1.177-1.092,0-1.336,2.24-1.521,3.277-.273,1.174,1.415,3.4.961,5.408-1.1,1.8-1.857,1.827-1.939.871-3s-.95-1.087.191-1.087c.814,0,1.177-.339,1.177-1.092,0-.814.363-1.092,1.426-1.092h1.426l-1.289,1.057c-1.245,1.021-1.256,1.092-.3,2.048s1.024.95,2-.238a3.52,3.52,0,0,1,2.417-1.229,2.591,2.591,0,0,0,2.092-1.092,2.59,2.59,0,0,1,2.185-1.092,2.583,2.583,0,0,0,2.185-1.092,2.59,2.59,0,0,1,2.185-1.092,2.583,2.583,0,0,0,2.185-1.092,2.59,2.59,0,0,1,2.185-1.092,2.583,2.583,0,0,0,2.185-1.092,2.593,2.593,0,0,1,2.125-1.092c3.2,0,3.228-2.947.03-3.436-.978-.15-.694-.251.86-.306,1.931-.068,2.321-.265,2.321-1.174,0-.95.336-1.082,2.595-1.005,1.92.066,2.144.145.86.306-2.237.279-3.31,1.467-2.362,2.611a3.161,3.161,0,0,0,4.5-.273,2.593,2.593,0,0,1,2.125-1.092c3.2,0,3.228-2.947.03-3.436-1.1-.169-.937-.246.639-.306,1.6-.063,2.166-.341,2.384-1.174.224-.855.746-1.092,2.406-1.092,1.759,0,2.122-.188,2.122-1.092,0-.95.336-1.082,2.595-1.005,1.92.066,2.144.145.86.306-3.414.426-3.63,3.439-.249,3.425,2.458-.011,5.43-3.518,4.165-4.916-1.311-1.448.978-1.609,2.556-.18,1.636,1.48,5.487-2.543,4-4.181-.964-1.065-.959-1.1.186-1.1.814,0,1.177-.339,1.177-1.092a.965.965,0,0,1,1.092-1.092c.909,0,1.092-.363,1.092-2.185s.183-2.185,1.092-2.185c1,0,1.092-.363,1.092-4.37,0-3.963-.1-4.37-1.062-4.37-1.59,0-1.83-4.28-.311-5.544,1.325-1.1-12.615-15.759-14.989-15.759a3.438,3.438,0,0,1-2.223-1.229c-.975-1.188-1.043-1.2-2-.238s-.948,1.027.3,2.048l1.289,1.057h-1.426c-1.062,0-1.426-.279-1.426-1.092,0-.909-.363-1.092-2.185-1.092s-2.185-.183-2.185-1.092-.363-1.092-2.185-1.092-2.185-.183-2.185-1.092c0-1-.363-1.092-4.307-1.092-3.845,0-4.337-.117-4.591-1.092-.259-.991-.746-1.092-5.3-1.092s-5.044.1-5.3,1.092c-.374,1.434-8.835,1.663-9.991.273a3.407,3.407,0,0,0-4.37,0c-.9,1.084.079,2.311,2.089,2.616.882.137.462.257-1.068.306-1.661.055-2.758-.2-3.206-.737a3.211,3.211,0,0,0-2.185-.819c-3.253,0-3.337,2.941-.1,3.436.882.137.462.257-1.068.306-1.661.055-2.758-.2-3.206-.737a3.407,3.407,0,0,0-4.37,0c-.9,1.084.079,2.311,2.089,2.616.882.137.462.257-1.068.306-1.661.055-2.758-.2-3.206-.737a3.161,3.161,0,0,0-4.5.273,2.593,2.593,0,0,1-2.125,1.092c-3.2,0-3.228,2.947-.03,3.436.882.137.462.257-1.068.306-1.661.055-2.758-.2-3.206-.737a3.407,3.407,0,0,0-4.37,0c-.9,1.084.079,2.311,2.089,2.616.882.137.462.257-1.068.306-1.661.055-2.758-.2-3.206-.737a3.161,3.161,0,0,0-4.5.273,2.593,2.593,0,0,1-2.125,1.092c-3.2,0-3.228,2.947-.03,3.436.934.142.59.254-.953.306a4.873,4.873,0,0,1-3.43-.838c-1.636-1.478-3.3.355-1.819,2,1.336,1.475-.945,1.644-2.551.188-1.636-1.478-3.3.355-1.819,2,.986,1.087.978,1.109-.38,1.109a3.019,3.019,0,0,1-2.062-.819,3.161,3.161,0,0,0-4.5.273,2.593,2.593,0,0,1-2.125,1.092c-3.2,0-3.228,2.947-.03,3.436.934.142.59.254-.953.306a4.872,4.872,0,0,1-3.43-.838c-1.636-1.478-3.3.355-1.819,2,1.336,1.475-.945,1.644-2.551.188-1.636-1.478-3.3.355-1.819,2,1.336,1.475-.945,1.644-2.551.188-1.636-1.478-3.3.355-1.819,2,1.336,1.475-.945,1.644-2.551.188-1.636-1.478-3.3.355-1.819,2,.98,1.082.978,1.109-.172,1.109-.814,0-1.177.339-1.177,1.092,0,.814-.363,1.092-1.426,1.092H360.1l1.289-1.057c1.245-1.021,1.256-1.092.3-2.048s-1.024-.95-2,.238a3.52,3.52,0,0,1-2.417,1.229,2.591,2.591,0,0,0-2.092,1.092,2.634,2.634,0,0,1-2.054,1.1c-2.4.011-5.339,3.542-4.1,4.916,1.336,1.475-.991,1.6-2.605.137-1.005-.909-1.1-.9-2.043.273a3.467,3.467,0,0,1-2.27,1.229c-2.305.011-5.214,3.581-4.007,4.916.956,1.054.95,1.087-.191,1.087-.814,0-1.177.339-1.177,1.092,0,.814-.363,1.092-1.426,1.092h-1.426l1.289-1.057c1.221-1,1.24-1.106.347-2.016-1.546-1.573-5.46,2.524-3.977,4.162,1.316,1.456-.967,1.625-2.551.188s-5.49,2.537-4.045,4.138c.915,1.008.9,1.06-.322,1.232a2.476,2.476,0,0,1-2.182-.912c-.907-1.09-.915-1.09-2.22.137a4.54,4.54,0,0,1-1.958,1.229c-1.068,0-.787,3.16.309,3.447.718.188.653.265-.273.314-.844.044-1.229.4-1.229,1.155,0,1.374-1.945,1.48-3.376.183-.942-.852-1.084-.836-2.264.273a4.335,4.335,0,0,1-1.906,1.183c-1.068,0-.787,3.16.309,3.447.718.188.653.265-.273.314-.844.044-1.229.4-1.229,1.155,0,1.374-1.945,1.48-3.376.183-.942-.852-1.084-.836-2.264.273a4.335,4.335,0,0,1-1.906,1.183.65.65,0,0,0-.647.647,4.335,4.335,0,0,1-1.183,1.906c-1.147,1.221-1.153,1.292-.188,2.357s.961,1.1-.183,1.1c-.814,0-1.177.339-1.177,1.092,0,.814-.363,1.092-1.426,1.092h-1.426l1.289-1.057c1.221-1,1.24-1.109.35-2.013-1.54-1.565-7.636,4.717-6.161,6.347.959,1.06.953,1.092-.188,1.092-.814,0-1.177.339-1.177,1.092,0,.814-.363,1.092-1.426,1.092h-1.426l1.289-1.057c1.221-1,1.24-1.109.35-2.013-1.54-1.565-7.636,4.717-6.161,6.347,1.316,1.453-.972,1.617-2.556.183-.942-.852-1.084-.836-2.264.273a4.336,4.336,0,0,1-1.906,1.183.65.65,0,0,0-.647.647,4.335,4.335,0,0,1-1.183,1.906c-1.147,1.221-1.153,1.292-.188,2.357,1.322,1.458-.961,1.628-2.551.188-.942-.852-1.084-.836-2.264.273a4.335,4.335,0,0,1-1.906,1.183c-1.068,0-.787,3.16.309,3.447.718.188.653.265-.273.314-.844.044-1.229.4-1.229,1.155,0,1.374-1.945,1.48-3.373.186-1.636-1.48-5.487,2.543-4,4.181.964,1.065.959,1.1-.186,1.1-.814,0-1.177.339-1.177,1.092,0,1.382-1.947,1.478-3.395.167-.975-.882-1.128-.817-3.185,1.366-1.232,1.308-2.66,2.291-3.332,2.291-2.341,0-9.556,7.994-8.385,9.289.956,1.057.95,1.09-.191,1.09-.814,0-1.177.339-1.177,1.092,0,.814-.363,1.092-1.426,1.092h-1.426l1.289-1.057c1.229-1.008,1.243-1.1.336-2.026s-1.1-.819-4.252,2.423c-2.286,2.349-3.714,3.392-4.646,3.392-1.63,0-1.729-.59-.254-1.513a3.161,3.161,0,0,0,.273-4.5c-.538-.448-.792-1.546-.737-3.206.049-1.529.169-1.95.306-1.068.489,3.2,3.436,3.171,3.436-.03a2.593,2.593,0,0,1,1.092-2.125,3.161,3.161,0,0,0,.273-4.5c-1.33-1.1-1.112-5.462.273-5.462.909,0,1.106-.391,1.174-2.321.055-1.554.156-1.838.306-.86.306,2.01,1.532,2.988,2.616,2.089a3.408,3.408,0,0,0,0-4.37c-1.33-1.1-1.112-5.462.273-5.462.918,0,1.092-.363,1.092-2.27,0-2.248.011-2.259,1.109-1.265,1.641,1.483,3.474-.183,2-1.819-1.393-1.535-1.267-5.572.172-5.572.912,0,1.1-.385,1.155-2.322.036-1.275.178-1.89.314-1.366.481,1.844,3.447,1.256,3.447-.683q0-1.639-.819-1.639c-.625,0-.8-.617-.737-2.595.049-1.519.175-1.988.306-1.133.306,2.01,1.532,2.988,2.616,2.089a3.408,3.408,0,0,0,0-4.37c-.538-.448-.792-1.546-.737-3.206.049-1.529.169-1.95.306-1.068.306,2.01,1.532,2.988,2.616,2.089a3.407,3.407,0,0,0,0-4.37c-.538-.448-.792-1.546-.737-3.206.049-1.529.169-1.95.306-1.068.306,2.01,1.532,2.988,2.616,2.089a3.407,3.407,0,0,0,0-4.37c-1.248-1.035-1.071-5,.273-6.156.882-.754,1.092-1.611,1.092-4.427,0-3.032.145-3.529,1.092-3.777.97-.254,1.092-.746,1.092-4.37s.123-4.116,1.092-4.37,1.1-.789,1.194-4.842c.071-3.247.158-3.744.3-1.734.224,3.182,1.267,4.566,2.6,3.458,1.21-1.005,1.112-5.817-.137-6.6-1.273-.792-1.117-16.046.178-17.482,2.089-2.316-1.833-8.322-4.1-6.273-1,.9-1.054.89-1.226-.33a2.473,2.473,0,0,1,.907-2.177c1.062-.882.983-1.008-3.16-5.151-4.028-4.028-4.293-4.2-5.184-3.294s-.866,1.011.352,2.01l1.289,1.057h-1.426c-1.062,0-1.426-.279-1.426-1.092,0-.754-.363-1.092-1.177-1.092-1.15,0-1.153-.027-.172-1.109,1.483-1.641-.183-3.474-1.819-2-1.33,1.207-8.3,1.344-8.3.164,0-1.819-12.394-2.149-14.049-.374-1.431,1.535-11.771,1.9-12.675.448-.778-1.248-5.591-1.346-6.6-.137-1.109,1.336.276,2.379,3.458,2.6,2.436.172,2.289.213-1.071.3-2.887.074-4.067-.109-4.572-.718a3.211,3.211,0,0,0-2.185-.819c-3.253,0-3.337,2.941-.1,3.436.8.123-.167.262-2.16.306-2.627.06-3.8-.142-4.3-.737a3.407,3.407,0,0,0-4.37,0c-.9,1.084.079,2.311,2.089,2.616.882.137.462.257-1.068.306-1.661.055-2.758-.2-3.206-.737a3.407,3.407,0,0,0-4.37,0c-.9,1.084.079,2.311,2.089,2.616.855.131.385.257-1.133.306-1.977.063-2.595-.112-2.595-.737q0-.819-1.639-.819c-1.939,0-2.526,2.966-.683,3.447.669.175.56.27-.366.314a3.736,3.736,0,0,1-2.338-.858c-1.636-1.478-3.3.355-1.819,2,1.336,1.475-.945,1.644-2.551.188-1.636-1.478-3.3.355-1.819,2,1.33,1.467-.94,1.65-2.537.2-1.636-1.48-5.487,2.543-4,4.181,1.314,1.45-.964,1.625-2.543.2-1.543-1.4-16.477,13.527-14.994,14.986.9.882,1.008.863,2.007-.355l1.057-1.289v1.426c0,1.062-.279,1.426-1.092,1.426-.754,0-1.092.363-1.092,1.177,0,1.15-.027,1.153-1.109.172-1.641-1.483-3.474.183-2,1.819,1.366,1.508,1.251,5.359-.172,5.73-1.7.445-1.7,21.087,0,21.532.937.246,1.092.746,1.092,3.5,0,2.851.123,3.215,1.092,3.215,1.439,0,1.565,4.037.172,5.572-1.478,1.636.355,3.3,2,1.819,1.087-.986,1.109-.978,1.109.445,0,.926-.3,1.45-.819,1.45-1.213,0-1.213,14.833,0,15.841.56.464.792,1.57.732,3.479s-.158,2.242-.306,1.068c-.279-2.237-1.467-3.31-2.611-2.362a3.35,3.35,0,0,0,.137,4.476c.762.568.89,1.21.628,3.171-.183,1.368-.363,1.822-.41,1.021-.112-1.939-1.428-3.037-2.54-2.114a3.407,3.407,0,0,0,0,4.37c.538.448.792,1.546.737,3.206-.049,1.529-.169,1.95-.306,1.068-.489-3.2-3.436-3.171-3.436.03a2.593,2.593,0,0,1-1.092,2.125,3.161,3.161,0,0,0-.273,4.5c.538.448.792,1.546.737,3.206-.049,1.529-.169,1.95-.306,1.068-.306-2.01-1.532-2.988-2.616-2.089a3.407,3.407,0,0,0,0,4.37c1.33,1.1,1.112,5.462-.273,5.462-.912,0-1.1.385-1.155,2.322-.036,1.275-.178,1.893-.314,1.366-.481-1.844-3.447-1.256-3.447.683q0,1.639.819,1.639c.625,0,.8.617.737,2.595-.049,1.519-.175,1.988-.306,1.133-.306-2.01-1.532-2.988-2.616-2.089a3.407,3.407,0,0,0,0,4.37c1.33,1.1,1.112,5.462-.273,5.462-.912,0-1.1.385-1.155,2.321-.036,1.278-.178,1.89-.314,1.366-.481-1.844-3.447-1.256-3.447.683q0,1.639.819,1.639c.606,0,.819.636.819,2.458,0,2.095-.161,2.458-1.092,2.458-.909,0-1.106.391-1.174,2.321-.055,1.554-.156,1.838-.306.86-.306-2.01-1.532-2.988-2.616-2.089a3.407,3.407,0,0,0,0,4.37,3.019,3.019,0,0,1,.819,2.062c0,1.357-.022,1.366-1.109.38-1.641-1.483-3.474.183-2,1.819,1.456,1.606,1.286,3.886-.188,2.551-1.641-1.483-3.474.183-2,1.819a4.338,4.338,0,0,1,.92,2.535v1.519l-1.057-1.289c-1.021-1.245-1.092-1.256-2.048-.3s-.953,1.021.1,1.912c1.527,1.286,1.292,5.563-.3,5.563-.874,0-1.062.385-1.062,2.185,0,1.822-.183,2.185-1.092,2.185-.754,0-1.092.363-1.092,1.177,0,1.15-.027,1.153-1.109.172-1.641-1.483-3.474.183-2,1.819a3.736,3.736,0,0,1,.858,2.338c-.044.926-.139,1.035-.314.366-.3-1.144-3.447-1.368-3.447-.243a9.28,9.28,0,0,1-2.27,3c-2.215,2.237-2.245,2.321-1.281,3.387,1.314,1.453-.972,1.62-2.554.186-1.636-1.48-5.487,2.543-4,4.181.964,1.065.959,1.1-.186,1.1-.814,0-1.177.339-1.177,1.092,0,.814-.363,1.092-1.426,1.092H86.986l1.289-1.057c1.221-1,1.24-1.109.35-2.013s-1.054-.841-3.25,1.33A9.411,9.411,0,0,1,82.356,366c-1.125,0-.9,3.149.243,3.447.718.188.653.265-.273.314-.844.044-1.229.4-1.229,1.155,0,1.371-1.945,1.48-3.368.191-1.631-1.475-9.849,6.921-8.374,8.551.956,1.057.95,1.09-.191,1.09-.814,0-1.177.339-1.177,1.092,0,.814-.363,1.092-1.426,1.092H65.136l1.289-1.057c1.218-1,1.237-1.109.352-2.01s-1.109-.776-4.329,2.423c-1.868,1.857-3.723,3.376-4.119,3.376a.809.809,0,0,0-.721.871,1.4,1.4,0,0,1-1.092,1.155c-.6.158-1.092.65-1.092,1.092s-.492.937-1.092,1.092-1.092.59-1.092.961c0,.92-13.631,14.491-14.554,14.491a.733.733,0,0,0-.74.721c0,.4-1.519,2.25-3.376,4.119-3.2,3.22-3.324,3.441-2.423,4.329s1.011.866,2.01-.352l1.057-1.289v1.426c0,1.062-.279,1.426-1.092,1.426a.965.965,0,0,0-1.092,1.092.965.965,0,0,1-1.092,1.092c-.754,0-1.092.363-1.092,1.177,0,1.144-.03,1.15-1.1.186-1.639-1.483-5.662,2.368-4.181,4,1.295,1.428,1.188,3.373-.186,3.373-.754,0-1.092.363-1.092,1.177,0,1.144-.03,1.15-1.1.186-1.639-1.483-5.735,2.431-4.162,3.977.909.893,1.013.874,2.016-.347l1.057-1.289v1.426c0,1.062-.279,1.426-1.092,1.426-.754,0-1.092.363-1.092,1.177,0,1.15-.027,1.153-1.109.172-1.641-1.483-3.474.183-2,1.819,1.456,1.606,1.286,3.886-.188,2.551-1.641-1.483-3.474.183-2,1.819,1.439,1.587,1.289,3.889-.167,2.57-1.06-.956-1.142-.931-3,.871-2.065,2.007-2.518,4.233-1.1,5.408a2.909,2.909,0,0,1,.757,2.114c-.041.926-.153,1.1-.314.481-.481-1.844-3.447-1.256-3.447.683q0,1.639.819,1.639c.625,0,.8.617.737,2.595-.049,1.519-.175,1.988-.306,1.133-.306-2.01-1.532-2.988-2.616-2.089a3.407,3.407,0,0,0,0,4.37c1.336,1.109,1.128,7.191-.273,8.068-1.7,1.062-1.7,25.195,0,25.64,1.423.371,1.538,4.222.172,5.73-1.448,1.6.347,3.31,1.953,1.857,1.027-.929,1.071-.918,1.245.311a2.473,2.473,0,0,1-.907,2.177c-1.062.882-.983,1.008,3.144,5.135,4,4,4.285,4.181,5.227,3.329,1.423-1.289,3.368-1.18,3.368.191,0,.909.363,1.092,2.185,1.092s2.185.183,2.185,1.092.391,1.106,2.321,1.174c1.554.055,1.838.156.86.306-2.01.306-2.988,1.532-2.089,2.616a3.407,3.407,0,0,0,4.37,0c1.021-1.232,30.043-1.232,30.043,0,0,.587.6.819,2.119.819,3.755,0,4.348-2.879.707-3.436-.882-.137-.462-.257,1.068-.306,1.661-.055,2.758.2,3.206.737a3.161,3.161,0,0,0,4.5-.273,2.593,2.593,0,0,1,2.125-1.092c3.2,0,3.228-2.947.03-3.436-.978-.15-.694-.251.86-.306,1.931-.068,2.321-.265,2.321-1.174,0-.814.363-1.092,1.426-1.092h1.426l-1.289,1.057c-1.245,1.021-1.256,1.092-.3,2.048s1.024.951,2-.238a3.517,3.517,0,0,1,2.286-1.235c2.305-.011,5.214-3.581,4.007-4.916-.956-1.054-.95-1.087.191-1.087.814,0,1.177-.339,1.177-1.092,0-.814.363-1.092,1.426-1.092H90.5l-1.289,1.057c-1.232,1.01-1.248,1.1-.325,2.037s1.051.888,3.141-1.33c1.284-1.363,2.679-2.316,3.406-2.327.765-.008,2.45-1.245,4.46-3.277,1.778-1.794,3.561-3.261,3.96-3.261a.734.734,0,0,0,.729-.735c0-.918,9.215-10.19,10.127-10.19.369,0,.8-.492.956-1.092a1.4,1.4,0,0,1,1.155-1.092.809.809,0,0,0,.871-.721c0-.4,1.519-2.25,3.376-4.119,3.2-3.22,3.324-3.441,2.423-4.329s-1.011-.866-2.01.352l-1.057,1.289V473.94c0-1.062.279-1.426,1.092-1.426.754,0,1.092-.363,1.092-1.177,0-1.142.033-1.147,1.092-.188s1.161.915,4.231-2.152,3.116-3.157,2.048-4.045a2.468,2.468,0,0,1-.909-2.177c.172-1.221.224-1.234,1.229-.328,1.592,1.442,7.765-4.635,6.323-6.227s-1.262-3.865.188-2.551c1.63,1.475,7.912-4.621,6.347-6.161-.9-.89-1.013-.871-2.013.35l-1.057,1.289V447.72c0-1.062.279-1.426,1.092-1.426.754,0,1.092-.363,1.092-1.177,0-1.144.03-1.15,1.1-.186,1.639,1.483,5.735-2.431,4.162-3.977-.909-.893-1.013-.874-2.016.347l-1.057,1.289v-1.426c0-1.062.279-1.426,1.092-1.426.754,0,1.092-.363,1.092-1.177,0-1.15.027-1.153,1.109-.172,1.641,1.483,3.474-.183,2-1.819-1.445-1.6-1.289-3.889.175-2.565,1.639,1.483,5.662-2.368,4.181-4a3.715,3.715,0,0,1-.844-2.324c.044-.926.139-1.035.314-.366.366,1.4,3.231,1.295,3.605-.137.156-.6.647-1.092,1.092-1.092s.934-.492,1.092-1.092a1.4,1.4,0,0,1,1.155-1.092.817.817,0,0,0,.888-.683c.033-1.234,2.636-3.687,3.916-3.69.819,0,2.354-1.144,4.408-3.277,1.912-1.988,3.608-3.275,4.312-3.275,2.33,0,9.54-8,8.374-9.289-.956-1.057-.95-1.09.191-1.09.814,0,1.177-.339,1.177-1.092,0-.814.363-1.092,1.426-1.092h1.426l-1.289,1.057c-1.232,1.011-1.248,1.1-.325,2.037s1.051.888,3.141-1.33c1.286-1.368,2.677-2.316,3.406-2.324,2.349-.022,7.33-5.776,6.14-7.093-.953-1.054-.948-1.087.194-1.087.814,0,1.177-.339,1.177-1.092,0-1.374,1.945-1.48,3.373-.186,1.636,1.48,5.487-2.543,4-4.181-.964-1.065-.959-1.1.186-1.1.814,0,1.177-.339,1.177-1.092,0-.814.363-1.092,1.426-1.092h1.426l-1.289,1.057c-1.232,1.011-1.248,1.1-.325,2.037s1.051.888,3.141-1.33c1.3-1.385,2.668-2.311,3.406-2.313.787,0,2.365-1.183,4.381-3.277,1.977-2.057,3.605-3.28,4.37-3.288,2.338-.022,7.314-5.782,6.129-7.093-.953-1.054-.948-1.087.194-1.087.814,0,1.177-.339,1.177-1.092,0-.814.363-1.092,1.426-1.092h1.426l-1.289,1.057c-1.232,1.01-1.248,1.1-.325,2.037s1.051.888,3.141-1.33c1.3-1.385,2.668-2.311,3.406-2.313.787,0,2.365-1.183,4.381-3.277,1.977-2.057,3.605-3.28,4.37-3.288,2.338-.022,7.314-5.782,6.129-7.093-.953-1.054-.948-1.087.194-1.087.814,0,1.177-.339,1.177-1.092,0-.814.363-1.092,1.426-1.092h1.426l-1.289,1.057c-1.232,1.011-1.248,1.1-.325,2.037s1.051.888,3.141-1.33c1.286-1.368,2.677-2.316,3.406-2.324,2.349-.022,7.33-5.776,6.14-7.093-.953-1.054-.948-1.087.194-1.087.814,0,1.177-.339,1.177-1.092,0-1.393,1.953-1.472,3.422-.142,1.005.909,1.1.9,2.092-.333l1.041-1.284,1.03,1.27c1.256,1.554,2.742.713,2.876-1.625.046-.8.227-.347.41,1.021.27,2.035.139,2.616-.765,3.378-1.054.89-1.06.956-.1,1.912s1.027.948,2.048-.3l1.057-1.289v1.426c0,1.062.279,1.426,1.092,1.426s1.092.363,1.092,1.426v1.426l-1.057-1.289c-1-1.221-1.106-1.24-2.016-.347-1.573,1.546,2.524,5.46,4.162,3.977,1.453-1.314,1.625.964.191,2.548-1.475,1.63,4.733,7.666,6.366,6.189,1.06-.959,1.092-.953,1.092.188,0,.814.339,1.177,1.092,1.177a.965.965,0,0,1,1.092,1.092.965.965,0,0,0,1.092,1.092.965.965,0,0,1,1.092,1.092.965.965,0,0,0,1.092,1.092.965.965,0,0,1,1.092,1.092.965.965,0,0,0,1.092,1.092.965.965,0,0,1,1.092,1.092c0,.754.363,1.092,1.177,1.092,1.144,0,1.15.03.186,1.1-1.483,1.639,2.368,5.662,4,4.181,1.584-1.437,3.867-1.267,2.551.188-1.483,1.639,2.431,5.735,3.977,4.162.893-.909.874-1.013-.347-2.016l-1.289-1.057h1.426c1.062,0,1.426.279,1.426,1.092,0,.909.391,1.106,2.321,1.174,1.554.055,1.838.156.86.306-3.2.489-3.171,3.436.03,3.436a2.593,2.593,0,0,1,2.125,1.092,3.161,3.161,0,0,0,4.5.273c.522-.628,1.781-.8,5.391-.721,2.783.057,3.668.183,2.163.3-4.894.391-4.812,3.425.093,3.425,1.641,0,2.849-.3,3.277-.819.571-.686,2.8-.819,13.773-.819,12.634,0,13.1-.038,13.38-1.092.259-1,.746-1.092,5.462-1.092s5.2-.1,5.462-1.092c.246-.937.746-1.092,3.5-1.092,2.851,0,3.215-.123,3.215-1.092,0-.95.336-1.082,2.595-1.005,1.92.066,2.144.145.86.306-2.237.279-3.31,1.467-2.362,2.611a3.161,3.161,0,0,0,4.5-.273,2.593,2.593,0,0,1,2.125-1.092c3.2,0,3.228-2.947.03-3.436-.882-.137-.462-.257,1.068-.306,1.661-.055,2.758.2,3.206.737a3.161,3.161,0,0,0,4.5-.273,2.593,2.593,0,0,1,2.125-1.092c3.2,0,3.228-2.947.03-3.436-.978-.15-.694-.251.86-.306,1.931-.068,2.321-.265,2.321-1.174s.363-1.092,2.185-1.092,2.185-.183,2.185-1.092.363-1.092,2.185-1.092,2.185-.183,2.185-1.092.363-1.092,2.185-1.092,2.185-.183,2.185-1.092.363-1.092,2.185-1.092,2.185-.183,2.185-1.092c0-.814.363-1.092,1.426-1.092H424.8l-1.289,1.057c-1.245,1.021-1.256,1.092-.3,2.048s1.024.95,2-.238a3.52,3.52,0,0,1,2.417-1.229,2.591,2.591,0,0,0,2.092-1.092,2.634,2.634,0,0,1,2.054-1.1c2.4-.011,5.339-3.542,4.1-4.916-.956-1.054-.95-1.087.191-1.087.814,0,1.177-.339,1.177-1.092,0-.814.363-1.092,1.426-1.092h1.426l-1.289,1.057c-1.245,1.021-1.256,1.092-.3,2.048s1.024.95,2-.238a3.517,3.517,0,0,1,2.286-1.234c2.305-.011,5.214-3.581,4.007-4.916-.956-1.054-.95-1.087.191-1.087.814,0,1.177-.339,1.177-1.092,0-.814.363-1.092,1.426-1.092h1.426l-1.289,1.057c-1.221,1-1.24,1.106-.347,2.016,1.546,1.573,5.46-2.524,3.977-4.162-1.341-1.483.98-1.611,2.6-.145,1.005.909,1.1.9,2.043-.273a3.464,3.464,0,0,1,2.291-1.224c.819,0,2.046-.811,3.31-2.185,1.237-1.346,2.5-2.185,3.277-2.185s2.04-.838,3.277-2.185,2.5-2.185,3.277-2.185,2.04-.838,3.277-2.185c1.2-1.305,2.51-2.19,3.256-2.2,2.362-.022,7.352-5.771,6.156-7.093-.953-1.054-.948-1.087.194-1.087.814,0,1.177-.339,1.177-1.092,0-.814.363-1.092,1.426-1.092h1.426l-1.289,1.057c-1.232,1.011-1.248,1.1-.325,2.037s1.051.888,3.141-1.33c1.374-1.458,2.655-2.311,3.474-2.311,1.658,0,2.379-.885,2.668-3.28.191-1.6.243-1.483.317.737.071,2.144.295,2.7,1.18,2.931.97.254,1.092.746,1.092,4.37s.123,4.116,1.092,4.37c.926.243,1.092.746,1.092,3.277s.167,3.037,1.092,3.277c1.423.371,1.538,4.222.172,5.73-1.478,1.636.355,3.3,2,1.819,1.475-1.336,1.644.945.188,2.551-1.478,1.636.355,3.3,2,1.819,1.467-1.33,1.65.94.2,2.537-1.48,1.636,2.543,5.487,4.181,4,1.45-1.314,1.625.964.194,2.545-1.4,1.543,9.158,12.107,10.616,10.624.885-.9.866-1.011-.352-2.01l-1.289-1.057h1.426c1.062,0,1.426.279,1.426,1.092,0,.754.363,1.092,1.177,1.092,1.142,0,1.147.033.191,1.087-1.24,1.374,1.7,4.905,4.1,4.916a2.634,2.634,0,0,1,2.054,1.1,3.161,3.161,0,0,0,4.5.273c.541-.653,1.925-.8,6.757-.71,4.624.082,5.143.153,2.168.295-4.28.2-5.815,1.082-4.556,2.6,1.131,1.363,7.909,1.136,8.914-.3a1.72,1.72,0,0,1,2.18-.77,2.038,2.038,0,0,0,2.373-.792c.9-1.052,1.546-1.142,8.281-1.142,6.844,0,7.322-.068,7.59-1.092.246-.937.746-1.092,3.5-1.092,2.851,0,3.215-.123,3.215-1.092s.363-1.092,3.277-1.092,3.277-.12,3.277-1.092c0-1.385,4.359-1.6,5.462-.273a3.161,3.161,0,0,0,4.5-.273,2.59,2.59,0,0,1,2.185-1.092,2.583,2.583,0,0,0,2.185-1.092,2.59,2.59,0,0,1,2.185-1.092,2.583,2.583,0,0,0,2.185-1.092,2.6,2.6,0,0,1,2.076-1.092c.929,0,2.067-.732,3.4-2.185,1.21-1.314,2.5-2.188,3.255-2.19,2.218-.011,5.17-3.591,4.012-4.87-.9-1-.89-1.054.33-1.226a2.616,2.616,0,0,1,2.229.912c.953,1.09.959,1.09,2-.137a3.677,3.677,0,0,1,2.321-1.243c2.4-.022,7.4-5.757,6.189-7.093-.953-1.054-.948-1.087.194-1.087.814,0,1.177-.339,1.177-1.092,0-.814.363-1.092,1.426-1.092h1.426l-1.289,1.057c-1.232,1.011-1.248,1.1-.325,2.037s1.051.888,3.141-1.33c1.292-1.374,2.674-2.313,3.406-2.319.7-.005,2.149-.942,3.373-2.185a8.709,8.709,0,0,1,2.8-2.177c.363,0,.787-.492.945-1.092.194-.737.746-1.092,1.7-1.092a2.591,2.591,0,0,0,2.092-1.092c1.314-2.1,1.513-1.024,1.513,8.128,0,7.527.15,9.343.819,9.9,2.032,1.685,2.425-.046,2.595-11.392l.161-10.731.123,11.815c.107,9.939-.005,11.919-.694,12.492-1.415,1.174-.961,3.4,1.1,5.408,1.857,1.8,1.939,1.827,3,.871,1.442-1.308,1.611.975.188,2.548-1.4,1.543,13.527,16.477,14.986,14.994.882-.9.863-1.008-.355-2.007l-1.289-1.057h1.426c1.062,0,1.426.279,1.426,1.092,0,.754.363,1.092,1.177,1.092,1.15,0,1.153.027.172,1.109-1.483,1.641.183,3.474,1.819,2,1.606-1.456,3.886-1.286,2.551.188-1.483,1.641.183,3.474,1.819,2a4.873,4.873,0,0,1,3.43-.838c1.543.052,1.887.164.953.306-2.01.306-2.988,1.532-2.089,2.616a3.408,3.408,0,0,0,4.37,0c.554-.666,2.341-.819,9.625-.819,8.584,0,8.947-.044,8.947-1.092,0-.95.336-1.082,2.595-1.005,1.92.066,2.144.145.86.306-2.237.279-3.31,1.467-2.362,2.611a3.161,3.161,0,0,0,4.5-.273,2.59,2.59,0,0,1,2.185-1.092,2.583,2.583,0,0,0,2.185-1.092,2.634,2.634,0,0,1,2.054-1.1c2.4-.011,5.339-3.542,4.1-4.916-.956-1.054-.95-1.087.191-1.087.814,0,1.177-.339,1.177-1.092,0-.814.363-1.092,1.426-1.092h1.426l-1.289,1.057c-1.245,1.021-1.256,1.092-.3,2.048s1.024.95,2-.238a3.517,3.517,0,0,1,2.286-1.234c2.305-.011,5.214-3.581,4.007-4.916-.956-1.054-.95-1.087.191-1.087.814,0,1.177-.339,1.177-1.092,0-.814.363-1.092,1.426-1.092h1.426l-1.289,1.057c-1.221,1-1.24,1.106-.347,2.016,1.546,1.573,5.46-2.524,3.977-4.162-.964-1.065-.959-1.1.186-1.1.814,0,1.177-.339,1.177-1.092,0-.814.363-1.092,1.426-1.092h1.426l-1.289,1.057c-1.245,1.021-1.256,1.092-.3,2.048s1.024.95,2-.238a3.5,3.5,0,0,1,2.308-1.229c.819,0,2.046-.811,3.31-2.185,1.237-1.346,2.5-2.185,3.277-2.185s2.04-.839,3.277-2.185,2.5-2.185,3.277-2.185,2.04-.838,3.277-2.185,2.5-2.185,3.277-2.185,2.04-.838,3.277-2.185,2.5-2.185,3.277-2.185,2.04-.838,3.277-2.185,2.5-2.185,3.277-2.185,2.04-.838,3.277-2.185,2.5-2.185,3.277-2.185,2.04-.838,3.277-2.185,2.5-2.185,3.277-2.185,2.04-.838,3.277-2.185,2.5-2.185,3.277-2.185,2.04-.838,3.277-2.185c1.21-1.314,2.5-2.188,3.255-2.19,2.272-.011,5.17-3.594,3.974-4.916-.956-1.054-.95-1.087.191-1.087.814,0,1.177-.339,1.177-1.092,0-.814.363-1.092,1.426-1.092h1.426l-1.289,1.057c-1.221,1-1.24,1.106-.347,2.016,1.546,1.573,5.46-2.524,3.977-4.162-.964-1.065-.959-1.1.186-1.1.814,0,1.177-.339,1.177-1.092,0-.814.363-1.092,1.426-1.092h1.426l-1.289,1.057c-1.245,1.021-1.256,1.092-.3,2.048s1.024.95,2-.238a3.517,3.517,0,0,1,2.286-1.234c2.305-.011,5.214-3.581,4.007-4.916-1.319-1.456.983-1.606,2.57-.167,1.636,1.478,3.3-.355,1.819-2-.981-1.082-.978-1.109.172-1.109.814,0,1.177-.339,1.177-1.092,0-.909.363-1.092,2.185-1.092s2.185-.183,2.185-1.092c0-1.385,4.359-1.6,5.462-.273a3.407,3.407,0,0,0,4.37,0c.9-1.084-.079-2.311-2.089-2.616-1.1-.169-.937-.246.639-.306,1.6-.063,2.166-.341,2.384-1.174.254-.975.746-1.092,4.591-1.092h4.307v1.964c0,1.5.257,2.029,1.092,2.248,1.013.265,1.092.746,1.092,6.555s.079,6.29,1.093,6.555,1.092.746,1.092,6.555.079,6.29,1.092,6.555c.97.254,1.092.746,1.092,4.37s.123,4.116,1.092,4.37c.912.238,1.079.7,1.005,2.816-.065,1.928-.139,2.119-.306.8-.279-2.237-1.467-3.31-2.611-2.362a3.161,3.161,0,0,0,.273,4.5,2.634,2.634,0,0,1,1.1,2.054c.011,2.4,3.542,5.339,4.916,4.1,1.448-1.311,1.609.978.18,2.556-1.48,1.636,2.543,5.487,4.181,4,1.065-.964,1.1-.959,1.1.186,0,.841.336,1.177,1.177,1.177,1.142,0,1.147.033.188,1.092-1.478,1.633,4.558,7.841,6.189,6.366,1.6-1.445,3.862-1.262,2.535.2-1.483,1.641.183,3.474,1.819,2,.754-.686,1.914-.9,4.523-.838,1.928.044,2.849.183,2.046.306-2.01.306-2.988,1.532-2.089,2.616a3.407,3.407,0,0,0,4.37,0c.552-.666,2.316-.819,9.4-.819,8.264,0,8.74-.057,9.01-1.092s.746-1.092,7.647-1.092,7.38-.068,7.647-1.092c.369-1.412,6.678-1.633,7.806-.273.429.519,1.636.819,3.277.819,4.905,0,4.987-3.034.093-3.425-2.428-.191-2.4-.208.642-.3,2.688-.082,3.236-.27,3.477-1.191s.746-1.092,3.277-1.092,3.037-.167,3.277-1.092c.358-1.374,4.539-1.576,5.621-.273a3.161,3.161,0,0,0,4.5-.273,2.59,2.59,0,0,1,2.185-1.092,2.583,2.583,0,0,0,2.185-1.092,2.593,2.593,0,0,1,2.125-1.092c3.2,0,3.228-2.947.03-3.436-.978-.15-.694-.251.86-.306,1.931-.068,2.321-.265,2.321-1.174s.363-1.092,2.185-1.092,2.185-.183,2.185-1.092c0-.814.363-1.092,1.426-1.092h1.426l-1.289,1.057c-1.245,1.021-1.256,1.092-.3,2.048s1.024.95,2-.238a3.52,3.52,0,0,1,2.417-1.229,2.591,2.591,0,0,0,2.092-1.092,2.634,2.634,0,0,1,2.054-1.1c2.4-.011,5.339-3.542,4.1-4.916-.956-1.054-.951-1.087.191-1.087.814,0,1.177-.339,1.177-1.092,0-.814.363-1.092,1.426-1.092h1.426l-1.289,1.057c-1.245,1.021-1.256,1.092-.3,2.048s1.024.95,2-.238a3.505,3.505,0,0,1,2.286-1.234c2.305-.011,5.214-3.581,4.007-4.916-.956-1.054-.951-1.087.191-1.087.814,0,1.177-.339,1.177-1.092,0-.814.363-1.092,1.426-1.092h1.426L1002.511,325c-1.221,1-1.24,1.106-.347,2.016,1.546,1.573,5.46-2.524,3.977-4.162-.964-1.065-.959-1.1.186-1.1.814,0,1.177-.339,1.177-1.092,0-.814.363-1.092,1.426-1.092h1.426l-1.289,1.057c-1.221,1-1.24,1.106-.347,2.016,1.546,1.573,5.46-2.524,3.977-4.162-.964-1.065-.959-1.1.186-1.1.814,0,1.177-.339,1.177-1.092,0-1.374,1.945-1.48,3.373-.186,1.636,1.48,5.487-2.543,4-4.181-.964-1.065-.959-1.1.186-1.1.814,0,1.177-.339,1.177-1.092,0-.814.363-1.092,1.426-1.092h1.426l-1.289,1.057c-1.221,1-1.24,1.109-.35,2.013,1.54,1.565,7.636-4.717,6.161-6.347-.959-1.06-.953-1.092.188-1.092.814,0,1.177-.339,1.177-1.092,0-1.371,1.945-1.48,3.368-.191,1.63,1.475,9.849-6.921,8.374-8.551-.956-1.057-.95-1.09.191-1.09.814,0,1.177-.339,1.177-1.092a.965.965,0,0,1,1.093-1.092.965.965,0,0,0,1.092-1.092.965.965,0,0,1,1.092-1.092.965.965,0,0,0,1.093-1.092.965.965,0,0,1,1.092-1.092.957.957,0,0,0,1.093-1.03c0-.664.483-1.12,1.366-1.289,1.685-.322,1.715-.055.136,1.24-1.161.953-1.177,1.06-.292,1.961s1.153.737,5.151-3.261,4.165-4.261,3.261-5.151-1.008-.868-1.961.292c-1.295,1.579-1.562,1.549-1.24-.137.169-.882.625-1.366,1.289-1.366a.957.957,0,0,0,1.03-1.092.965.965,0,0,1,1.092-1.092.965.965,0,0,0,1.093-1.092.965.965,0,0,1,1.093-1.092.965.965,0,0,0,1.092-1.092.965.965,0,0,1,1.092-1.092c.754,0,1.093-.363,1.093-1.177,0-1.144.03-1.15,1.1-.183s1.136.959,2.357-.188a4.335,4.335,0,0,1,1.906-1.183.684.684,0,0,0,.647-.713,9.6,9.6,0,0,1,2.319-3.053c2.281-2.3,2.3-2.357,1.229-3.247a2.476,2.476,0,0,1-.909-2.179c.172-1.224.224-1.237,1.232-.322,1.6,1.445,5.583-2.447,4.138-4.045s-1.267-3.867.188-2.551c1.639,1.483,5.735-2.431,4.162-3.977-.909-.893-1.013-.874-2.016.347l-1.057,1.289v-1.426c0-1.062.279-1.426,1.092-1.426.9,0,1.093-.363,1.093-2.122,0-1.661.238-2.182,1.092-2.406.97-.254,1.093-.746,1.093-4.37s.123-4.116,1.092-4.37c.991-.259,1.092-.746,1.092-5.3s-.1-5.044-1.092-5.3c-1.409-.369-1.538-4.222-.191-5.711,1.57-1.737-6.353-9.2-9.767-9.2-4.993,0-4.717,3.067.306,3.422,1.554.109-2.461.2-8.92.2s-10.474-.09-8.92-.2c5.162-.363,5.268-3.422.117-3.422-2.068,0-2.81.243-3.34,1.092a2.593,2.593,0,0,1-2.125,1.092c-3.2,0-3.228,2.947-.03,3.436.934.142.59.254-.953.306a4.872,4.872,0,0,1-3.43-.838c-1.636-1.478-3.3.355-1.819,2,1.336,1.475-.945,1.644-2.551.188-1.636-1.478-3.3.355-1.819,2,.98,1.082.978,1.109-.172,1.109-.814,0-1.177.339-1.177,1.092,0,.814-.363,1.092-1.426,1.092h-1.426l1.289-1.057c1.221-1,1.24-1.106.347-2.016-1.546-1.573-5.46,2.524-3.977,4.162,1.319,1.458-.967,1.622-2.559.183-.956-.866-1.226-.691-5.4,3.551-2.821,2.87-4.818,4.465-5.588,4.471-.666.005-2.152.978-3.343,2.185a8.351,8.351,0,0,1-2.868,2.177.691.691,0,0,0-.724.647,4.335,4.335,0,0,1-1.183,1.906c-1.147,1.221-1.153,1.292-.188,2.357s.961,1.1-.183,1.1c-.814,0-1.177.339-1.177,1.092,0,.814-.363,1.092-1.426,1.092h-1.426l1.289-1.057c1.221-1,1.24-1.109.35-2.013-1.54-1.565-7.636,4.717-6.161,6.347,1.314,1.453-.972,1.617-2.554.186-1.636-1.48-5.487,2.543-4,4.181,1.341,1.483-.98,1.611-2.6.145-1.005-.909-1.1-.9-2.043.273a3.467,3.467,0,0,1-2.27,1.229c-2.305.011-5.214,3.581-4.007,4.916,1.319,1.456-.983,1.606-2.57.167-1.636-1.478-3.3.355-1.819,2,1.336,1.475-.945,1.644-2.551.188-1.636-1.478-3.3.355-1.819,2,.986,1.087.978,1.109-.38,1.109a3.019,3.019,0,0,1-2.062-.819,3.161,3.161,0,0,0-4.5.273c-.524.838-1.275,1.092-3.217,1.092-4.848,0-4.875,3.04-.027,3.425,2.065.164,1.849.221-1.136.3-2.958.079-3.687-.063-3.687-.721,0-.636-.721-.819-3.212-.819-5.424,0-6.041,3-.7,3.425,1.4.109-1.442.246-6.325.3-8.546.1-8.876.057-8.876-.994a.965.965,0,0,0-1.092-1.092c-.866,0-1.1-.366-1.1-1.775-.011-2.595-.56-4.233-1.42-4.233-1.4,0-1.079-24.061.336-25.274,1-.852,1.092-1.611,1.092-8.729,0-7.2.082-7.847,1.092-8.478,1.652-1.032,1.652-9.914,0-10.346-1.423-.371-1.538-4.222-.172-5.73,1.478-1.636-.355-3.3-2-1.819-1.081.98-1.109.978-1.109-.172,0-.814-.339-1.177-1.093-1.177-.814,0-1.092-.363-1.092-1.426v-1.426l1.057,1.289c1,1.218,1.112,1.237,2.007.355,1.215-1.2-17.141-20.1-19.52-20.1A2.618,2.618,0,0,1,921.325,177a3.161,3.161,0,0,0-4.5-.273c-.948,1.144.126,2.332,2.362,2.611.953.12-2.966.257-8.715.306-8.7.074-10.561-.049-11.127-.732a3.407,3.407,0,0,0-4.37,0c-.923,1.112.175,2.428,2.114,2.54.8.046.347.227-1.021.41-2.035.27-2.617.139-3.378-.765-.89-1.054-.956-1.06-1.912-.1s-.948,1.027.3,2.048l1.289,1.057h-1.519a4.338,4.338,0,0,1-2.534-.92c-1.636-1.478-3.3.355-1.819,2,1.335,1.475-.945,1.644-2.551.188-1.636-1.478-3.3.355-1.819,2,1.336,1.475-.945,1.644-2.551.188-1.636-1.478-3.3.355-1.819,2,1.336,1.475-.945,1.644-2.551.188s-3.31.347-1.857,1.953c.929,1.027.918,1.071-.311,1.245a2.476,2.476,0,0,1-2.182-.912c-.9-1.076-.937-1.062-2.955.953-2,1.994-2.021,2.07-1.054,3.141,1.325,1.464-.97,1.62-2.565.175-1.636-1.478-3.3.355-1.819,2,.98,1.082.978,1.109-.172,1.109-.814,0-1.177.339-1.177,1.092,0,.814-.363,1.092-1.426,1.092h-1.426l1.289-1.057c1.221-1,1.24-1.106.347-2.016-1.546-1.573-5.46,2.524-3.977,4.162.964,1.065.959,1.1-.186,1.1-.814,0-1.177.339-1.177,1.092,0,.814-.363,1.092-1.426,1.092h-1.426L853,204.9c1.221-1,1.24-1.106.347-2.016-1.546-1.573-5.46,2.524-3.977,4.162.964,1.065.959,1.1-.186,1.1-.814,0-1.177.339-1.177,1.092,0,.814-.363,1.092-1.426,1.092h-1.426l1.289-1.057c1.221-1,1.24-1.109.35-2.013-1.54-1.565-7.636,4.717-6.161,6.347,1.314,1.453-.972,1.617-2.554.186-1.636-1.48-5.487,2.543-4,4.181.964,1.065.959,1.1-.186,1.1-.814,0-1.177.339-1.177,1.092,0,.814-.363,1.092-1.426,1.092h-1.426l1.289-1.057c1.221-1,1.24-1.109.35-2.013-1.54-1.565-7.636,4.717-6.161,6.347.959,1.06.953,1.092-.188,1.092-.814,0-1.177.339-1.177,1.092s-.363,1.092-1.177,1.092c-1.15,0-1.153-.027-.172-1.109,1.674-1.852-.257-3.449-2.089-1.729a4.392,4.392,0,0,1-1.923,1.2.65.65,0,0,0-.647.647,4.335,4.335,0,0,1-1.183,1.906c-1.128,1.2-1.139,1.305-.227,2.313s.9,1.062-.322,1.234a2.468,2.468,0,0,1-2.177-.909c-.888-1.068-.972-1.024-4.045,2.048-3.023,3.023-3.1,3.179-2.19,4.187s.893,1.057-.328,1.229a2.468,2.468,0,0,1-2.177-.909c-.888-1.068-.972-1.024-4.045,2.048s-3.116,3.165-2.152,4.231c1.316,1.453-.972,1.617-2.556.183-.942-.852-1.084-.836-2.264.273a4.336,4.336,0,0,1-1.906,1.183.65.65,0,0,0-.647.647,4.335,4.335,0,0,1-1.183,1.906c-1.147,1.221-1.153,1.292-.188,2.357,1.327,1.464-.964,1.625-2.562.178-1.636-1.478-3.3.355-1.819,2,.98,1.082.978,1.109-.172,1.109-.814,0-1.177.339-1.177,1.092,0,.923-.363,1.092-2.362,1.092-2.627,0-4.739-1.628-4.739-3.654a2.661,2.661,0,0,0-.819-1.808,3.019,3.019,0,0,1-.819-2.062c0-1.357.022-1.366,1.109-.38,1.641,1.483,3.474-.183,2-1.819-1.456-1.606-1.286-3.886.188-2.551,1.641,1.483,3.474-.183,2-1.819-1.456-1.606-1.286-3.886.188-2.551,1.641,1.483,3.474-.183,2-1.819-1.456-1.606-1.286-3.886.188-2.551,1.641,1.483,3.474-.183,2-1.819-1.456-1.606-1.286-3.886.188-2.551,1.641,1.483,3.474-.183,2-1.819-1.456-1.606-1.286-3.886.188-2.551,1.641,1.483,3.474-.183,2-1.819-1.456-1.606-1.286-3.886.188-2.551,1.641,1.483,3.474-.183,2-1.819-1.456-1.606-1.286-3.886.188-2.551,1.641,1.483,3.474-.183,2-1.819-1.456-1.606-1.286-3.886.188-2.551,1.641,1.483,3.474-.183,2-1.819-1.393-1.535-1.267-5.572.172-5.572.918,0,1.092-.363,1.092-2.27,0-2.248.011-2.259,1.109-1.265,1.641,1.483,3.474-.183,2-1.819-1.366-1.508-1.251-5.359.172-5.73.972-.254,1.1-.789,1.193-4.842.071-3.247.158-3.744.3-1.734.363,5.162,3.422,5.268,3.422.117,0-1.991-.254-2.816-1.005-3.286-.814-.511-.956-1.123-.754-3.234.208-2.163.055-2.772-.907-3.594-1.45-1.24-1.584-4.834-.238-6.32,1.434-1.587-.341-3.316-1.931-1.876-1.005.909-1.057.874-1.407-.994-.218-1.163-.68-1.936-1.158-1.936-.437,0-.795-.229-.795-.508,0-.964-1.723-2.223-3.042-2.223-.964,0-1.327-.3-1.327-1.092,0-.909-.363-1.092-2.185-1.092s-2.185-.183-2.185-1.092c0-.964-.4-1.1-3.414-1.191s-3.119-.123-.863-.3c4.848-.385,4.82-3.425-.027-3.425-1.942,0-2.693-.254-3.217-1.092-.912-1.464-20.781-1.71-21.975-.273-1.677,2.021.06,2.425,11.119,2.595l10.458.161-12.206.126c-11.692.117-12.216.169-12.49,1.215-.374,1.434-8.835,1.663-9.99.273a3.407,3.407,0,0,0-4.37,0c-.9,1.084.079,2.311,2.089,2.616.978.15.694.251-.86.306-1.931.068-2.322.265-2.322,1.174,0,1.439-4.037,1.565-5.572.172-1.636-1.478-3.3.355-1.819,2,1.335,1.475-.945,1.644-2.551.188-1.636-1.478-3.3.355-1.819,2,1.33,1.467-.94,1.65-2.537.2-1.636-1.48-5.487,2.543-4,4.181,1.314,1.453-.964,1.625-2.548.191-1.631-1.475-7.666,4.733-6.189,6.366.959,1.06.953,1.092-.188,1.092-.814,0-1.177.339-1.177,1.092,0,.814-.363,1.092-1.426,1.092h-1.426l1.289-1.057c1.218-1,1.237-1.109.355-2.007s-1.27-.617-7.336,5.446-6.347,6.448-5.446,7.336,1.005.866,1.958-.295c1.295-1.579,1.562-1.549,1.24.137-.169.882-.625,1.366-1.289,1.366-.691,0-1.03.388-1.03,1.177,0,1.142-.033,1.147-1.092.188-1.633-1.478-7.841,4.558-6.366,6.189,1.292,1.426,1.183,3.37-.188,3.37-.754,0-1.092.363-1.092,1.177,0,1.144-.03,1.15-1.1.186-1.639-1.483-5.735,2.431-4.162,3.977.909.893,1.013.874,2.016-.347l1.057-1.289V208.9c0,1.062-.279,1.426-1.092,1.426-.754,0-1.092.363-1.092,1.177,0,1.15-.027,1.153-1.109.172-1.641-1.483-3.474.183-2,1.819,1.456,1.606,1.286,3.886-.188,2.551-1.641-1.483-3.474.183-2,1.819,1.448,1.6,1.286,3.889-.177,2.562-1.065-.964-1.136-.959-2.357.188a4.335,4.335,0,0,1-1.906,1.183.69.69,0,0,0-.647.721c0,.4-1.51,2.242-3.359,4.1-3.28,3.3-3.335,3.4-2.373,4.465s.95,1.09-.191,1.09c-.814,0-1.177.339-1.177,1.092,0,1.371-1.945,1.48-3.37.188-.942-.852-1.131-.773-3.294,1.366a9.279,9.279,0,0,1-3,2.27.713.713,0,0,0-.713.713,9.279,9.279,0,0,1-2.27,3c-2.215,2.237-2.245,2.321-1.281,3.387s.953,1.092-.188,1.092c-.814,0-1.177.339-1.177,1.092,0,.814-.363,1.092-1.426,1.092H650.7l1.289-1.057c1.218-1,1.237-1.109.352-2.01-1.538-1.565-9.821,6.9-8.346,8.532.956,1.057.95,1.09-.191,1.09-.814,0-1.177.339-1.177,1.092,0,1.374-1.945,1.48-3.376.183-.942-.852-1.084-.836-2.264.273a4.336,4.336,0,0,1-1.906,1.183.65.65,0,0,0-.647.647,4.336,4.336,0,0,1-1.183,1.906c-1.147,1.221-1.153,1.292-.188,2.357,1.319,1.458-.961,1.628-2.548.191-1.636-1.48-5.487,2.543-4,4.181,1.341,1.483-.981,1.611-2.6.145-1.005-.909-1.1-.9-2.043.273a3.467,3.467,0,0,1-2.27,1.229c-2.305.011-5.214,3.581-4.007,4.916.961,1.06.95,1.087-.4,1.087a3.019,3.019,0,0,1-2.062-.819,3.211,3.211,0,0,0-2.185-.819c-3.253,0-3.337,2.941-.1,3.436.852.131.38.259-1.139.306-1.854.057-2.868.4-3.534,1.174-.732.855-1.611,1.092-4.028,1.092-2.633,0-3.135-.161-3.378-1.092-.219-.838-.776-1.106-2.384-1.155-1.155-.036-1.669-.178-1.144-.314,1.1-.287,1.376-3.447.3-3.447-.9,0-3.717-2.772-3.717-3.652,0-1.131-3.146-.912-3.447.238-.188.718-.265.653-.314-.273-.044-.844-.4-1.229-1.155-1.229-1.013,0-1.092-.366-1.1-5.053-.008-5.752-.341-7.511-1.42-7.511-1.292,0-1.021-6.863.336-8.589.934-1.188,1.106-2.311,1.191-7.735.055-3.49.191-5.2.3-3.794.391,4.894,3.425,4.812,3.425-.093,0-1.641-.3-2.849-.819-3.277-1.36-1.128-1.139-7.437.273-7.806.929-.243,1.092-.746,1.092-3.34,0-2.693.131-3.056,1.093-3.056.909,0,1.106-.391,1.174-2.321.055-1.554.156-1.838.306-.86.494,3.242,3.436,3.157,3.436-.1a3.211,3.211,0,0,0-.819-2.185c-1.33-1.1-1.112-5.462.273-5.462.909,0,1.106-.391,1.174-2.322.055-1.554.156-1.838.306-.86.481,3.138,3.436,3.19,3.436.063a3.511,3.511,0,0,1,1.224-2.341c1.169-.948,1.183-1.038.273-2.043-1.467-1.62-1.338-3.941.145-2.6,1.639,1.483,5.662-2.368,4.181-4-1.431-1.581-1.267-3.867.186-2.554,1.631,1.475,7.912-4.621,6.347-6.161-.9-.89-1.013-.871-2.013.35l-1.057,1.289v-1.426c0-1.062.279-1.426,1.092-1.426.754,0,1.092-.363,1.092-1.177,0-1.144.03-1.15,1.1-.183s1.136.959,2.357-.188a4.335,4.335,0,0,1,1.906-1.183.65.65,0,0,0,.647-.647,4.335,4.335,0,0,1,1.183-1.906c1.109-1.18,1.125-1.322.273-2.264-1.439-1.59-1.27-3.873.188-2.551,1.065.964,1.136.959,2.357-.188a4.335,4.335,0,0,1,1.906-1.183.65.65,0,0,0,.647-.647,4.335,4.335,0,0,1,1.183-1.906c1.109-1.18,1.125-1.322.273-2.264-1.434-1.584-1.27-3.873.183-2.556,1.633,1.478,7.841-4.558,6.366-6.189-1.292-1.426-1.183-3.37.188-3.37.754,0,1.092-.363,1.092-1.177,0-1.144.03-1.15,1.1-.186,1.639,1.483,5.662-2.368,4.181-4-1.295-1.428-1.188-3.373.186-3.373.754,0,1.092-.363,1.092-1.177,0-1.142.033-1.147,1.092-.188,1.63,1.475,7.912-4.621,6.347-6.161-.9-.89-1.013-.871-2.013.35l-1.057,1.289v-1.426c0-1.062.279-1.426,1.092-1.426.751,0,1.112-.385,1.155-1.229.049-.926.126-.991.314-.273.3,1.144,3.447,1.368,3.447.243a9.411,9.411,0,0,1,2.286-3.018c2.171-2.2,2.24-2.357,1.33-3.25s-1.01-.871-2.013.35l-1.057,1.289v-1.426c0-1.062.279-1.426,1.092-1.426.754,0,1.093-.363,1.093-1.177,0-1.144.03-1.15,1.1-.186,1.639,1.483,5.662-2.368,4.181-4-1.437-1.584-1.267-3.867.188-2.551,1.639,1.483,5.662-2.368,4.181-4-1.437-1.584-1.267-3.867.188-2.551,1.639,1.483,5.662-2.368,4.181-4-1.448-1.6-1.265-3.867.2-2.537,1.641,1.483,3.474-.183,2-1.819-1.445-1.595-1.289-3.889.175-2.565,1.639,1.483,5.735-2.431,4.162-3.977-.909-.893-1.013-.874-2.016.347l-1.057,1.289V98.133c0-1.062.279-1.426,1.092-1.426.909,0,1.092-.363,1.092-2.185s.183-2.185,1.092-2.185,1.092-.363,1.092-2.185.183-2.185,1.092-2.185,1.092-.363,1.092-2.185.183-2.185,1.092-2.185,1.106-.391,1.174-2.321c.055-1.554.156-1.838.306-.86.494,3.242,3.436,3.157,3.436-.1a3.211,3.211,0,0,0-.819-2.185c-1.33-1.1-1.112-5.462.273-5.462.972,0,1.092-.363,1.092-3.277s.12-3.277,1.092-3.277,1.093-.363,1.093-3.466c0-2.772.218-3.662,1.092-4.455,1.03-.931,1.092-1.682,1.092-13.014,0-10.507.117-12.156.92-13.041,1.478-1.636-.355-3.3-2-1.819-1.464,1.327-1.65-.937-.208-2.532,1.4-1.546-9.1-12.042-10.643-10.643-1.426,1.289-3.367,1.18-3.367-.191,0-.754-.363-1.092-1.177-1.092-1.142,0-1.147-.033-.191-1.087,1.24-1.374-1.7-4.905-4.1-4.916a2.634,2.634,0,0,1-2.054-1.1c-.571-.918-1.273-1.092-4.37-1.092s-3.8-.175-4.37-1.092c-.909-1.461-18.6-1.7-19.79-.273m-13.131,4.4a1.34,1.34,0,1,0,2.024,1.756,1.54,1.54,0,0,0-.91-2.6,2.327,2.327,0,0,0-1.114.847m39.2.645a20.281,20.281,0,0,1-3.824-.005c-.972-.12-.044-.216,2.059-.213s2.9.1,1.764.218m-384.4,8.068c-1.712,2.062.005,2.428,12.211,2.595l11.55.158-13.727.126c-11.637.107-13.828,0-14.4-.694-.429-.519-1.636-.819-3.277-.819-4.905,0-4.987,3.034-.093,3.425,1.712.137,1.144.235-1.734.3-3.78.087-4.318.227-4.569,1.191-.369,1.412-6.678,1.633-7.806.273a3.407,3.407,0,0,0-4.37,0c-.9,1.084.079,2.311,2.089,2.616.8.123-.167.262-2.16.306-2.627.06-3.8-.142-4.3-.737a3.161,3.161,0,0,0-4.5.273,2.593,2.593,0,0,1-2.125,1.092c-3.2,0-3.228,2.947-.03,3.436.882.137.462.257-1.068.306-1.661.055-2.758-.2-3.206-.737a3.161,3.161,0,0,0-4.5.273,2.634,2.634,0,0,1-2.054,1.1c-2.4.011-5.339,3.542-4.1,4.916,1.319,1.456-.983,1.606-2.57.167-1.636-1.478-3.3.355-1.819,2,.98,1.082.978,1.109-.172,1.109-.814,0-1.177.339-1.177,1.092,0,1.371-1.942,1.48-3.367.191-1.546-1.4-12.042,9.1-10.643,10.643,1.426,1.576,1.259,3.859-.186,2.551-1.374-1.24-4.905,1.7-4.916,4.1a2.634,2.634,0,0,1-1.1,2.054,3.161,3.161,0,0,0-.273,4.5c1.144.948,2.332-.126,2.611-2.362.167-1.322.24-1.131.306.8.074,2.111-.093,2.578-1.005,2.816-1.032.27-1.092.746-1.092,8.581s.06,8.311,1.092,8.581c.912.238,1.079.7,1.005,2.816-.066,1.928-.139,2.119-.306.8-.279-2.237-1.467-3.31-2.611-2.362a3.161,3.161,0,0,0,.273,4.5,2.593,2.593,0,0,1,1.092,2.125c0,3.2,2.947,3.228,3.436.03.15-.978.251-.694.306.86.068,1.931.265,2.321,1.174,2.321,1.368,0,1.48,1.942.194,3.365-.852.94-.5,1.4,6.56,8.453s7.513,7.412,8.453,6.56c1.579-1.428,3.856-1.254,2.543.2-1.483,1.639,2.431,5.735,3.977,4.162.893-.909.874-1.013-.347-2.016l-1.289-1.057h1.426c1.062,0,1.426.279,1.426,1.092,0,.909.391,1.106,2.321,1.174,1.554.055,1.838.156.86.306-3.2.489-3.171,3.436.03,3.436a2.593,2.593,0,0,1,2.125,1.092,3.161,3.161,0,0,0,4.5.273c.948-1.144-.126-2.332-2.362-2.611-1.322-.167-1.131-.24.8-.306,2.111-.074,2.578.093,2.816,1.005.273,1.049.746,1.092,12.08,1.092,11.433,0,11.8-.033,11.8-1.092,0-.95.336-1.082,2.595-1.005,1.92.066,2.144.145.86.306-2.237.279-3.31,1.467-2.362,2.611a3.161,3.161,0,0,0,4.5-.273,2.59,2.59,0,0,1,2.185-1.092,2.583,2.583,0,0,0,2.185-1.092,2.678,2.678,0,0,1,2.054-1.106c2.483-.022,7.527-5.716,6.282-7.093-.953-1.054-.948-1.087.194-1.087.814,0,1.177-.339,1.177-1.092,0-.814.363-1.092,1.426-1.092h1.426l-1.289,1.057c-1.218,1-1.237,1.109-.355,2.007s1.387.5,9.518-7.634,8.532-8.633,7.634-9.518-1.008-.863-2.007.355l-1.057,1.289V95.948c0-1.062.279-1.426,1.092-1.426.754,0,1.092-.363,1.092-1.177,0-1.144.03-1.15,1.1-.186,1.639,1.483,5.662-2.368,4.181-4-1.295-1.428-1.188-3.373.186-3.373.754,0,1.092-.363,1.092-1.177,0-1.15.027-1.153,1.109-.172,1.641,1.483,3.474-.183,2-1.819-1.456-1.606-1.286-3.886.188-2.551,1.641,1.483,3.474-.183,2-1.819-1.445-1.595-1.289-3.889.175-2.565,1.639,1.483,5.735-2.431,4.162-3.977-.909-.893-1.013-.874-2.016.347l-1.057,1.289V71.977a1.487,1.487,0,0,1,1.092-1.647c.838-.218,1.106-.776,1.155-2.384.036-1.155.178-1.671.314-1.144.481,1.844,3.447,1.256,3.447-.683q0-1.639-.819-1.639c-1.415,0-1.155-6.885.273-7.259,1.032-.27,1.092-.746,1.092-8.8,0-8.155-.046-8.518-1.092-8.518-.909,0-1.092-.363-1.092-2.185s-.183-2.185-1.092-2.185a.965.965,0,0,1-1.092-1.092.965.965,0,0,0-1.092-1.092c-1.379,0-1.478-1.947-.172-3.387,1.415-1.568-.336-3.318-1.9-1.9-1.439,1.305-3.387,1.207-3.387-.172,0-.754-.363-1.092-1.177-1.092-1.142,0-1.147-.033-.191-1.087,1.24-1.374-1.7-4.905-4.1-4.916a2.634,2.634,0,0,1-2.054-1.1c-.915-1.467-22.964-1.715-24.16-.273m-19.664,4.37c-.953,1.147.213,2.458,2.185,2.458a3.211,3.211,0,0,0,2.185-.819c.953-1.147-.213-2.458-2.185-2.458a3.211,3.211,0,0,0-2.185.819m336.456,6.582a1.34,1.34,0,1,0,2.024,1.756,1.54,1.54,0,0,0-.909-2.6,2.327,2.327,0,0,0-1.114.847m94.083,4.179c-1.057,1.057-.909,18.665.164,19.555,2.013,1.669,2.458-.109,2.458-9.788,0-8.6-.287-10.422-1.639-10.422a2.254,2.254,0,0,0-.983.655M320.324,36.923a1.34,1.34,0,1,0,2.024,1.756,1.54,1.54,0,0,0-.909-2.6,2.327,2.327,0,0,0-1.114.847m2.316,6.364c-2.087,2.087-.336,12.588,1.8,10.815,1.671-1.387.95-11.471-.819-11.471a2.254,2.254,0,0,0-.983.655m-2.185,15.294c-1.7,1.7.014,5.746,1.8,4.261,1.39-1.153.762-4.916-.819-4.916a2.254,2.254,0,0,0-.983.655m367.067,2.185c-1.7,1.7.014,5.746,1.8,4.261,1.39-1.153.762-4.916-.819-4.916a2.254,2.254,0,0,0-.983.655m-2.316,6.746a1.34,1.34,0,1,0,2.024,1.756,1.54,1.54,0,0,0-.909-2.6,2.326,2.326,0,0,0-1.114.847M682.5,74.858c0,1.456.183,1.639,1.639,1.639s1.639-.183,1.639-1.639-.183-1.639-1.639-1.639-1.639.183-1.639,1.639M197.969,76.251a1.34,1.34,0,1,0,2.024,1.756,1.54,1.54,0,0,0-.909-2.6,2.327,2.327,0,0,0-1.114.847m360.512,6.555a1.34,1.34,0,1,0,2.024,1.756,1.54,1.54,0,0,0-.909-2.6,2.327,2.327,0,0,0-1.114.847m120.171,2.185a1.34,1.34,0,1,0,2.024,1.756,1.54,1.54,0,0,0-.909-2.6,2.327,2.327,0,0,0-1.114.847m-2.185,4.37a1.34,1.34,0,1,0,2.024,1.756,1.54,1.54,0,0,0-.909-2.6,2.327,2.327,0,0,0-1.114.847m-2.185,4.37a1.34,1.34,0,1,0,2.024,1.756,1.54,1.54,0,0,0-.909-2.6,2.327,2.327,0,0,0-1.114.847m-126.725,8.74a1.34,1.34,0,1,0,2.024,1.756,1.54,1.54,0,0,0-.91-2.6,2.327,2.327,0,0,0-1.114.847m-2.185,4.37a1.34,1.34,0,1,0,2.024,1.756,1.54,1.54,0,0,0-.909-2.6,2.327,2.327,0,0,0-1.114.847m-6.555,13.11a1.34,1.34,0,1,0,2.024,1.756,1.54,1.54,0,0,0-.909-2.6,2.327,2.327,0,0,0-1.114.847m-294.943,4.343c-1.671,2.013.107,2.458,9.832,2.458s11.5-.445,9.832-2.458c-.554-.669-2.362-.819-9.832-.819s-9.278.15-9.832.819m292.758.027a1.34,1.34,0,1,0,2.024,1.756,1.54,1.54,0,0,0-.909-2.6,2.327,2.327,0,0,0-1.114.847m-6.555,15.294a1.34,1.34,0,1,0,2.024,1.756,1.54,1.54,0,0,0-.909-2.6,2.326,2.326,0,0,0-1.114.847m-2.185,4.37a1.34,1.34,0,1,0,2.024,1.756,1.54,1.54,0,0,0-.909-2.6,2.327,2.327,0,0,0-1.114.847M211.1,152.7c-1.147,1.382.284,2.458,3.277,2.458,1.641,0,2.849-.3,3.277-.819,1.147-1.382-.284-2.458-3.277-2.458-1.641,0-2.849.3-3.277.819m23.488.819c0,1.885,3.542,2.474,4.916.819,1.062-1.281-.279-2.458-2.8-2.458-1.991,0-2.119.1-2.119,1.639m516.188,3.551c-1.062,1.281.279,2.458,2.8,2.458,1.991,0,2.119-.1,2.119-1.639,0-1.885-3.542-2.474-4.916-.819m-290.595,2.185c-1.147,1.382.284,2.458,3.277,2.458s4.424-1.076,3.277-2.458c-.429-.519-1.636-.819-3.277-.819s-2.849.3-3.277.819m329.9.027a1.34,1.34,0,1,0,2.024,1.756,1.54,1.54,0,0,0-.909-2.6,2.327,2.327,0,0,0-1.114.847m-340.826,2.158c-1.147,1.382.284,2.458,3.277,2.458,1.641,0,2.849-.3,3.277-.819,1.147-1.382-.284-2.458-3.277-2.458-1.641,0-2.849.3-3.277.819m19.664,0c-1.147,1.382.284,2.458,3.277,2.458s4.424-1.076,3.277-2.458c-.429-.519-1.636-.819-3.277-.819s-2.849.3-3.277.819m51.892.819c0,1.456.183,1.639,1.639,1.639s1.639-.183,1.639-1.639-.183-1.639-1.639-1.639-1.639.183-1.639,1.639m216.832-.792a1.34,1.34,0,1,0,2.024,1.756,1.54,1.54,0,0,0-.909-2.6,2.327,2.327,0,0,0-1.114.847m-260.006,2.185a1.34,1.34,0,1,0,2.024,1.756,1.54,1.54,0,0,0-.909-2.6,2.327,2.327,0,0,0-1.114.847m4.37,2.185a1.34,1.34,0,1,0,2.024,1.756,1.54,1.54,0,0,0-.91-2.6,2.327,2.327,0,0,0-1.114.847M493.179,174l1.366,1.366H493.2c-.961,0-1.341-.3-1.341-1.054a1.333,1.333,0,0,0-1.229-1.292l-1.229-.238,1.2-.074a4.209,4.209,0,0,1,2.57,1.292m309.489,1.366c0,1.456.183,1.639,1.639,1.639s1.639-.183,1.639-1.639-.183-1.639-1.639-1.639-1.639.183-1.639,1.639m98.868,1.366c-1.3,1.568.284,2.458,4.37,2.458s5.67-.89,4.37-2.458c-.481-.579-1.756-.819-4.37-.819s-3.889.24-4.37.819M506.042,187.682a1.34,1.34,0,1,0,2.024,1.756,1.54,1.54,0,0,0-.909-2.6,2.327,2.327,0,0,0-1.114.847m-369.252,8.74a1.34,1.34,0,1,0,2.024,1.756,1.54,1.54,0,0,0-.909-2.6,2.327,2.327,0,0,0-1.114.847m664.216,0a1.34,1.34,0,1,0,2.024,1.756,1.54,1.54,0,0,0-.909-2.6,2.326,2.326,0,0,0-1.114.847m-666.27,6.364c-1.041,1.041-.9,14.3.164,15.185,1.887,1.565,2.458-.2,2.458-7.6,0-6.446-.358-8.237-1.639-8.237a2.254,2.254,0,0,0-.983.655m120.171,0c-1.882,1.882-.153,8.068,1.8,6.446,1.524-1.265.852-7.1-.819-7.1a2.254,2.254,0,0,0-.983.655m251.266,2.185c-1.7,1.7.014,5.746,1.8,4.261,1.39-1.153.762-4.916-.819-4.916a2.254,2.254,0,0,0-.983.656m439.038.191a1.34,1.34,0,1,0,2.024,1.756,1.54,1.54,0,0,0-.91-2.6,2.327,2.327,0,0,0-1.114.847m-349.587,2.185a1.34,1.34,0,1,0,2.024,1.756,1.54,1.54,0,0,0-.909-2.6,2.327,2.327,0,0,0-1.114.847m201.013,0a1.34,1.34,0,1,0,2.024,1.756,1.54,1.54,0,0,0-.909-2.6,2.327,2.327,0,0,0-1.114.847m-544.57,5.643c0,2.518,1.177,3.859,2.458,2.8,1.655-1.374,1.065-4.916-.819-4.916-1.54,0-1.639.128-1.639,2.119m232.126,3.1a1.34,1.34,0,1,0,2.024,1.756,1.54,1.54,0,0,0-.909-2.6,2.327,2.327,0,0,0-1.114.847m107.061,2.185a1.34,1.34,0,1,0,2.024,1.756,1.54,1.54,0,0,0-.909-2.6,2.327,2.327,0,0,0-1.114.847m-340.848,2.185a1.34,1.34,0,1,0,2.024,1.756,1.54,1.54,0,0,0-.909-2.6,2.327,2.327,0,0,0-1.114.847m694.936-.191c-2,2-.262,10.343,1.8,8.63,1.611-1.338.91-9.286-.819-9.286a2.254,2.254,0,0,0-.983.655m141.364.983c0,1.456.183,1.639,1.639,1.639s1.639-.183,1.639-1.639-.183-1.639-1.639-1.639-1.639.183-1.639,1.639m-949.785,1.2c-1.7,1.7.014,5.746,1.8,4.261,1.39-1.153.762-4.916-.819-4.916a2.254,2.254,0,0,0-.983.655M589.2,224.635c-1.7,1.7.014,5.746,1.8,4.261,1.39-1.153.762-4.916-.819-4.916a2.254,2.254,0,0,0-.983.655M138.976,229.2A1.34,1.34,0,1,0,141,230.952a1.54,1.54,0,0,0-.909-2.6,2.327,2.327,0,0,0-1.114.847m948.387,6.364c-1.7,1.7.014,5.746,1.8,4.261,1.39-1.153.762-4.916-.819-4.916a2.254,2.254,0,0,0-.983.655M146.5,248.7c-.107,1.879-.194.341-.194-3.414s.087-5.29.194-3.414.107,4.952,0,6.828m796.655-4.4c-2.144,2.144-.385,14.816,1.8,13,1.712-1.42.978-13.656-.819-13.656a2.254,2.254,0,0,0-.983.655m141.889.191a1.34,1.34,0,1,0,2.024,1.756,1.54,1.54,0,0,0-.909-2.6,2.326,2.326,0,0,0-1.114.847m-845.564,6.555a1.34,1.34,0,1,0,2.024,1.756,1.54,1.54,0,0,0-.909-2.6,2.327,2.327,0,0,0-1.114.847m541.86,2.185a1.34,1.34,0,1,0,2.024,1.756,1.54,1.54,0,0,0-.909-2.6,2.327,2.327,0,0,0-1.114.847m-373.488,6.577c-.814.778-1.909,1.912-2.433,2.521-.948,1.092-.956,1.09-.956-.325,0-1.062.279-1.426,1.092-1.426a.965.965,0,0,0,1.092-1.092c0-.795.363-1.092,1.341-1.092h1.341l-1.478,1.415m-172.743,2.163a1.34,1.34,0,1,0,2.024,1.756,1.54,1.54,0,0,0-.909-2.6,2.327,2.327,0,0,0-1.114.847m351.772,2.185a1.34,1.34,0,1,0,2.024,1.756,1.54,1.54,0,0,0-.909-2.6,2.327,2.327,0,0,0-1.114.847m358.338-.014c-1.147,1.382,2.95,5.2,4.217,3.936.841-.841.773-1.038-.97-2.829-2.128-2.193-2.3-2.25-3.247-1.106m-353.673,8.453c.959,1.06.953,1.092-.188,1.092-.814,0-1.177-.339-1.177-1.092,0-.6.085-1.092.188-1.092a5.407,5.407,0,0,1,1.177,1.092m-360.807.3a1.34,1.34,0,1,0,2.024,1.756,1.54,1.54,0,0,0-.909-2.6,2.327,2.327,0,0,0-1.114.847m166.507,9.16c.675.178.6.262-.295.309-1.188.06-1.226-.085-1.12-4.444l.109-4.506.186,4.2c.15,3.4.363,4.244,1.12,4.444m12.815,2.414c-1.876.107-4.949.107-6.828,0s-.341-.194,3.414-.194,5.293.087,3.414.194M130.236,286a1.34,1.34,0,1,0,2.024,1.756,1.54,1.54,0,0,0-.909-2.6,2.327,2.327,0,0,0-1.114.847m718.315,7.347c0,1.92,5.648,2.57,7.1.819,1.24-1.494-.287-2.458-3.889-2.458-3.2,0-3.212,0-3.212,1.639m-627.233,3.414c-.131.675-.238.123-.238-1.229s.107-1.9.238-1.229a7.731,7.731,0,0,1,0,2.458m616.833.164a1.34,1.34,0,1,0,2.024,1.756,1.54,1.54,0,0,0-.909-2.6,2.327,2.327,0,0,0-1.114.847m-4.37,2.185a1.34,1.34,0,1,0,2.024,1.756,1.54,1.54,0,0,0-.909-2.6,2.327,2.327,0,0,0-1.114.847m21.98-.191c-1.882,1.882-.153,8.068,1.8,6.446,1.524-1.265.852-7.1-.819-7.1a2.254,2.254,0,0,0-.983.655m-732.08,4.561a1.34,1.34,0,1,0,2.024,1.756,1.54,1.54,0,0,0-.909-2.6,2.327,2.327,0,0,0-1.114.847m734.265,6.364c-1.882,1.882-.153,8.068,1.8,6.445,1.524-1.264.852-7.1-.819-7.1a2.254,2.254,0,0,0-.983.655m-738.634,4.561a1.34,1.34,0,1,0,2.024,1.756,1.54,1.54,0,0,0-.909-2.6,2.327,2.327,0,0,0-1.114.847m378.122,4.179c-1.7,1.7.014,5.746,1.8,4.261,1.39-1.153.762-4.916-.819-4.916a2.254,2.254,0,0,0-.983.655m362.7,4.37c-1.7,1.7.014,5.746,1.8,4.261,1.39-1.153.762-4.916-.819-4.916a2.254,2.254,0,0,0-.983.655m-211.885,2.332a2.811,2.811,0,0,1-2.346,1.289c-1.278-.052-1.286-.071-.137-.292a1.333,1.333,0,0,0,1.229-1.292c0-.7.377-1.054,1.117-1.054,1.09,0,1.1.035.137,1.349m-149.282,3.021c0,1.456.183,1.639,1.639,1.639s1.639-.183,1.639-1.639-.183-1.639-1.639-1.639-1.639.183-1.639,1.639m2.709,5.763a1.34,1.34,0,1,0,2.024,1.756,1.54,1.54,0,0,0-.91-2.6,2.327,2.327,0,0,0-1.114.847m-393.286,4.37a1.34,1.34,0,1,0,2.024,1.756,1.54,1.54,0,0,0-.909-2.6,2.327,2.327,0,0,0-1.114.847m-2.185,4.37a1.34,1.34,0,1,0,2.024,1.756,1.54,1.54,0,0,0-.909-2.6,2.327,2.327,0,0,0-1.114.847m865.229,0a1.34,1.34,0,1,0,2.024,1.756,1.54,1.54,0,0,0-.909-2.6,2.326,2.326,0,0,0-1.114.847m-706.254.792c0,.3-.675.522-1.5.492l-1.5-.055,1.366-.437c.751-.24,1.428-.462,1.5-.492s.137.191.137.492m686.59,7.948a1.34,1.34,0,1,0,2.024,1.756,1.54,1.54,0,0,0-.909-2.6,2.327,2.327,0,0,0-1.114.847m-6.555,2.185a1.34,1.34,0,1,0,2.024,1.756,1.54,1.54,0,0,0-.91-2.6,2.327,2.327,0,0,0-1.114.847m-197.167.792c0,.3-.675.522-1.5.492l-1.5-.055,1.366-.437c.751-.24,1.428-.462,1.5-.492s.137.191.137.492m181.348,4.37c0,1.884,3.542,2.474,4.916.819,1.062-1.281-.279-2.458-2.8-2.458-1.991,0-2.119.1-2.119,1.639m-14.748,1.366c-1.5,1.805.24,2.458,6.555,2.458s8.054-.653,6.555-2.458c-.527-.636-2-.819-6.555-.819s-6.028.183-6.555.819m-673.5.819c0,.3-.675.522-1.5.492l-1.5-.055,1.366-.437c.751-.24,1.428-.462,1.5-.492s.137.191.137.492m177.5,1.393a1.34,1.34,0,1,0,2.024,1.756,1.54,1.54,0,0,0-.909-2.6,2.327,2.327,0,0,0-1.114.847m480.7-.027c-1.5,1.805.24,2.458,6.555,2.458,4.556,0,6.028-.183,6.555-.819,1.5-1.805-.24-2.458-6.555-2.458-4.556,0-6.028.183-6.555.819m-485.074,2.212a1.34,1.34,0,1,0,2.024,1.756,1.54,1.54,0,0,0-.909-2.6,2.327,2.327,0,0,0-1.114.847m170.424,0a1.34,1.34,0,1,0,2.024,1.756,1.54,1.54,0,0,0-.909-2.6,2.327,2.327,0,0,0-1.114.847m-174.794,2.185a1.34,1.34,0,1,0,2.024,1.756,1.54,1.54,0,0,0-.909-2.6,2.327,2.327,0,0,0-1.114.847m168.261-.027c-.953,1.147.213,2.458,2.185,2.458s3.138-1.311,2.185-2.458a3.323,3.323,0,0,0-4.37,0m-172.631,2.212a1.34,1.34,0,1,0,2.024,1.756,1.54,1.54,0,0,0-.909-2.6,2.327,2.327,0,0,0-1.114.847M571.612,369c-.953,1.147.213,2.458,2.185,2.458a3.211,3.211,0,0,0,2.185-.819c.953-1.147-.213-2.458-2.185-2.458a3.211,3.211,0,0,0-2.185.819M558.5,371.188c-1.412,1.7.268,2.458,5.462,2.458s6.874-.757,5.462-2.458c-.511-.615-1.879-.819-5.462-.819s-4.952.2-5.462.819m-340.624,6.555a4.208,4.208,0,0,1-2.57,1.292l-1.2-.074,1.229-.238a1.334,1.334,0,0,0,1.229-1.292c0-.754.38-1.054,1.341-1.054h1.341l-1.366,1.366m158.729,3c0,1.456.183,1.639,1.639,1.639s1.639-.183,1.639-1.639-.183-1.639-1.639-1.639-1.639.183-1.639,1.639m312.99-.819c-1.568,1.89.2,2.458,7.647,2.458s9.215-.568,7.647-2.458c-.541-.65-2.119-.819-7.647-.819s-7.106.169-7.647.819m-323.368,2.185c-1.3,1.568.284,2.458,4.37,2.458s5.67-.89,4.37-2.458c-.481-.579-1.756-.819-4.37-.819s-3.889.24-4.37.819M340.01,384.3c-1.745,2.1-.005,2.458,12.017,2.458s13.762-.355,12.017-2.458c-.565-.68-2.606-.819-12.017-.819s-11.452.139-12.017.819M176.365,408.332a4.208,4.208,0,0,1-2.57,1.292l-1.2-.074,1.229-.238a1.333,1.333,0,0,0,1.229-1.292c0-.754.38-1.054,1.341-1.054h1.341l-1.366,1.366M3.642,462.791c-1.488,1.488-.808,4.807.983,4.807,1.532,0,1.639-.134,1.639-2.076,0-1.857-.74-3.387-1.639-3.387a2.254,2.254,0,0,0-.983.655M1.457,475.9c-2.144,2.144-.385,14.816,1.8,13,1.712-1.42.978-13.656-.819-13.656a2.254,2.254,0,0,0-.983.655m2.054,19.855a1.34,1.34,0,1,0,2.024,1.756,1.54,1.54,0,0,0-.909-2.6,2.327,2.327,0,0,0-1.114.847m94.2,2.158a4.208,4.208,0,0,1-2.57,1.292l-1.2-.074,1.229-.238a1.333,1.333,0,0,0,1.229-1.292c0-.754.38-1.054,1.341-1.054h1.341l-1.366,1.366M20.99,515.42a1.34,1.34,0,1,0,2.024,1.756,1.54,1.54,0,0,0-.909-2.6,2.327,2.327,0,0,0-1.114.847m10.946,4.343c-1.775,2.138-.066,2.458,13.11,2.458,10.381,0,12.541-.134,13.11-.819,1.775-2.138.066-2.458-13.11-2.458-10.381,0-12.541.134-13.11.819" transform="translate(0.837 9.261)" fill="#fff" fill-rule="evenodd"/>
  </g>
</svg>
