<svg xmlns="http://www.w3.org/2000/svg" width="652" height="129.304" viewBox="0 0 652 129.304"><g transform="translate(-236 -450.348)"><path d="M384.85,474.555H471.4v13.879H384.85Zm-.426,45.43H600.919v13.879H384.424Zm.426,44.714H471.4v13.88H384.85Z" fill="#f8f7ff"/><path d="M501.464,474.555H522.61V578.579H501.464Zm85.621,0h21.146V578.579H587.085Z" fill="#f8f7ff"/><path d="M667.78,575.109q-11.868-4.543-18.088-13.236t-6.219-20.926V474.555h21.146v66.893q0,11.375,8.292,17.6t23.427,6.225q15.237,0,23.582-6.225t8.344-17.6V474.555H749.41v66.392q0,12.234-6.219,20.926t-18.14,13.236q-11.921,4.545-28.713,4.543Q679.649,579.652,667.78,575.109Z" fill="#f8f7ff"/><path d="M795.02,565.057h40.84q16.068,0,23.427-4.221t7.36-11.876v-.215A15.485,15.485,0,0,0,864,539.659a16.565,16.565,0,0,0-8.344-5.831,44.1,44.1,0,0,0-14.616-2.039H795.02V518.625h46.023q11.713,0,17.674-3.791a12.46,12.46,0,0,0,5.96-11.233,12.634,12.634,0,0,0-6.634-11.661q-6.635-3.864-19.9-3.863H795.02V474.555h46.956q14.616,0,24.463,3.434t14.72,9.73a23.821,23.821,0,0,1,4.872,15.024,18.282,18.282,0,0,1-3.007,10.052,24.2,24.2,0,0,1-9.173,8.013,43.549,43.549,0,0,1-15.29,4.471,42.326,42.326,0,0,1,15.756,4.471,27.325,27.325,0,0,1,10.159,8.836A20.267,20.267,0,0,1,888,550.033v.215a22.5,22.5,0,0,1-5.39,14.88q-5.391,6.44-15.445,9.945a71.142,71.142,0,0,1-23.427,3.506H795.02Z" fill="#f8f7ff"/><path d="M336.554,555.228q-4.543,11.868-13.236,18.088t-20.926,6.22H236V558.389h66.893q11.375,0,17.6-8.292t6.225-23.427q0-15.237-6.225-23.582t-17.6-8.344H236V473.6h66.392q12.234,0,20.926,6.219t13.236,18.14q4.545,11.92,4.543,28.713Q341.1,543.359,336.554,555.228Z" fill="#f8f7ff"/><rect width="20.329" height="55.452" rx="2.726" transform="translate(686.785 450.348)" fill="#f8f7ff"/></g></svg>