<svg xmlns="http://www.w3.org/2000/svg" width="2738.573" height="1069.313" viewBox="0 0 2738.573 1069.313">
  <g id="svgg" transform="translate(-98.122 -60.93)">
    <path id="path0" d="M1322.119,62.38c-3.2,2.7-39.291,8.351-42.138,6.594-1.458-.9-2.643-.531-2.643.831s-7.779,4.632-17.289,7.261-29.4,10.953-44.236,18.474-26.948,13.038-26.948,12.261-2.18.477-4.836,2.793-14.8,11.526-26.961,20.449c-34.386,25.2-57.656,48.024-80.135,78.568-11.362,15.449-22.561,30.258-24.863,32.928s-3.556,4.836-2.752,4.836-4.645,12.125-12.1,26.961-18.842,43.746-25.272,64.277-12.479,37.942-13.46,38.7-2.044,3.964-2.357,7.112a61.533,61.533,0,0,1-3.91,13.814c-1.839,4.455-3.556,8.733-3.815,9.5s-1.281,3.242-2.262,5.518-10.027,29.659-20.095,60.83-19.318,57.928-20.545,59.44a16.078,16.078,0,0,0-2.833,5.531c-.327,1.526-1.008,4.019-1.512,5.531s-9.21,28.269-19.318,59.44-19.632,58.241-21.171,60.135-1.866,3.461-.736,3.461.817,1.553-.695,3.46-5.572,13.092-9.033,24.877-7.3,21.43-8.556,21.43-1.567,1.867-.681,4.155.136,4.142-1.635,4.142-2.561,1.076-1.744,2.4c1.24,2-13.5,50.108-19.591,63.963-1.008,2.275-1.975,4.768-2.18,5.518-2.943,11.648-16.716,48.609-18.351,49.263-1.212.477-1.512,2.657-.668,4.836s.45,3.964-.858,3.964-2.548,2.807-2.779,6.226-1.989,9.945-3.91,14.509-3.215,9.85-2.9,11.757-.818,3.447-2.493,3.447-2.425,1.008-1.676,2.234.177,7.139-1.281,13.133c-9.441,38.719-8.406,83.145,2.575,109.93,1.757,4.278,3.188,8.746,3.188,9.932,0,4.945,22.248,36.062,33.923,47.424,15.368,14.986,28,25.939,30.626,26.566,8.978,2.153,37.751,13.692,37.751,15.15,0,1.008,2.493,1.185,5.531.4s5.531-.368,5.531.94,2.793,2.616,6.212,2.888,13.065,1.4,21.43,2.507a201.353,201.353,0,0,0,24.891,1.757c19.632-.5,45.762-3.025,50.571-4.891,2.725-1.063,5.722-1.158,6.662-.232s3.052.654,4.714-.64c4.564-3.528,29.209-9.046,32.193-7.193,1.444.885,2.629.164,2.629-1.608s1.866-2.507,4.142-1.635,4.155.681,4.155-.436,6.526-4.305,14.509-7.1c56.7-19.823,132.927-78.963,169.615-131.619,20.926-30.013,42.588-69.617,42.588-77.846a2.551,2.551,0,0,1,2.67-2.411c1.485,0,1.962-1.867,1.09-4.155s-.245-4.142,1.39-4.142,2.248-1.867,1.376-4.155-.136-4.142,1.635-4.142,2.52-1.144,1.662-2.534-.109-6.062,1.676-10.368,3.5-8.774,3.815-9.9a24.67,24.67,0,0,1,1.28-3.461,24.7,24.7,0,0,0,1.267-3.46c.327-1.131,1.308-3.937,2.207-6.212s6.88-20.327,13.3-40.095,12.684-36.334,13.9-36.811,1.512-2.657.668-4.836-.449-3.978.845-3.978,2.561-2.793,2.793-6.212,2-9.959,3.924-14.523,3.746-9.223,4.06-10.368a24.425,24.425,0,0,1,1.281-3.447,24.771,24.771,0,0,0,1.267-3.461c.327-1.144,1.349-3.937,2.275-6.226s9.359-27.779,18.76-56.675,18.31-54.086,19.836-55.994,1.839-3.447.708-3.447-.831-1.553.667-3.461c2.4-3.052,14.536-40.367,14.536-44.686,0-.926-59.835-1.349-132.981-.954l-132.981.709-6.948,22.125c-3.815,12.166-8.052,22.534-9.414,23.038a2.2,2.2,0,0,0-.967,3.379c.817,1.335-.94,7.807-3.937,14.373a147.625,147.625,0,0,0-7.316,19.441c-1.035,4.128-2.956,7.507-4.264,7.507s-1.662,1.867-.79,4.142.327,4.155-1.213,4.155-2.1,2.684-1.24,5.954c1.063,4.06.545,5.34-1.607,4.005-1.976-1.213-2.616-.518-1.7,1.853.8,2.1.191,7.139-1.349,11.212l-2.807,7.384h57.533c31.634,0,58.268.736,59.168,1.648,1.934,1.935-25.708,82.274-28.746,83.554-1.144.477-1.39,2.657-.545,4.836s.273,3.965-1.24,3.965-2.63,1.553-2.493,3.46c.518,6.689-4.278,24.2-6.621,24.2-1.308,0-1.648,1.867-.777,4.142s.245,4.142-1.39,4.142-2.248,1.867-1.376,4.155.136,4.142-1.635,4.142-2.425,1.308-1.444,2.888.6,4.387-.845,6.226-7.3,17.643-13.024,35.122c-10.49,32.125-25.068,63.6-29.441,63.6-1.308,0-2.384,1.7-2.384,3.8,0,8.12-43.828,42.724-49.6,39.155-1.607-.995-2.929-.286-2.929,1.58s-.763,2.616-1.7,1.676-3.624.191-5.94,2.52-6.539,3.624-9.359,2.888-4.482-.3-3.692.967c2.125,3.433-25.94,6.24-50.2,5.013-13.556-.681-21.716-2.316-22.438-4.469-.627-1.866-2.221-2.725-3.556-1.907-4.823,2.983-24.727-12.67-30.871-24.264-6.894-13-8.692-54.74-2.452-56.825a2.377,2.377,0,0,0,1.471-3.61c-1.594-2.589,9.182-38.555,12.343-41.171.913-.763,1.921-3.964,2.234-7.111a61.031,61.031,0,0,1,3.924-13.828c1.839-4.455,3.6-9.032,3.91-10.177a25.035,25.035,0,0,1,1.281-3.447,24.811,24.811,0,0,0,1.267-3.461c.327-1.144,1.349-3.937,2.262-6.226s10-29.645,20.149-60.816,19.7-58.241,21.226-60.135,1.839-3.46.708-3.46-.885-1.553.559-3.461,4.9-11.226,7.684-20.735,6.09-17.275,7.316-17.275,1.526-1.867.654-4.155-.15-4.142,1.635-4.142,2.548-1.076,1.73-2.4c-1.226-1.989,16.171-58.228,22.356-72.246,1.008-2.289,2-4.768,2.207-5.531,4.455-15.94,14.155-41.471,15.763-41.471,1.171,0,1.417-1.867.545-4.155s-.354-4.142,1.158-4.142,2.63-1.553,2.493-3.46c-.531-7.03,4.346-24.2,6.88-24.2,1.444,0,1.921-1.131,1.063-2.52s2.234-12.9,6.88-25.572,11.689-32.384,15.654-43.787,8.27-21.158,9.564-21.662a2.038,2.038,0,0,0,1.035-3.052c-1.866-3.011,7.112-33.351,9.864-33.351,1.267,0,1.581-1.867.708-4.142s-.259-4.155,1.376-4.155,2.261-1.866,1.39-4.142-.15-4.155,1.621-4.155,2.547-1.1,1.7-2.466c-3.706-5.995,18.147-45.108,35.2-63.01,12.193-12.806,35.095-30.136,35.163-26.621.014,1.24.954.981,2.071-.572,3.024-4.21,17.275-9.932,20.2-8.12,1.417.872,2.561.136,2.561-1.635s1.866-2.507,4.155-1.635,4.142.245,4.142-1.4c0-1.717,2.97-2.439,6.907-1.689,3.8.736,6.921.259,6.921-1.063,0-7.466,56.361-.027,65.693,8.665,3.079,2.875,6.226,4.578,7,3.815,1.771-1.771,16.185,16.062,15.681,19.4-.2,1.349,1.2,3.419,3.12,4.618,4.537,2.806,6.921,34.6,2.956,39.386-1.649,1.975-2.275,6.321-1.4,9.673.981,3.706.327,6.076-1.662,6.076-1.785,0-2.534,1.131-1.676,2.534s.109,6.049-1.676,10.368-3.46,8.447-3.719,9.21-1.335,3.324-2.4,5.695-4.264,12.016-7.112,21.43l-5.19,17.111H1502.7l3.242-10.368c1.785-5.695,4.782-14.1,6.662-18.665s3.6-8.91,3.8-9.673c3.433-12.52,14.332-43.051,15.585-43.637.913-.436,1.077-3.856.368-7.6s-.164-6.825,1.226-6.825,2.03-4.346,1.4-9.673-.055-9.673,1.253-9.673,2.371-13.065,2.371-29.032-.94-29.032-2.071-29.032-2.085-2.357-2.085-5.245c0-11.158-11.566-41.879-20.871-55.408-5.354-7.793-8.992-15.408-8.052-16.921s.463-2.4-1.035-1.989-8.133-3.61-14.727-8.937c-17.983-14.564-33.092-24.318-43.105-27.806-4.932-1.717-8.964-4.21-8.964-5.531s-1.866-1.689-4.155-.817-4.155.531-4.155-.777-4.659-2.616-10.327-2.916-10.694-1.717-11.171-3.161-3.283-1.989-6.226-1.212a19.566,19.566,0,0,1-10.136-.436c-6.089-2.33-66.838-3.488-69.413-1.308M451.782,77.339c-.954,3.8-2.915,6.907-4.36,6.907s-1.948,1.09-1.131,2.425c2.479,4.019-22.1,72.464-26.757,74.535-1.158.518-1.39,2.071-.531,3.46,1.935,3.133-10.122,41.239-13.051,41.239-1.172,0-1.417,1.866-.545,4.142s.259,4.155-1.376,4.155-2.261,1.866-1.376,4.142.136,4.142-1.635,4.142-2.425,1.308-1.444,2.888.286,4.7-1.553,6.921-2.425,4.019-1.281,4.019.5,1.867-1.39,4.142-2.684,4.155-1.758,4.155-.926,6.526-4.114,14.509-10.136,28.2-15.449,44.931-10.708,30.8-11.989,31.28-1.635,2.657-.8,4.85.082,3.965-1.689,3.965-2.52,1.131-1.662,2.534.109,6.049-1.676,10.368-3.515,8.76-3.828,9.9a23.134,23.134,0,0,1-1.267,3.46,25.072,25.072,0,0,0-1.281,3.447c-.313,1.144-1.349,3.951-2.289,6.226s-6.907,20.327-13.229,40.095-12.616,36.362-13.964,36.866a2.082,2.082,0,0,0-1.063,3.161c1.2,1.948-3.461,18.188-8.76,30.476-.981,2.275-2.057,5.082-2.37,6.212a24.652,24.652,0,0,1-1.281,3.46,24.664,24.664,0,0,0-1.281,3.46c-.313,1.131-1.335,3.937-2.262,6.212s-9.373,27.792-18.76,56.688S266.254,620.8,264.741,622.7s-1.853,3.461-.722,3.461.518,1.866-1.376,4.141-2.52,4.155-1.39,4.155.886,1.553-.559,3.447-4.891,11.24-7.684,20.749-6.185,17.275-7.561,17.275-1.866,1.008-1.1,2.234c1.853,3.011-19.155,68.95-23.719,74.454-1.989,2.384-3.12,4.836-2.534,5.436,1.7,1.7-11.757,39.522-14.06,39.522-1.117,0-1.335,1.866-.45,4.155s.245,4.142-1.39,4.142-2.262,1.867-1.376,4.155.136,4.142-1.635,4.142-2.52,1.144-1.662,2.534.15,6.063-1.594,10.368a71.509,71.509,0,0,0-3.91,13.365c-.409,3.038-7.084,22.643-14.823,43.555s-14.087,39.264-14.087,40.776a2.734,2.734,0,0,1-2.684,2.766c-1.471,0-1.962,1.867-1.076,4.142s.136,4.155-1.635,4.155-2.479,1.213-1.553,2.7c2.084,3.379-4.169,24.945-7.234,24.945-1.226,0-1.512,1.866-.64,4.142s.245,4.155-1.39,4.155-2.248,1.866-1.376,4.141.136,4.155-1.635,4.155-2.48,1.2-1.567,2.67-.722,8.011-3.624,14.523-8.746,22.411-12.97,35.34-8.747,23.909-10.054,24.427-1.662,2.044-.817,3.433c1.948,3.161-7.289,32.956-10.231,32.956-1.185,0-1.458,1.866-.572,4.155s.245,4.142-1.39,4.142-2.248,1.866-1.376,4.155.245,4.142-1.39,4.142-2.248,1.867-1.376,4.142c1.362,3.542,12.234,4.155,74.454,4.155h72.86l3.311-11.062c1.826-6.076,4.441-11.063,5.8-11.063s1.73-1.226.8-2.738c-2.057-3.324,7.016-33.2,10.082-33.2,1.185,0,1.444-1.866.572-4.142s-.245-4.155,1.39-4.155,2.248-1.866,1.376-4.142-.136-4.155,1.635-4.155,2.52-1.131,1.662-2.534-.109-6.049,1.676-10.368,3.5-8.76,3.815-9.9a24.635,24.635,0,0,1,1.281-3.46,26.341,26.341,0,0,0,1.267-3.447c.313-1.144,1.853-5.191,3.406-8.992s7.575-22.152,13.351-40.776,11.526-33.869,12.752-33.869,1.512-1.866.627-4.155S310.5,922,312.275,922s2.52-1.144,1.662-2.534-.109-6.063,1.676-10.368,3.5-8.774,3.828-9.9a23.133,23.133,0,0,1,1.267-3.461,23.13,23.13,0,0,0,1.267-3.46c.327-1.131,1.39-3.937,2.37-6.212s7.548-22.193,14.591-44.236,13.6-40.721,14.564-41.484,2.016-3.951,2.33-7.1a61.73,61.73,0,0,1,3.924-13.828c1.839-4.455,3.6-9.033,3.924-10.177a22.916,22.916,0,0,1,1.267-3.447,23.148,23.148,0,0,0,1.267-3.46c.327-1.144,1.349-3.937,2.275-6.226s9.986-29.645,20.136-60.816,19.7-58.241,21.226-60.135,1.839-3.46.709-3.46-.872-1.553.559-3.46,4.9-11.226,7.7-20.735,6.076-17.275,7.3-17.275,1.526-1.866.654-4.155-.259-4.142,1.376-4.142,2.262-1.866,1.39-4.155-.15-4.142,1.635-4.142,2.548-1.076,1.73-2.4c-1.471-2.384,15.327-55.925,20.1-64.045,1.362-2.33,3.365-8.242,4.441-13.133,3.583-16.321,7.425-9.523,7.071,12.534-.177,11.785,1.567,85.5,3.869,163.812s4.918,167.272,5.79,197.68,2.384,83.922,3.379,118.894,1.88,78.827,1.975,97.464l.164,33.869h71.484c59.6,0,71.252-.64,70.039-3.815-.817-2.1-.436-4.891.817-6.226s8.76-22.929,16.689-48.024,15.2-46.239,16.171-47,2.057-4.237,2.425-7.738,3.052-11.58,5.94-17.97A223.283,223.283,0,0,0,672,964.162c1.907-6.471,4.6-11.757,5.967-11.757s1.7-1.267.75-2.834c-1.689-2.725,24.822-86.878,29.155-92.546,1.158-1.526,3.678-8.052,5.6-14.523s4.6-11.744,5.981-11.744,1.73-1.226.8-2.711c-2.071-3.365,4.169-24.945,7.234-24.945,1.226,0,1.526-1.866.654-4.142s-.15-4.155,1.621-4.155,2.561-1.076,1.744-2.4c-1.444-2.33,15.218-55.653,19.986-63.95,1.308-2.289,5.885-15.654,10.177-29.727s8.815-25.572,10.054-25.572,1.526-1.867.654-4.142-.259-4.155,1.376-4.155,2.262-1.866,1.39-4.142-.15-4.155,1.621-4.155,2.425-1.294,1.444-2.875-.272-4.7,1.567-6.921,2.411-4.019,1.281-4.019-.777-1.567.8-3.46,2.97-4.387,3.106-5.531a20.537,20.537,0,0,1,.45-2.766c.109-.382.613-2.561,1.1-4.836,2.384-11.076,27.588-81.674,29.441-82.437,1.158-.477,1.417-2.657.586-4.836s-.463-3.964.845-3.964,2.561-2.806,2.793-6.226,1.989-9.945,3.91-14.509,3.76-9.237,4.073-10.368a23.13,23.13,0,0,1,1.267-3.46,24.667,24.667,0,0,0,1.281-3.46c.313-1.131,1.308-3.937,2.193-6.212s9.346-27.792,18.8-56.688,18.406-54.086,19.9-55.98,1.812-3.46.681-3.46-.354-2.057,1.73-4.564,3.406-4.7,2.929-4.85-.232-2.125.545-4.414,9.155-28.405,18.624-58.051,18.16-54.3,19.346-54.795,1.444-2.643.613-4.836-.15-3.965,1.539-3.965,2.82-.926,2.534-2.071c-.94-3.692,9.755-33.869,12-33.869,1.185,0,1.458-1.867.572-4.155s-.136-4.142,1.635-4.142,2.575-1.063,1.771-2.357c-2.9-4.7,35.163-115.652,41.157-119.943,1.553-1.117-31.7-2.057-73.9-2.071-66.375-.041-76.729.518-76.729,4.1,0,2.275-1.321,4.142-2.929,4.142s-2.221,1.144-1.362,2.534.109,6.063-1.676,10.368-3.46,8.46-3.719,9.223-1.267,3.242-2.248,5.531-10.027,29.645-20.1,60.83-19.318,57.914-20.558,59.44-2.261,3.379-2.275,4.142a56.337,56.337,0,0,1-2.616,8.3c-1.417,3.8-5.422,16.553-8.9,28.337s-7.343,21.43-8.583,21.43-1.567,1.866-.695,4.142.15,4.155-1.621,4.155-2.561,1.076-1.744,2.4c1.444,2.343-15.218,55.667-19.986,63.95-1.308,2.289-5.885,15.667-10.177,29.727s-8.815,25.572-10.054,25.572-1.526,1.866-.654,4.155.259,4.142-1.376,4.142-2.261,1.866-1.39,4.155.15,4.142-1.635,4.142-2.453,1.24-1.512,2.766.722,4.319-.477,6.226a21.192,21.192,0,0,0-2.588,5.518,8.593,8.593,0,0,1-.94,2.766,23.143,23.143,0,0,0-1.458,5.3c-1.43,7.439-30.013,89.262-31.7,90.788-.845.749-1.8,3.951-2.112,7.1a61.628,61.628,0,0,1-3.91,13.828c-1.839,4.455-3.61,9.033-3.923,10.177a22.944,22.944,0,0,1-1.267,3.447,26.09,26.09,0,0,0-1.39,4.155,26.516,26.516,0,0,1-1.376,4.142,24.626,24.626,0,0,0-1.281,3.46c-.313,1.144-1.308,3.937-2.193,6.226s-6.267,18.446-11.934,35.939-11.049,32.411-11.962,33.174-1.921,3.964-2.234,7.112a64.369,64.369,0,0,1-3.8,13.814l-3.243,8.106-3.011-8.3c-1.8-4.945-3.46-39.536-4.1-85.707-1.049-74.072-2.152-139.262-5.3-309.667-.777-42.574-1.471-110.693-1.512-151.373l-.1-73.95H453.525l-1.744,6.907m1273.75,15.218c-3.651,12.152-7.657,22.111-8.9,22.111s-1.567,1.866-.7,4.142.15,4.142-1.621,4.142-2.479,1.213-1.58,2.684-.79,8.052-3.774,14.6a145.944,145.944,0,0,0-7.33,19.441c-1.036,4.142-2.956,7.52-4.264,7.52s-1.662,1.853-.777,4.142.136,4.142-1.635,4.142-2.493,1.185-1.608,2.616c2.847,4.618-32.479,108-37.67,110.23-1.117.477-1.335,2.657-.49,4.85s.068,3.965-1.7,3.965-2.466,1.226-1.539,2.738c2.057,3.324-7,33.2-10.068,33.2-1.2,0-1.458,1.866-.586,4.142s.136,4.155-1.635,4.155-2.52,1.131-1.662,2.52-2.248,12.9-6.921,25.572-10.5,28.964-12.984,36.185-5.586,13.133-6.907,13.133-1.635,1.24-.708,2.752c2.057,3.324-7.016,33.2-10.082,33.2-1.185,0-1.458,1.867-.572,4.142s.245,4.142-1.39,4.142-2.248,1.867-1.376,4.155.136,4.142-1.635,4.142-2.52,1.144-1.662,2.534.109,6.063-1.676,10.368-3.5,8.774-3.815,9.9a24.672,24.672,0,0,1-1.281,3.46,27.727,27.727,0,0,0-1.376,4.155,26.338,26.338,0,0,1-1.39,4.142,19.805,19.805,0,0,0-1.144,3.46c-2.3,10.49-25.068,74.154-26.757,74.822-1.212.477-1.512,2.657-.668,4.836s.45,3.978-.845,3.978-2.561,2.793-2.793,6.212-2,9.959-3.923,14.523-3.747,9.223-4.074,10.368a22.949,22.949,0,0,1-1.267,3.447,23.088,23.088,0,0,0-1.267,3.46c-.327,1.144-1.363,3.937-2.3,6.226s-6.894,20.313-13.229,40.081-12.615,36.362-13.965,36.879a2.079,2.079,0,0,0-1.062,3.161c1.2,1.948-3.46,18.188-8.76,30.463-.981,2.289-2.057,5.082-2.37,6.226a24.658,24.658,0,0,1-1.281,3.461,23.491,23.491,0,0,0-1.267,3.447c-.327,1.144-1.321,3.951-2.207,6.226s-9.346,27.792-18.787,56.675-18.419,54.086-19.918,55.993-1.812,3.461-.667,3.461.763,1.553-.818,3.447-2.792,4.087-2.711,4.836c.409,3.924-13.079,41.484-14.9,41.484-1.172,0-1.417,1.866-.545,4.141s.136,4.142-1.635,4.142-2.575,1.049-1.785,2.33c1.513,2.452-14.986,57.479-19.264,64.236a22.549,22.549,0,0,0-2.684,5.327c-.954,6.907-13.91,41.471-15.558,41.471-1.171,0-1.417,1.866-.545,4.155s.136,4.142-1.635,4.142-2.6,1.008-1.839,2.234c1.962,3.188-4.019,25.408-6.839,25.408-1.281,0-1.621,1.866-.75,4.155s.15,4.142-1.635,4.142-2.52,1.144-1.648,2.534.34,5.749-1.158,9.673l-2.711,7.153,73.895-.041,73.882-.055,9.468-30.367c5.2-16.7,10.559-30.367,11.907-30.367s1.771-1.117.926-2.466c-1.485-2.411,4.005-20.94,9.5-32.1,1.5-3.038,10.954-31.035,21.008-62.206s19.55-58.228,21.09-60.135,1.894-3.46.763-3.46-.518-1.867,1.376-4.142,2.52-4.142,1.39-4.142-.831-1.567.681-3.461,5.586-13.106,9.046-24.891,7.411-21.416,8.8-21.416,1.866-1.09,1.049-2.4c-1.458-2.357,18.011-64.113,22.779-72.26,1.322-2.275,5.272-13.787,8.774-25.572s7.37-21.43,8.624-21.43,1.553-1.866.681-4.142-.245-4.155,1.39-4.155,2.248-1.866,1.376-4.142-.136-4.155,1.635-4.155,2.52-1.131,1.662-2.52-.109-6.063,1.676-10.381,3.5-8.76,3.815-9.9a10.418,10.418,0,0,1,1.145-2.766,28.014,28.014,0,0,0,1.526-5.858c1.894-10.013,27.37-80.557,29.4-81.415,1.145-.477,1.39-2.657.545-4.836s-.449-3.964.845-3.964,2.561-2.806,2.793-6.226,1.989-9.945,3.91-14.509,3.215-9.85,2.9-11.757.736-3.447,2.33-3.447,2.739-.94,2.561-2.071a10.508,10.508,0,0,1,.341-4.155c.368-1.144.94-3.011,1.253-4.142s1.322-3.951,2.207-6.226,4.346-12.656,7.67-23.051,7-17.874,8.16-16.594,3.692,65.775,5.613,143.321c4.36,176.5,5.014,202.244,6.866,272.338.831,31.171,1.934,83.432,2.452,116.129s1.894,68.459,3.065,79.481l2.112,20.054h137.245l4.8-15.2c2.643-8.365,5.886-15.218,7.221-15.218s1.662-1.213.749-2.7c-2.18-3.529,4.237-24.945,7.479-24.945,1.363,0,1.826-1.076,1.008-2.4-1.471-2.371,17.044-60.408,24.359-76.4,2.084-4.564,6.608-17.929,10.055-29.727s7.275-21.417,8.528-21.417,1.553-1.866.681-4.155-.259-4.142,1.376-4.142,2.261-1.866,1.389-4.155-.136-4.142,1.635-4.142,2.521-1.131,1.676-2.507,2.82-14.741,8.147-29.713,13.569-39.046,18.3-53.487,9.618-26.662,10.885-27.138,1.607-2.656.763-4.836-.45-3.978.844-3.978,2.561-2.793,2.793-6.212,1.989-9.959,3.91-14.523,3.76-9.223,4.073-10.368a27.087,27.087,0,0,1,1.267-3.447,24.658,24.658,0,0,0,1.281-3.461c.327-1.144,1.308-3.937,2.207-6.226s6.866-20.313,13.3-40.081,12.765-36.362,14.059-36.879a2.078,2.078,0,0,0,.995-3.161c-1.213-1.948,3.46-18.174,8.76-30.463.981-2.289,2.044-5.082,2.371-6.226a24.69,24.69,0,0,1,1.267-3.46,22.819,22.819,0,0,0,1.281-3.447c.327-1.144,1.322-3.937,2.22-6.226s9.5-28.406,19.114-58.064,18.719-54.822,20.245-55.939,1.676-2.057.354-2.071-.708-2.1,1.376-4.618,3.433-5.027,2.983-5.572c-1.539-1.866,8.733-31.334,10.913-31.334,1.2,0,1.458-1.866.585-4.142s-.15-4.142,1.621-4.142,2.6-1.035,1.825-2.275c-1.676-2.725,18.678-68.309,22.7-73.159,1.54-1.853,2.6-3.992,2.357-4.755-.9-2.875,13.311-41.471,15.272-41.471,1.13,0,1.335-1.866.463-4.142s-.15-4.155,1.634-4.155,2.48-1.185,1.581-2.643c-2.561-4.142,35.953-116.592,40.612-118.554a2.022,2.022,0,0,0,.9-3.038c-1.866-3.024,7.112-33.351,9.864-33.351,1.267,0,1.58-1.866.708-4.155s-.259-4.142,1.376-4.142,2.261-1.867,1.389-4.155-.149-4.142,1.621-4.142,2.493-1.2,1.594-2.643c-1.812-2.943,20.395-64.576,23.774-65.966,1.157-.477,1.417-2.657.585-4.836-1.267-3.311-13.488-3.965-73.309-3.965-72.846,0-80.721,1.049-77.6,10.381.627,1.894-.177,3.433-1.771,3.433s-2.194,1.867-1.322,4.155.082,4.142-1.757,4.142-2.7,1.717-1.894,3.815a7.085,7.085,0,0,1-1.648,6.907c-1.7,1.7-2.071,3.106-.817,3.106s1.008,1.553-.531,3.447-9.3,23.991-17.234,49.086-15.463,46.007-16.73,46.484-1.621,2.657-.79,4.836.082,3.978-1.7,3.978-2.48,1.2-1.567,2.67-.79,8.052-3.774,14.618a144.6,144.6,0,0,0-7.329,19.441c-1.036,4.128-3.065,7.507-4.509,7.507s-1.88,1.2-.967,2.67c1.635,2.657-27.643,95.666-31.8,101.006-1.172,1.526-3.719,8.052-5.627,14.509s-4.619,11.757-5.981,11.757-1.7,1.281-.736,2.834c1.5,2.425-24.046,84.753-28.719,92.546a18.514,18.514,0,0,0-1.934,4.155c-.15.763-1.717,4.877-3.5,9.169s-3.215,9.632-3.215,11.907c0,2.425-1.321,3.311-3.2,2.153-1.962-1.213-2.439-.749-1.227,1.2,2.234,3.624-6.526,33.637-9.823,33.637-1.185,0-1.458,1.866-.572,4.142s.245,4.142-1.39,4.142-2.262,1.866-1.376,4.155.136,4.142-1.635,4.142-2.561,1.09-1.731,2.411c1.363,2.221-11.525,44.141-17.547,57.043-1.417,3.038-5.968,16.1-10.1,29.018s-8.515,23.9-9.727,24.373-1.512,2.656-.668,4.836.273,3.978-1.24,3.978-2.7,1.553-2.616,3.447c.341,9.387-1.144,13.133-5.2,13.133-3.951,0-4.428-6.008-4.183-53.214.15-29.277-.463-88.69-1.348-132.027-2.275-111.687-4.237-221.644-5.477-308.277-.6-41.062-1.825-88.65-2.724-105.747l-1.648-31.1-70.952.014-70.952.014-6.621,22.1m649.606,24.877c-8.187,25.844-15.613,47-16.512,47s-1.812,2.793-2.044,6.212-1.989,9.959-3.91,14.523-3.76,9.223-4.073,10.368a24.482,24.482,0,0,1-1.267,3.447,23.152,23.152,0,0,0-1.267,3.46c-.327,1.144-2.03,5.572-3.814,9.864s-3.215,9.632-3.215,11.907c0,2.425-1.322,3.311-3.188,2.153-2-1.226-2.452-.749-1.185,1.294,1.69,2.725-23.3,84.4-28.446,92.982a18.178,18.178,0,0,0-1.935,4.142c-.15.763-1.717,4.891-3.5,9.169s-3.215,9.646-3.215,11.907c0,2.425-1.321,3.324-3.2,2.166-1.948-1.213-2.438-.763-1.253,1.158,2.275,3.678-3.678,25.367-6.962,25.367-1.226,0-1.526,1.867-.641,4.155s.136,4.142-1.634,4.142-2.562,1.076-1.744,2.4c1.54,2.493-14.687,53.187-21.92,68.527-2.275,4.782-4.115,10.776-4.115,13.3,0,2.752-1.281,3.8-3.2,2.6-1.962-1.213-2.439-.749-1.226,1.2,2.234,3.624-6.526,33.637-9.823,33.637-1.2,0-1.457,1.853-.586,4.142s.15,4.141-1.621,4.141-2.52,1.144-1.662,2.534.123,6.063-1.648,10.368a90.547,90.547,0,0,0-3.978,11.662c-1.416,7.112-32.588,95.707-34.154,97.1-.845.763-1.812,3.951-2.126,7.1a61.6,61.6,0,0,1-3.91,13.828c-1.839,4.455-3.61,9.033-3.924,10.177a23.1,23.1,0,0,1-1.267,3.461,25.385,25.385,0,0,0-1.39,4.142,24.267,24.267,0,0,1-1.376,4.142,24.615,24.615,0,0,0-1.281,3.46c-.313,1.144-1.308,3.937-2.193,6.226s-6.253,18.447-11.921,35.939-11.062,32.411-11.975,33.174a6.257,6.257,0,0,0-1.717,4.155c-.123,7.289-7.7,31.8-9.809,31.8-1.321,0-1.689,1.867-.817,4.142s.259,4.142-1.376,4.142-2.261,1.867-1.39,4.155.15,4.142-1.621,4.142-2.425,1.308-1.444,2.888.558,4.387-.94,6.226-9.9,25.722-18.665,53.092S2102.145,921,2100.96,921.479s-1.471,2.657-.64,4.836.422,3.978-.94,3.978-2.6,2.18-2.779,4.836c-.409,6.526-12.575,37.792-15.123,38.882-1.117.477-1.349,2.657-.5,4.836s.068,3.978-1.7,3.978-2.493,1.185-1.581,2.643c1.621,2.629-22.125,79.14-26.212,84.44-1.172,1.526-4.373,9.918-7.1,18.664s-5.939,15.9-7.139,15.9-1.458,1.866-.572,4.142.2,4.155-1.471,4.155a2.93,2.93,0,0,0-3.065,2.766c0,1.812,76.415,2.766,223.7,2.766h223.7l7.084-20.054c3.883-11.022,10.041-28.406,13.665-38.637s7.6-17.711,8.828-16.594,1.349.49.272-1.39c-2.261-3.937,3.611-25.626,6.948-25.626,1.226,0,1.526-1.866.654-4.155s-.259-4.142,1.375-4.142,2.262-1.866,1.376-4.142-.136-4.155,1.635-4.155,2.534-1.1,1.7-2.466.327-7.738,2.6-14.169,4.128-12.166,4.128-12.738S2463.937,969,2383.434,969c-85.23,0-147.028-1.049-147.94-2.52-.845-1.39,2.18-11.866,6.757-23.269s8.311-22.792,8.311-25.3c0-2.725,1.267-3.746,3.188-2.561,1.962,1.212,2.438.763,1.253-1.158-2.275-3.679,3.678-25.367,6.962-25.367,1.24,0,1.526-1.867.654-4.155s-.15-4.142,1.635-4.142,2.548-1.09,1.73-2.411c-1.349-2.18,2.357-13.828,21.879-68.732,3.365-9.469,7.126-16.308,8.352-15.2s1.348.477.259-1.417c-2.234-3.883,6.444-33.9,9.8-33.9,1.2,0,1.458-1.867.586-4.142s-.259-4.155,1.375-4.155,2.262-1.867,1.39-4.142-.136-4.142,1.635-4.142,2.521-1.144,1.648-2.534-.1-6.062,1.689-10.368,3.5-8.774,3.814-9.918a10.719,10.719,0,0,1,1.131-2.766,20.636,20.636,0,0,0,1.417-4.836c.463-2.275,4.877-15.654,9.809-29.713l8.964-25.585h258.919l4.8-15.2c2.63-8.365,5.491-15.2,6.363-15.2s1.757-2.807,1.989-6.226,1.989-9.945,3.91-14.509,3.76-9.223,4.073-10.368a23.13,23.13,0,0,1,1.267-3.46,25.111,25.111,0,0,0,1.281-3.447c.313-1.144,1.362-3.951,2.316-6.226,3.5-8.31,18.528-57.342,18.528-60.421,0-2.343-33.4-3.174-127.191-3.174-103.731,0-127.178-.668-127.178-3.665,0-3.392,11.58-39.509,15.681-48.868.994-2.275,2.03-4.768,2.289-5.531s1.227-3.242,2.153-5.518,10-29.659,20.149-60.83,19.7-58.241,21.226-60.135,1.839-3.46.708-3.46-.886-1.553.559-3.46,4.9-11.226,7.684-20.735,6.076-17.275,7.315-17.275,1.526-1.867.654-4.142-.259-4.155,1.376-4.155,2.262-1.867,1.39-4.142-.15-4.155,1.621-4.155,2.562-1.076,1.744-2.4c-1.39-2.234,4.1-21.594,14.019-49.441l4.183-11.744h297l8.76-24.2c4.809-13.31,11.539-33.215,14.945-44.236s7.139-20.054,8.311-20.054,1.417-1.866.545-4.142-.245-4.142,1.39-4.142,2.248-1.866,1.376-4.155-.136-4.142,1.635-4.142,2.425-1.294,1.444-2.888-.286-4.7,1.553-6.907,2.412-4.033,1.281-4.033-.5-1.867,1.389-4.142,2.411-4.155,1.158-4.155-.776-1.485,1.049-3.311,3.31-4.319,3.31-5.531-100.5-2.207-223.333-2.207H2390.015l-14.877,47" transform="translate(0 3.686)" fill="#4c9c7c" fill-rule="evenodd"/>
    <path id="path1" d="M1038.686,62.238a30.027,30.027,0,0,0,11.062-.054c2.643-.695-.164-1.226-6.253-1.2s-8.242.6-4.809,1.253m37.3-.041a22.7,22.7,0,0,0,9.673,0c2.656-.695.477-1.267-4.836-1.267s-7.507.572-4.836,1.267m68.418,14.836c0,1.621,1.145,2.234,2.534,1.376s3.093,0,3.774,1.907,2.3,2.466,3.61,1.253.545-3.392-1.7-4.8c-5.381-3.406-8.215-3.324-8.215.259m-841.987,36.73c-.954,5.082-.545,17.833.9,28.337l2.643,19.1.354-28.337c.368-29.182-.872-35.231-3.9-19.1m582.8-3.093c-3.433,1.649-6.226,4.046-6.226,5.34,0,3.678,2.521,2.779,8.937-3.188,6.635-6.185,6.253-6.485-2.711-2.153m904.983,9.264c-1.022,4.046-1.321,7.888-.667,8.542s2.016-2.125,3.038-6.172,1.322-7.9.667-8.556-2.016,2.125-3.038,6.185M834.753,147.373c-1.921,2.316-2.221,4.155-.681,4.155s4.319-1.866,6.213-4.155c1.921-2.3,2.221-4.142.667-4.142-1.512,0-4.3,1.866-6.2,4.142m-710.341,6.5c-3.624,6.785-3.746,8.719-.545,8.719,2.52,0,6.458-11.389,4.578-13.256-.572-.572-2.384,1.471-4.033,4.537m1105.715,5.954a2.859,2.859,0,0,0,2.929,2.766c1.608,0,2.152,1.24,1.212,2.766s-.4,2.766,1.226,2.766c3.392,0,3.528-.749,1.24-6.689-1.853-4.823-6.608-5.981-6.608-1.608M805.72,174.552c-6.09,5.858-8.569,9.414-5.531,7.9,6.063-3.038,19.618-16.635,17.752-17.82-.64-.409-6.144,4.046-12.22,9.918m777.233,3.937c-.79,2.657-.422,14.169.831,25.572l2.248,20.735.382-25.572c.368-24.986-.559-30.517-3.46-20.735m-339.108,27.643c-1.172,24.4-.845,42.165.79,42.165,1.144,0,2.071-9.959,2.071-22.125,0-16.8-2.248-32.6-2.861-20.04m1252.565,3c0,2.411-37.315,3.229-149,3.229-153.294,0-161.033.531-151.047,10.531.8.79,1.458,0,1.458-1.785,0-2.411,37.316-3.215,149-3.215,153.294,0,161.033-.545,151.046-10.545-.8-.79-1.458.014-1.458,1.785m-1490.49,6.2c-2.834,1.8-1.826,2.48,3.706,2.507,8.256.055,9.741-1.308,3.9-3.542a9.7,9.7,0,0,0-7.6,1.035M916.74,250.586c-5.041,5.572-6.144,10.068-1.826,7.4,2.888-1.785,9.278-12.452,7.452-12.452-.572,0-3.106,2.275-5.627,5.054M903.866,263.5c-1.948,2.357-2.929,4.9-2.166,5.667s2.983-.545,4.932-2.9,2.929-4.9,2.18-5.667-2.984.545-4.945,2.9m-598.231,3.46c-.777,2.657-.409,14.8.8,26.948l2.22,22.125.382-26.961c.381-26.212-.518-32.043-3.406-22.111m775.885,7.6c.027,6.076.6,8.242,1.253,4.809a30.026,30.026,0,0,0-.054-11.062c-.695-2.643-1.226.164-1.2,6.253m504.9,55.98c-.559,2.67-.3,14.8.558,26.961l1.567,22.125.5-26.961c.477-25.6-.381-32.847-2.629-22.125M310.457,441.836c0,15.967.449,22.493,1.008,14.509a251.667,251.667,0,0,0,0-29.032c-.559-7.984-1.008-1.444-1.008,14.523m1280.1,64.971c.013,15.2.477,21.076,1.036,13.038a225.276,225.276,0,0,0-.014-27.642c-.572-7.18-1.022-.6-1.022,14.6M163.226,497.72c-2.548,6.866-.967,15.994,2.752,15.994,1.349,0,2.452-4.973,2.452-11.049,0-12.37-1.826-14.1-5.2-4.945m1279.826,42.792c-.014,12.452,1.213,23.419,2.725,24.359,3.638,2.248,3.638-37.234,0-42.86-1.853-2.861-2.684,2.861-2.725,18.5m-564.063.858c0,1.8,47.465,2.766,136.864,2.766s136.85-.967,136.85-2.766-47.465-2.766-136.85-2.766-136.864.954-136.864,2.766M313.209,595.28c0,15.2.463,21.076,1.035,13.038a227.966,227.966,0,0,0-.014-27.642c-.572-7.166-1.035-.6-1.022,14.6M165.664,610.157c0,10.654,1.24,20.122,2.766,21.062,1.744,1.09,2.766-5.436,2.766-17.643,0-10.64-1.253-20.122-2.766-21.062-1.744-1.076-2.766,5.449-2.766,17.643m1427.657,51.484c.014,15.2.477,21.076,1.035,13.038a225.258,225.258,0,0,0-.013-27.643c-.573-7.18-1.022-.6-1.022,14.6m-143.812,4.142c0,12.929.477,18.215,1.063,11.757a161.1,161.1,0,0,0,0-23.5c-.586-6.471-1.062-1.185-1.062,11.744m854.453-5.5c-1.648,1.648-53.078,2.984-132.518,3.433l-129.847.749,131.864.668c91.088.45,132.423-.259,133.676-2.289,2.479-4.019.163-5.9-3.175-2.561M832.028,673.384c-.027,3.42,1.2,6.226,2.725,6.226,3.46,0,3.46-2.929,0-8.3-2.166-3.351-2.684-2.956-2.725,2.071M172.136,733.519c.014,12.166.5,16.8,1.076,10.3a137.717,137.717,0,0,0-.014-22.125c-.586-5.654-1.076-.341-1.063,11.825m1280.139,51.157c0,12.929.477,18.215,1.063,11.744a161.064,161.064,0,0,0,0-23.5c-.586-6.458-1.063-1.172-1.063,11.757M174.9,855.179c.014,12.166.5,16.8,1.076,10.286a137.546,137.546,0,0,0-.014-22.111c-.6-5.668-1.076-.341-1.063,11.825m1653.061-9.686c-1.812,2.9-2.207,5.94-.9,6.757s3.12-1.253,3.992-4.591c2.071-7.943.995-8.692-3.093-2.166m-372.936,59.454c0,12.166.49,16.8,1.076,10.286a139.146,139.146,0,0,0-.014-22.111c-.6-5.667-1.076-.341-1.063,11.826m-777.873-5.531c0,2.275,1.24,4.142,2.766,4.142s2.766-1.867,2.766-4.142-1.24-4.155-2.766-4.155-2.766,1.866-2.766,4.155m170,35.108c-6.062,6.185-8.528,9.945-5.49,8.365,6.662-3.46,19.4-16.7,17.711-18.392-.668-.668-6.172,3.842-12.221,10.027M177.667,974.06c.014,12.166.49,16.8,1.076,10.3a137.7,137.7,0,0,0-.014-22.125c-.6-5.654-1.076-.341-1.063,11.825m337.16-8.283c.014,7.6.545,10.381,1.185,6.172a48.7,48.7,0,0,0-.041-13.815c-.654-3.406-1.172.027-1.144,7.643m246.658,9.673c-.94,1.512.926,2.765,4.142,2.765s5.1-1.253,4.155-2.765a4.494,4.494,0,0,0-8.3,0m696.308,48.378c0,12.166.49,16.8,1.076,10.3a137.684,137.684,0,0,0-.027-22.125c-.586-5.654-1.063-.341-1.049,11.825M950.868,1018.3c-5.15,5.327-8.038,9.686-6.39,9.686s6.294-4.359,10.354-9.686,6.935-9.673,6.4-9.673-5.2,4.36-10.368,9.673m-53.7,44.441c-5.4,5.395-5.531,6.989-.422,5.027a10.812,10.812,0,0,0,5.449-5.436c1.962-5.109.354-4.986-5.027.409m-344.421,8.474c0,1.485,4.659,6.976,10.368,12.22l10.368,9.523-9.687-11.035c-5.313-6.062-9.986-11.553-10.368-12.207s-.681.027-.681,1.5m-372.3,23.12c0,12.929.477,18.215,1.063,11.757a157.337,157.337,0,0,0,0-23.5c-.586-6.471-1.063-1.172-1.063,11.744M854.1,1088.8c-5.313,2.915-8.433,5.3-6.907,5.3s7.125-2.384,12.438-5.3,8.433-5.286,6.921-5.286-7.125,2.384-12.452,5.286m-126.483,40.626a22.7,22.7,0,0,0,9.673,0c2.656-.695.49-1.267-4.837-1.267s-7.493.572-4.836,1.267" transform="translate(296.049 0)" fill="#cee5dc" fill-rule="evenodd"/>
    <path id="path2" d="M1316.9,62.33a49.345,49.345,0,0,0,13.828-.027c3.392-.668-.041-1.185-7.643-1.158s-10.395.559-6.185,1.185m-870.27,6.458c-19.046.954-3.529,1.567,41.471,1.608,71.8.082,80.8-.954,20.735-2.371-17.493-.422-45.476-.068-62.206.763m377.391,0c-19.727.94-3.488,1.539,42.86,1.553,71.988.041,78.677-.831,17.97-2.357-15.967-.4-43.337-.041-60.83.8m877.041.354c-2.6,1.035,27.52,1.962,66.92,2.071s70.993-.463,70.176-1.281c-2.207-2.221-131.619-2.97-137.1-.79m377.718-1.022c-9.973,1.144-21.962,17.111-12.861,17.111,1.512,0,2.234-1.539,1.607-3.433-3.12-9.346,4.741-10.381,78.35-10.381,39.9,0,71.879-.668,71.075-1.485-1.608-1.594-125.938-3.229-138.172-1.812m281.97.94c-3.515.995,94.29,1.921,217.339,2.071s223.061-.381,222.257-1.185c-2.138-2.139-432.076-3.011-439.6-.886M783.009,90.627c-1.607,4.632-2.343,8.433-1.635,8.433,1.866,0,7.084-14.359,5.722-15.735-.627-.627-2.466,2.657-4.087,7.3M1839.229,103.2c-.068,12.166.94,24.618,2.248,27.656,3.174,7.37,3.3-23.555.163-38.705-1.962-9.469-2.3-7.875-2.411,11.049M408.207,91.063c-.668,2.112-4.414,13.705-8.324,25.762s-6.648,22.384-6.063,22.97,4.9-10.436,9.618-24.482,7.984-26.117,7.275-26.825-1.839.45-2.507,2.575m1021.316-1.826c0,.763,3.733,3.311,8.3,5.681s8.3,3.665,8.3,2.9-3.733-3.311-8.3-5.667-8.3-3.678-8.3-2.915m-252.3,5.872c-10.708,5.817-9.5,7.82,1.39,2.289,10.422-5.3,12.261-6.676,8.76-6.526-1.4.068-5.967,1.975-10.15,4.237m505.236,9.673c-2.63,11.962-.1,12.82,3.474,1.185,1.621-5.313,1.935-9.673.681-9.673s-3.133,3.828-4.155,8.488m-232.053.054c3.011,4.864,12.316,8.569,10.654,4.237-.831-2.166-3.91-4.564-6.853-5.341s-4.646-.272-3.8,1.1m748.065,22.193c-3.2,9.482-5.341,17.7-4.755,18.283s3.665-6.689,6.866-16.171,5.341-17.7,4.755-18.269-3.665,6.689-6.866,16.158M918.347,129.795c-3.188,9.482-5.232,17.806-4.509,18.528,1.485,1.485,2.6-1.226,8.215-20.109,5.9-19.85,3.133-18.665-3.706,1.58m551.815-5.6c7.3,12.425,12,15.286,6.744,4.1-2.493-5.3-6.144-10.3-8.12-11.1q-3.576-1.471,1.376,7m-357.527,11.049c-13.3,10.558-15.082,12.438-7.984,8.46,7-3.924,22.683-16.962,20.422-16.989-.927,0-6.526,3.828-12.438,8.528m560.657-.381c-1.621,4.632-2.357,8.433-1.635,8.433,1.866,0,7.084-14.359,5.708-15.735-.627-.627-2.452,2.657-4.073,7.3m-584.335,19.005c-4.06,2.548-10.872,8.992-15.136,14.319-8.038,10.041-7.806,9.864,22.4-17.016,4.033-3.6.94-2.439-7.261,2.7m1226.979,27.193c-2.48,7.248-3.406,11.975-2.07,10.518,3.065-3.379,9.087-21.171,7.642-22.615-.6-.6-3.106,4.85-5.572,12.1m-1754.2,12c-.15,12.929.926,25.367,2.4,27.643,3.243,5.027,3.243-30.095,0-42.847-1.5-5.885-2.193-1.458-2.4,15.2m496.612-10.844c-2.657,1.553-4.837,4.114-4.837,5.681s-4.169,8.038-9.25,14.373c-9.169,11.417-16.4,22.629-11.008,17.057,4.537-4.687,31.852-40.095,30.858-40.013a35.3,35.3,0,0,0-5.763,2.9M740.926,214.494c-5.613,15.354-5.749,15.94-3.147,13.133,3.025-3.283,9.114-20.735,7.234-20.735-.722,0-2.561,3.419-4.087,7.6m508.887-2.071c0,1.512,1.866,2.766,4.142,2.766s4.142-1.253,4.142-2.766-1.866-2.766-4.142-2.766-4.142,1.24-4.142,2.766m31.784,0c.94,1.512,4.442,2.738,7.779,2.711,4.918-.027,5.272-.531,1.907-2.711-5.449-3.529-11.853-3.529-9.687,0m356.029,25.517c-11.444,37.329-9.5,37.928,2.9.9,5.381-16.049,8.882-29.182,7.779-29.182s-5.913,12.724-10.681,28.283m809.262-3.079c-3.31,11.117-7.207,23.365-8.665,27.22-1.7,4.509-1.7,6.035.027,4.251,3.352-3.474,17.629-48.7,15.913-50.421-.695-.695-3.964,7.834-7.275,18.951m-430.755-8.76c-1.621,4.632-2.356,8.433-1.635,8.433,1.866,0,7.084-14.359,5.708-15.735-.627-.627-2.453,2.657-4.074,7.3m-694.442-1.935c0,.763,4.55,6.2,10.109,12.1,8.447,8.937,9.155,9.291,4.278,2.18-5.722-8.392-14.386-16.975-14.386-14.278m-128.567,9.223-8.283,7.139,8.978-5.954c4.945-3.27,8.992-6.485,8.992-7.139,0-2.071-1.172-1.349-9.687,5.954m648.9,20.5c-.082,12.915.913,25.98,2.221,29.032,3.119,7.234,3.229-22.792.15-40.095-1.935-10.885-2.234-9.5-2.371,11.062m-669.783-3.978c-5.231,5.409-7.657,9.06-5.381,8.106,3.815-1.608,18.351-17.956,15.967-17.956-.586,0-5.34,4.428-10.586,9.85m-818.377,2.97c-1.526,4.019-2.262,7.82-1.635,8.447s2.452-2.657,4.074-7.3c3.6-10.313,1.43-11.321-2.439-1.144m520.167,6.8c-1.866,6.253-4.142,13.31-5.054,15.681-.995,2.575-.5,3.61,1.2,2.548,3.242-2,10.613-26.253,8.583-28.269-.722-.722-2.847,3.8-4.727,10.041m467.253-7.18a20.052,20.052,0,0,0,2.534,9.686c3.542,5.49,3.542-1.417,0-9.686l-2.384-5.531-.15,5.531m808.976,16.43c-3.869,11.5-6.062,20.9-4.891,20.9,2.207,0,14.523-39.168,12.847-40.858-.518-.5-4.1,8.474-7.956,19.959M998.877,273.743c-8.406,19.128-6.349,19.686,2.916.8,4.073-8.324,6.5-15.1,5.368-15.068s-4.85,6.458-8.283,14.264m344.612,7.193c-.913,5.49-.5,8.065,1.022,6.539,1.389-1.39,2.071-5.477,1.512-9.073-.872-5.531-1.267-5.15-2.534,2.534m-207.2,21.73c-3.024,7.057-5.027,13.31-4.455,13.882s3.665-5.191,6.839-12.833,5.163-13.883,4.441-13.883-3.8,5.776-6.826,12.834M2276.9,296.059c-7.03,19.441-9.441,27.833-7.357,25.544,3-3.256,11.785-29,9.905-29-.708,0-1.867,1.553-2.548,3.46M701.281,330.445c-5.49,16.444-9.877,31.144-9.755,32.656s5.068-11.458,11.022-28.841,10.341-32.07,9.755-32.656-5.545,12.4-11.022,28.841m634.7-15.872c-1.621,4.646-2.357,8.433-1.635,8.433,1.866,0,7.084-14.359,5.708-15.722-.626-.627-2.452,2.657-4.073,7.289M564.689,343.742c-.1,13.692.9,27.37,2.207,30.422,3.065,7.139,3.161-22.03.123-41.471-1.921-12.343-2.166-11.158-2.33,11.049m1416.363-14.509c-7.152,19.509-12.043,35.967-10.054,33.787,2.943-3.2,14.455-37.247,12.6-37.247-.708,0-1.853,1.553-2.548,3.46m-860.474,17.275c-1.635,5.327-2.044,9.687-.927,9.687s3.379-4.36,5.013-9.687,2.057-9.673.927-9.673-3.379,4.36-5.013,9.673m1286.938,4.646c-2.493,7.806-3.5,13.079-2.221,11.689,3.011-3.256,9.4-23.269,7.915-24.754-.627-.64-3.188,5.245-5.695,13.065m-935.827,2.657c-1.853,4.9-2.793,9.5-2.112,10.177,1.662,1.662,7.37-13.433,6.308-16.635-.449-1.349-2.343,1.553-4.2,6.458m122.668,12.384c-3.951,11.757-6.717,21.852-6.131,22.438s4.292-8.569,8.242-20.327,6.717-21.866,6.131-22.438-4.291,8.569-8.242,20.327M318.522,356.044c-1.621,4.646-2.357,8.433-1.635,8.433,1.867,0,7.084-14.359,5.722-15.722-.627-.627-2.466,2.656-4.087,7.289m515.14,25.722c-7.03,19.455-9.441,27.833-7.357,25.544,3-3.256,11.784-29,9.9-29-.708,0-1.866,1.553-2.548,3.46M1844.924,403.2c-.068,14.441.872,29.373,2.085,33.174,2.915,9.073,2.984-19.7.109-42.86-1.949-15.667-2.071-15.122-2.194,9.687m263.633-11.975c-2.425,7.1-3.815,13.487-3.107,14.209,1.431,1.417,5.136-7.616,8.011-19.523,2.929-12.084-.1-8.815-4.9,5.313M955.635,393.945c-2.466,7.248-3.406,11.989-2.071,10.518,3.065-3.365,9.087-21.158,7.643-22.6-.6-.6-3.106,4.836-5.572,12.084m1284.88,6.717c-1.662,6.2-2.084,10.245-.954,8.978,3.338-3.733,8.256-20.272,6.008-20.272-1.117,0-3.406,5.082-5.055,11.294m-1151.191,37.6c-3.42,10.368-6.839,20.708-7.6,22.983-.94,2.834-.463,3.27,1.526,1.39,3.12-2.97,14.959-40.558,13.3-42.206-.545-.559-3.8,7.48-7.221,17.833m1141.954-8.678c-3.515,9.25-6.635,22.357-4.891,20.613,2.125-2.153,10.286-27.656,8.842-27.656-.7,0-2.48,3.174-3.951,7.043m-294.449,29.591c-7.03,19.455-9.441,27.833-7.357,25.558,3-3.27,11.784-29,9.9-29-.708,0-1.866,1.553-2.547,3.447m-1281.5,6.349c-3.529,9.25-6.635,22.37-4.891,20.613,2.125-2.152,10.286-27.656,8.842-27.656-.708,0-2.48,3.174-3.951,7.043m-374.639,1.948c-7.03,19.455-9.441,27.833-7.343,25.544,2.984-3.256,11.771-29.005,9.9-29.005-.722,0-1.866,1.567-2.561,3.461m2087.453,0c-7.03,19.455-9.441,27.833-7.356,25.544,3-3.256,11.784-29.005,9.9-29.005-.708,0-1.866,1.567-2.548,3.461M567.591,493.044c-.082,15.2.845,30.762,2.071,34.563,2.875,8.978,2.929-18.964.1-44.236-1.935-17.248-2.03-16.866-2.166,9.673m510.14-19.427c-.722,3.747-.4,6.253.722,5.572,2.97-1.839,5.327-12.411,2.766-12.411-1.2,0-2.779,3.079-3.488,6.839m476.667,9.618c-1.608,4.632-2.343,8.433-1.635,8.433,1.866,0,7.084-14.359,5.722-15.735-.627-.627-2.466,2.657-4.087,7.3m149.834,4.741c.995,1.771.6,3.638-.886,4.142-1.662.572-1.73,2.48-.163,5,2.153,3.461,2.807,3.324,4.428-.872a7.9,7.9,0,0,0-1.648-8.229c-2.589-2.4-3.052-2.411-1.73-.041M916.6,508.943c-7.03,19.455-9.441,27.833-7.343,25.544,2.984-3.256,11.771-28.991,9.891-28.991-.708,0-1.853,1.553-2.548,3.447m1148.425,12.03c-2.507,8.5-3.61,14.414-2.439,13.12,3.27-3.624,11.049-28.61,8.9-28.6-1.049,0-3.951,6.962-6.458,15.477m-1276.652-6.5c-4.373,11.7-6.2,18.664-4.891,18.664.722,0,3.215-5.6,5.545-12.438,4.264-12.507,3.706-17.861-.654-6.226M404.406,543.452c-4.836,14.686-8.324,27.152-7.766,27.711s5.013-10.94,9.891-25.585,8.379-27.111,7.766-27.711-5.054,10.913-9.891,25.585m1794.2-18.746c-1.621,4.632-2.357,8.433-1.635,8.433,1.866,0,7.084-14.359,5.722-15.735-.626-.627-2.466,2.657-4.087,7.3m280.853-6.09c82.042.491,127.886,1.73,127.886,3.488a2.75,2.75,0,0,0,2.752,2.738c1.526,0,2.766-1.866,2.766-4.142,0-3.637-16.063-4.073-130.638-3.488l-130.638.668,127.873.736m-631.691,32.493c-.054,16.73.845,34.141,2,38.7,2.888,11.321,2.97-13.6.15-45.612l-2.057-23.5-.1,30.408M426.163,549.2c-.177,14.673.722,22.357,2.493,21.267,3.215-2,3.215-27.261,0-37.329-1.526-4.741-2.3.313-2.493,16.063m1768.372-11.226c-2.779,4.891-10.681,31.566-9.645,32.588.613.627,3.732-6.921,6.934-16.771,5.164-15.872,6.212-21.989,2.711-15.817M1678.21,560.1c-5.613,15.354-5.763,15.94-3.161,13.133,3.038-3.283,9.128-20.735,7.248-20.735-.722,0-2.561,3.419-4.087,7.6M622.045,562.866c-5.613,15.354-5.763,15.94-3.161,13.133,3.024-3.283,9.128-20.749,7.248-20.749-.722,0-2.561,3.433-4.087,7.616m423.752,5.259c-1.7,5.558-2,8.978-.654,7.6,2.711-2.766,6.907-17.711,4.972-17.711-.667,0-2.6,4.55-4.319,10.109m85.557-4.264a111.186,111.186,0,0,0-4.209,16.28c-1.254,7-.2,5.545,3.787-5.313,3.025-8.242,4.918-15.558,4.21-16.28s-2.425,1.676-3.787,5.313m760.177,27.86c-4.714,14.169-8.488,27-8.365,28.515s4.455-9.591,9.645-24.686,8.951-27.929,8.365-28.515-4.918,10.518-9.646,24.686m-181.9,11.921c.014,9.128.531,12.52,1.145,7.547a73.97,73.97,0,0,0-.027-16.58c-.627-4.155-1.131-.1-1.117,9.032m-589.308-4.291c-1.608,4.646-2.343,8.433-1.635,8.433,1.866,0,7.084-14.359,5.722-15.722-.627-.627-2.466,2.657-4.087,7.289m-883.866-1.935c-7.03,19.455-9.441,27.833-7.343,25.558,2.984-3.27,11.771-29,9.891-29-.708,0-1.853,1.553-2.548,3.447m1152.935,0c-7.03,19.455-9.441,27.833-7.343,25.558,2.984-3.27,11.771-29,9.9-29-.722,0-1.866,1.553-2.561,3.447m121.973,12.193c-2.466,7.248-3.392,11.975-2.071,10.517,3.079-3.379,9.087-21.171,7.643-22.615-.586-.6-3.093,4.85-5.572,12.1m1068.631-3.9c-4.373,11.7-6.2,18.665-4.891,18.665.722,0,3.215-5.6,5.545-12.438,4.265-12.507,3.706-17.861-.654-6.226m-1827.39,13c-1.621,4.632-2.357,8.433-1.635,8.433,1.866,0,7.084-14.359,5.722-15.735-.627-.627-2.466,2.657-4.087,7.3m-182.34,20.872c-.15,15.2.75,32.629,2,38.705,3.024,14.645,3.188-14.455.245-45.612l-1.962-20.735-.286,27.642m302.106-.695c-7.03,19.455-9.441,27.833-7.357,25.558,3-3.27,11.784-29,9.9-29-.708,0-1.866,1.553-2.547,3.447m1152.935,0c-7.03,19.455-9.441,27.833-7.343,25.558,2.984-3.27,11.771-29,9.891-29-.708,0-1.853,1.553-2.548,3.447M365.7,656.692c-3.283,10.1-4.918,17.22-3.637,15.831,3.011-3.283,12.193-31.566,10.735-33.037-.627-.627-3.815,7.125-7.1,17.207m1790.825-8.12c-5.613,15.354-5.763,15.94-3.161,13.133,3.038-3.283,9.128-20.735,7.248-20.735-.722,0-2.561,3.42-4.087,7.6m-512.1,9.469c-2.507,7.82-3.5,13.092-2.234,11.7,3.011-3.27,9.414-23.269,7.929-24.768-.64-.627-3.2,5.259-5.695,13.065M432.28,672.768c.014,9.114.531,12.52,1.144,7.547a74.083,74.083,0,0,0-.027-16.594c-.64-4.155-1.144-.082-1.117,9.046m1935.208-13.147c36.117.436,95.216.436,131.333,0s6.566-.79-65.666-.79-101.783.354-65.667.79m-1271.42,10.6a28.993,28.993,0,0,1,1.676,5.531c0,.64,25.64,1.158,56.974,1.158h56.974l-1.649,6.226c-4.332,16.226-4.073,18.773.654,6.212,7.084-18.842,9.755-17.97-55.217-17.97-38.01,0-57.479-.954-56.361-2.766.94-1.512.259-2.766-1.512-2.766-1.8,0-2.479,1.935-1.539,4.373m754.236,12.915c-.422,14.972.286,18.651,3.624,18.651,2.275,0,4.142-1.131,4.142-2.534a34.527,34.527,0,0,1,1.58-7.6c.858-2.779-.3-1.948-2.589,1.853-4.019,6.676-4.2,6.321-5.19-11.062l-1.036-17.97-.531,18.665m-842.464-2.766c-7.03,19.441-9.441,27.833-7.343,25.544,2.984-3.256,11.771-29,9.891-29-.708,0-1.853,1.553-2.547,3.46m626.133,9.359c-1.526,4.019-2.261,7.82-1.635,8.447s2.466-2.657,4.087-7.3c3.6-10.313,1.417-11.321-2.452-1.144m653.108,14.686c-1.622,4.646-2.343,8.433-1.635,8.433,1.867,0,7.085-14.359,5.722-15.722-.627-.64-2.466,2.643-4.087,7.289m-574.717,19.5c0,8.365.518,11.785,1.144,7.6a60.414,60.414,0,0,0,0-15.2c-.627-4.182-1.144-.763-1.144,7.6m-240.023.695c-7.044,19.441-9.455,27.833-7.357,25.544,2.984-3.256,11.771-29,9.9-29-.722,0-1.866,1.553-2.548,3.461M190.977,730.56c-4.114,10.817-6.444,20.994-4.809,20.994,2.057,0,10.477-25.572,8.924-27.111-.709-.708-2.561,2.044-4.114,6.117m1153.139-.422c-4.387,11.7-6.212,18.651-4.891,18.651.708,0,3.215-5.586,5.545-12.438,4.25-12.493,3.692-17.847-.654-6.212m934.069,1.063c-1.526,4.019-2.261,7.82-1.635,8.447s2.466-2.657,4.074-7.3c3.6-10.313,1.43-11.321-2.439-1.144M714.741,730.138c-8.256,22.179-19.877,60.122-18.406,60.067,2-.068,22.834-63.527,20.844-63.527-.64,0-1.73,1.553-2.439,3.46m125.025,4.142c-2.875,5.082-18.964,56.457-17.983,57.424.6.613,5.586-12.534,11.1-29.2,8.774-26.553,10.913-35.354,6.88-28.228m757.7,62.1c-5.586,16.921-9.114,29.618-7.834,28.228,3-3.27,20.531-56.457,19.087-57.9-.6-.6-5.668,12.752-11.253,29.672m382.568-24.768c-4.386,11.7-6.212,18.664-4.9,18.664.721,0,3.215-5.6,5.558-12.452,4.251-12.493,3.692-17.847-.654-6.212m-802.26,6.907c-1.526,4.183-3.324,9.155-3.992,11.062s-.259,3.46.9,3.46,3.433-4.986,5.055-11.062c3.379-12.656,2.18-14.768-1.962-3.46m934.519,0c-1.526,4.183-3.324,9.155-3.992,11.062s-.163,3.46,1.131,3.46,3.6-4.986,5.136-11.062c3.215-12.67,1.839-14.741-2.275-3.46m-1788.4,1.39c-4.373,11.7-6.2,18.651-4.891,18.651.722,0,3.215-5.6,5.545-12.438,4.264-12.507,3.692-17.847-.654-6.212m1391.159,4.836c0,6.839.545,9.632,1.2,6.212a38.881,38.881,0,0,0,0-12.438c-.654-3.42-1.2-.627-1.2,6.226M435,793.038c0,8.351.518,11.785,1.158,7.6a61.821,61.821,0,0,0,0-15.218c-.64-4.169-1.158-.749-1.158,7.616m524.35,29.713c-5.613,15.354-5.763,15.953-3.161,13.133,3.024-3.283,9.128-20.735,7.248-20.735-.722,0-2.561,3.419-4.087,7.6m1278.763,26.089c-4.182,12.643-8.242,24.85-9.019,27.139s-.409,3.229.845,2.1c2.684-2.439,18.187-49.808,16.757-51.225-.531-.545-4.4,9.346-8.583,21.989m-522.987-6.035c0,8.351.518,11.785,1.144,7.6a60.523,60.523,0,0,0,0-15.218c-.627-4.183-1.144-.749-1.144,7.616M153.525,840.5c-4.1,10.681-12.125,39.454-11.253,40.326.545.545,4.237-8.624,8.188-20.395,5.9-17.547,8.406-33.869,3.065-19.932M437.7,853.855c0,6.853.531,9.646,1.2,6.226a39.674,39.674,0,0,0,0-12.438c-.668-3.419-1.2-.627-1.2,6.212m990.39.695c-7.03,19.455-9.441,27.833-7.343,25.544,2.984-3.256,11.771-29,9.9-29-.722,0-1.866,1.567-2.561,3.46m-128.662,6.608c-1.526,4.005-2.261,7.806-1.635,8.433s2.466-2.657,4.087-7.3c3.583-10.313,1.417-11.321-2.452-1.131m-628.9-1.076c-7.03,19.455-9.441,27.833-7.343,25.544,2.984-3.256,11.771-29,9.891-29-.708,0-1.853,1.553-2.547,3.46m121.973,12.18c-2.466,7.248-3.392,11.989-2.071,10.518,3.079-3.365,9.087-21.158,7.643-22.6-.586-.6-3.106,4.836-5.572,12.084M1941.353,884.6c-4.714,14.046-8.092,26.008-7.52,26.58s4.9-10.436,9.619-24.482,8.092-26.008,7.507-26.58-4.9,10.436-9.6,24.482m-223.333,12.111c0,12.166.49,16.8,1.076,10.3a137.678,137.678,0,0,0-.027-22.125c-.586-5.667-1.063-.341-1.049,11.825m-933.647,3.46c-3.42,12.615-4.537,21.2-2.234,17.275,2.725-4.673,6.417-22.125,4.673-22.125-.613,0-1.717,2.18-2.439,4.85m-346.6,11.744c0,8.365.518,11.785,1.158,7.6a61.7,61.7,0,0,0,0-15.2c-.64-4.182-1.158-.763-1.158,7.6m691.867-3.91c-2.575,3.937-4.21,7.629-3.637,8.215s3.242-2.643,5.912-7.152c5.954-10.1,4.183-10.913-2.275-1.063m431.177-3.692c-7.03,19.455-9.455,27.833-7.357,25.544,2.984-3.256,11.785-29,9.9-29-.722,0-1.867,1.553-2.548,3.46m507.374,3.76c-1.608,4.4-3.46,9.55-4.128,11.444s-.218,3.46.994,3.46c2.507,0,9.155-19.8,7.275-21.675-.667-.668-2.534,2.384-4.141,6.771M279.2,910.924c-1.526,4.005-2.262,7.806-1.635,8.433s2.466-2.657,4.087-7.3c3.6-10.313,1.417-11.321-2.452-1.131m656.1,5.136c.041,6.09.6,8.256,1.267,4.809a30.552,30.552,0,0,0-.054-11.049c-.695-2.657-1.24.163-1.213,6.24m172.613,18.8c-7.316,7.3-17.588,15.3-22.806,17.793s-9.5,5.613-9.5,6.935,3.855.163,8.556-2.589c10.2-5.953,40.421-33.01,38.446-34.413-.763-.545-7.37,4.986-14.7,12.275M440.659,965.828c.014,12.166.49,16.8,1.076,10.3a137.547,137.547,0,0,0-.014-22.111c-.6-5.667-1.076-.341-1.063,11.812m505.6-15.409a36.215,36.215,0,0,0,10.681,10.708l6.7,4.005-6.144-5.177a101.315,101.315,0,0,1-10.667-10.708c-4.319-5.272-4.346-5.218-.572,1.172m447.172,5.041c-5.613,15.367-5.763,15.953-3.161,13.133,3.025-3.283,9.128-20.735,7.248-20.735-.722,0-2.561,3.419-4.087,7.6m324.49,7.616c.013,9.114.531,12.52,1.144,7.547a74.1,74.1,0,0,0-.027-16.594c-.627-4.155-1.131-.082-1.117,9.046m483.287-6.608c-4.782,13.746-7.3,13.515,146.4,13.515,80.5,0,146.373.463,146.373,1.035s-1.88,6.362-4.183,12.874-3.678,12.329-3.065,12.929c2.112,2.125,9.741-24.332,8.188-28.378-1.363-3.542-20.926-3.992-147.763-3.351-161.441.817-147.422,2.18-141.428-13.773.708-1.907.668-3.46-.109-3.46s-2.766,3.883-4.414,8.61M1383,986.877c-3.529,9.578-6.308,21.812-4.932,21.812,1.88,0,10.1-25.694,8.665-27.111-.708-.722-2.384,1.676-3.733,5.3M102.859,991.958c-1.608,4.646-2.343,8.433-1.621,8.433,1.866,0,7.084-14.359,5.708-15.722-.627-.627-2.466,2.656-4.087,7.289m1617.994,19.5c0,15.967.463,22.493,1.022,14.509a251.57,251.57,0,0,0,0-29.019c-.559-7.983-1.022-1.458-1.022,14.509m185.528-24.2c-8.256,22.18-19.877,60.122-18.405,60.081,2-.068,22.833-63.527,20.858-63.527-.64,0-1.744,1.553-2.453,3.447M625.26,992.789c-4.387,11.7-6.212,18.664-4.9,18.664.722,0,3.229-5.6,5.558-12.438,4.251-12.506,3.692-17.861-.654-6.226m596.9,8.3c-4.074,5.559-4.741,7.493-1.757,5.068,4.537-3.678,11.389-14.06,9.291-14.06-.531,0-3.924,4.046-7.534,8.991m-436.545,18.719c1.771,5.3,4.332,10.831,5.681,12.316s1.022-1.621-.749-6.907-4.332-10.831-5.681-12.316-1.008,1.621.75,6.907m-170.991,4.087c-1.635,5.327-1.948,9.686-.681,9.686,2.466,0,6.784-16.226,4.836-18.174-.654-.654-2.52,3.174-4.155,8.488m-174.084,9.686c0,8.351.518,11.784,1.158,7.6a61.821,61.821,0,0,0,0-15.218c-.64-4.169-1.158-.749-1.158,7.616m752.057-4.182-7.752,6.893,8.978-4.318c4.945-2.384,8.992-5.49,8.992-6.894,0-3.923-1.785-3.161-10.218,4.319m326.751-3.433c-7.043,19.455-9.455,27.833-7.357,25.558,2.984-3.27,11.771-29,9.9-29-.722,0-1.866,1.553-2.548,3.447m-1281.611,6.608c-1.526,4.019-2.262,7.806-1.635,8.433s2.466-2.657,4.087-7.289c3.583-10.313,1.417-11.321-2.452-1.144m1784.8,12.752c-7.03,19.455-9.441,27.833-7.343,25.544,2.984-3.256,11.771-29,9.891-29-.708,0-1.853,1.567-2.548,3.46M443.492,1080.581c0,15.967.463,22.493,1.022,14.509a251.666,251.666,0,0,0,0-29.032c-.559-7.983-1.022-1.444-1.022,14.523m1276.583.218a217.228,217.228,0,0,0,2.548,26.048c1.689,10.177,1.908,7.261.8-11.062-1.567-26.1-3.774-35.912-3.352-14.986m731.376,15.313c-3.951,11.757-6.7,21.852-6.131,22.438s4.292-8.569,8.242-20.327,6.717-21.866,6.13-22.438-4.277,8.569-8.242,20.327m-1337.808-12.588c-5.708,3.011-10.368,6.09-10.368,6.853s4.973-1.172,11.049-4.278,11.063-6.226,11.063-6.962c0-1.812-.014-1.8-11.744,4.387m236.726-1.267a75.868,75.868,0,0,1-3,7.3c-.613,1.144.054,2.071,1.485,2.071,2.752,0,6.648-11.349,4.591-13.406-.667-.667-2.057,1.145-3.079,4.033m-9.319,27.343c-1.608,4.223-2.3,8.311-1.539,9.073s2.7-2.084,4.305-6.308,2.289-8.3,1.539-9.06-2.7,2.071-4.305,6.294m-472.784-1.812c0,2.943,16.689,9.537,18.8,7.439.722-.722-2.152-2.629-6.376-4.237a88.339,88.339,0,0,1-10.068-4.4c-1.294-.8-2.357-.259-2.357,1.2m62.206,16.893c5.3,2.411,20.108,3.978,17.738,1.88-.641-.558-6.131-1.771-12.207-2.7-7.711-1.172-9.387-.927-5.531.817m40.081.15c-4.142,1.335.286,1.621,11.062.722,9.891-.831,18.487-1.962,19.128-2.507,2.234-1.935-23.365-.422-30.19,1.785" transform="translate(35.822 2.701)" fill="#8dc0ac" fill-rule="evenodd"/>
    <path id="path3" d="M1915.828,65.634c0,2.275,1.24,4.142,2.765,4.142s2.752-1.866,2.752-4.142-1.24-4.142-2.752-4.142-2.765,1.866-2.765,4.142M1540.508,76.7c.027,6.076.586,8.242,1.253,4.809a30.327,30.327,0,0,0-.055-11.062c-.695-2.643-1.24.163-1.2,6.253M260.219,141.668a129.245,129.245,0,0,0,2.071,23.5l2.289,11.063.082-9.686a181.456,181.456,0,0,0-2.084-23.5l-2.153-13.814-.2,12.438m1279.826,56.906A227.009,227.009,0,0,0,1542.579,226c1.621,9.85,1.853,6.281.79-12.452-1.594-28-3.719-37.6-3.324-14.973m-339.462,21.893c.014,9.128.531,12.52,1.158,7.547a73.125,73.125,0,0,0-.041-16.58c-.627-4.155-1.131-.1-1.117,9.033M263.312,289.58c.014,9.128.531,12.534,1.144,7.561a74.094,74.094,0,0,0-.027-16.594c-.627-4.155-1.131-.082-1.117,9.033m2.657,29.032c0,6.853.545,9.646,1.2,6.226a39.67,39.67,0,0,0,0-12.438c-.654-3.419-1.2-.627-1.2,6.212m1277.455,26.267c.014,9.128.531,12.52,1.145,7.561a72.514,72.514,0,0,0-.027-16.594c-.627-4.155-1.131-.082-1.117,9.033m2.67,37.329c0,6.839.531,9.646,1.185,6.226a38.973,38.973,0,0,0,0-12.452c-.654-3.419-1.185-.613-1.185,6.226M266.118,433.352c.014,10.654.518,14.673,1.117,8.923a102.892,102.892,0,0,0-.027-19.346c-.613-4.9-1.09-.218-1.09,10.422m2.616,40.095c0,6.839.545,9.646,1.2,6.226a39.756,39.756,0,0,0,0-12.452c-.654-3.419-1.2-.613-1.2,6.226m1277.387,17.97c.027,7.6.559,10.395,1.2,6.185a49.317,49.317,0,0,0-.041-13.828c-.654-3.392-1.172.041-1.158,7.643M1402.5,502.628c-.9,2.37-.327,7.03,1.28,10.368,2.643,5.463,2.957,5.027,3.12-4.291.2-10.872-1.608-13.351-4.4-6.076m146.346,34.413c0,6.839.545,9.646,1.2,6.212a38.889,38.889,0,0,0,0-12.438c-.654-3.419-1.2-.627-1.2,6.226M125.726,573.676a13.9,13.9,0,0,0,0,9.673c2,4.6,2.166,4.6,3.256,0,1.962-8.161-.613-15.763-3.256-9.673m143.049,8.978c.013,7.6.559,10.395,1.185,6.185a49.338,49.338,0,0,0-.027-13.828c-.667-3.392-1.185.041-1.158,7.643m2.765,44.236c.014,7.6.559,10.395,1.185,6.185a49.238,49.238,0,0,0-.027-13.815c-.668-3.406-1.185.027-1.158,7.629m1136.191,1.39c0,5.327.572,7.493,1.267,4.836a22.711,22.711,0,0,0,0-9.673c-.7-2.67-1.267-.49-1.267,4.836M1550.9,688.415c.041,5.531.722,6.539,2.507,3.706a9.648,9.648,0,0,0,1.049-7.6c-2.248-5.845-3.6-4.36-3.556,3.9M130.385,697.393c0,5.327.559,7.507,1.267,4.85a22.77,22.77,0,0,0,0-9.686c-.709-2.657-1.267-.477-1.267,4.836M1410.5,747.16c0,5.327.572,7.507,1.267,4.85a22.759,22.759,0,0,0,0-9.686c-.695-2.657-1.267-.477-1.267,4.836M133.151,819.053c0,5.327.559,7.493,1.253,4.836a22.274,22.274,0,0,0,0-9.673c-.695-2.67-1.253-.49-1.253,4.836M1413.317,867.43c.027,6.09.6,8.256,1.267,4.809a30.305,30.305,0,0,0-.068-11.062c-.681-2.643-1.226.177-1.2,6.253m-1277.4,70.5c0,5.327.559,7.507,1.253,4.85a22.767,22.767,0,0,0,0-9.687c-.695-2.657-1.253-.477-1.253,4.836M647.283,946c.641,2.153,4.21,5.8,7.929,8.12,5.245,3.27,5.831,3.324,2.616.245-2.289-2.193-5.845-5.845-7.929-8.133-3.038-3.338-3.542-3.379-2.616-.232m768.745,41.7c0,5.327.572,7.507,1.267,4.85a22.767,22.767,0,0,0,0-9.686c-.695-2.656-1.267-.477-1.267,4.837m-509.581,24.182c-4.878,5.518-5.136,6.267-.94,2.752,3.161-2.656,6.376-4.2,7.139-3.433s1.389-.477,1.389-2.766c0-5.313.259-5.436-7.588,3.447m-767.765,44.945c0,5.327.559,7.493,1.253,4.837a22.7,22.7,0,0,0,0-9.673c-.695-2.656-1.253-.49-1.253,4.836m375.374,9.155c0,.477,4.032,4.523,8.978,8.992l8.992,8.12-8.12-8.992c-7.575-8.365-9.85-10.245-9.85-8.12" transform="translate(337.5 7.095)" fill="#a4ccbc" fill-rule="evenodd"/>
    <path id="path4" d="M124,66.328c.027,3.324.708,3.787,2.18,1.485,1.376-2.18,12.289-3.678,31.062-4.264l28.923-.9-31.1-.586c-28.01-.518-31.1-.1-31.062,4.264m74.6-3.12c20.177,1.907,74.658,2.343,74.658.613,0-.994-18.978-1.744-42.165-1.676s-37.806.559-32.493,1.063m318.659.327a309.153,309.153,0,0,0,31.784,0c8.746-.559,1.594-1.008-15.9-1.008s-24.632.45-15.885,1.008m69.113,0c11.784.531,31.076.531,42.86,0s2.139-.94-21.43-.94-33.215.422-21.43.94m854.466.014c13.392.5,34.536.5,47-.014s1.526-.926-24.318-.913-36.062.422-22.684.926m81.429-.068a88.021,88.021,0,0,0,17.97,0c4.945-.613.9-1.1-8.978-1.1s-13.937.49-8.992,1.1m255.063.286c0,1.267,3.733,1.744,8.3,1.076s8.283-1.7,8.283-2.289-3.733-1.063-8.283-1.063-8.3,1.022-8.3,2.275m42.3-.218c13.378.5,34.522.5,47-.014s1.512-.926-24.332-.913-36.062.422-22.67.926m81.415-.068a88.022,88.022,0,0,0,17.97,0c4.945-.613.9-1.1-8.978-1.1s-13.923.49-8.992,1.1m201.836.068c12.547.5,33.079.5,45.626,0s2.275-.94-22.82-.94-35.354.422-22.806.94m95.53,0c13.378.5,34.522.5,47-.014s1.512-.926-24.333-.913-36.048.422-22.67.926m94,0c13.379.5,34.523.5,47-.014s1.526-.926-24.332-.913-36.048.422-22.67.926m95.244,0c12.548.5,33.078.5,45.626,0s2.275-.94-22.806-.94-35.367.422-22.82.94m84.413-.027a180.477,180.477,0,0,0,24.89-.014c6.417-.586.463-1.049-13.215-1.035s-18.937.477-11.675,1.049" transform="translate(326.69 7.095)" fill="#9cccbc" fill-rule="evenodd"/>
  </g>
</svg>
