<svg xmlns:xlink="http://www.w3.org/1999/xlink" xmlns="http://www.w3.org/2000/svg" id="Layer_1" data-name="Layer 1" width="803.22" height="359.44" viewBox="0 0 803.22 359.44"><defs><style>.cls-1{fill:#fff;}.cls-2{fill:#00e789;}</style></defs><path class="cls-1" d="M665,183a31.06,31.06,0,0,0-11.5-8.3,74,74,0,0,0-23-5.71c-2.84-.3-5.76-.52-8.35-1.81a9.15,9.15,0,0,1-3.87-3.56c-2.76-4.79.65-9.25,4.92-10.72a24.17,24.17,0,0,1,7.92-1s12.29,0,12.29,13.16l24.52-.11c0-31.1-36.81-31.09-36.81-31.09-9.14,0-19.05,1.48-26.64,7.37a26.62,26.62,0,0,0-9.68,16.1c-1.3,6.78-.39,14.11,4,19.49a29.93,29.93,0,0,0,10.41,7.88c7,3.44,14.78,5,22.49,5.82,2.86.3,5.8.52,8.4,1.8a9.27,9.27,0,0,1,3.91,3.57c2.78,4.8-.65,9.27-4.92,10.73a24.17,24.17,0,0,1-7.92,1s-12.28,0-12.28-13.15l-26,.1c0,31.07,38.24,31.09,38.32,31.09,7,0,14.11-.87,20.6-3.69a28.81,28.81,0,0,0,15.71-16C670.35,198.34,670.28,189.49,665,183Z"/><path class="cls-1" d="M480.55,140.61v48.63A12.79,12.79,0,0,1,467.76,202h0A12.78,12.78,0,0,1,455,189.24V140.61a5.84,5.84,0,0,0-5.85-5.84H429.39v57.39c0,21.19,17.18,32.52,38.37,32.52h0c21.19,0,38.36-11.33,38.36-32.52V134.77H486.39A5.83,5.83,0,0,0,480.55,140.61Z"/><path class="cls-1" d="M332.9,223.16V134.77H350a5.87,5.87,0,0,1,4.63,2.27L384.05,179V140.61a5.84,5.84,0,0,1,5.85-5.84h19.73v88.39H392.5a5.85,5.85,0,0,1-4.6-2.24l-29.42-41.18v43.42Z"/><path class="cls-1" d="M525.88,223.18V134.77h19.73a5.84,5.84,0,0,1,5.85,5.84v62.6h31.43v20Z"/><path class="cls-2" d="M186,216.44l19.76,27.19v55.54l-72.28-30.68V123.86a19.75,19.75,0,0,1,19.75-19.75h0l69.63,95.83,35.43,21.57V102.32L225.52,88.41V170l-19.76-27.2V60.27L278,91V225.12a19.76,19.76,0,0,1-19.75,19.76h0L208,213.07l-54.74-75.35v119.4L186,271Z"/></svg>