<svg xmlns="http://www.w3.org/2000/svg" xmlns:xlink="http://www.w3.org/1999/xlink" version="1.1" id="Layer_1" x="0px" y="0px" viewBox="0 0 876.7 220.2" style="enable-background:new 0 0 876.7 220.2;" xml:space="preserve" width="876.7"  height="220.2" >
<style type="text/css">
	.st0{fill:#FFFFFF;}
</style>
<g>
	<path class="st0" d="M876.7,46.8c-0.7,3.2-1.5,6.3-2.9,9.2c-3.5,7.4-8.6,13.6-14.3,19.4c-9.9,10.1-21.1,18.5-33,26.1   c-23.3,15-48.3,26.5-74.3,35.8c-4.2,1.5-8.4,2.9-12.5,4.3c-0.7,0.2-1.1,0.2-1.3-0.6c-3-11.2-9-20.9-16.3-29.7   c-6.8-8.2-14.7-15.4-23.8-21.1c-1-0.6-1.5-1.7-2.2-2.7c3.3-1.2,6.5-2.4,9.6-3.6c17.9-7,35.3-15,51.5-25.4   c7.3-4.7,14.2-9.9,20.2-16.2c2.5-2.7,4.7-5.5,6.6-8.7c3.5-6.1,2.8-11.7-1.5-17.1c-3.6-4.5-8.3-7.1-13.6-9.1   c-7.3-2.8-14.9-4.2-22.5-5.5c-3.6-0.6-7.2-1.1-10.8-1.6c-0.3,0-0.6,0-0.7-0.3c2.4,0,4.9-0.1,7.3,0c8.1,0.3,16.2,0.7,24.3,1.2   c12.1,0.8,24.1,1.9,36.1,3.6c11.7,1.7,23.4,3.8,34.8,7.2c8.9,2.6,17.4,5.9,25.2,11.1c5.6,3.8,10.2,8.4,12.9,14.7   c0.6,1.4,0.8,2.9,1.3,4.3C876.7,43.7,876.7,45.3,876.7,46.8z"/>
	<path class="st0" d="M433,126.8c3.6,0,7,0,10.4,0c12.3,0.1,24.6,1.2,36.8,2.7c10.7,1.3,21.3,3,31.7,5.8   c11.5,3.2,22.4,7.5,32.4,14.1c13.9,9.1,23.4,21.6,28.9,37.2c1.4,4.1,2.7,8.2,2.5,12.7c-0.2,4.2-1.9,7.5-5.3,10   c-7.6,5.5-20,5.1-27.3-0.8c-1.5-1.2-2.8-2.7-3.6-4.4c-9-19.6-24.8-31.4-44.7-38.3c-11.2-3.9-22.9-5.6-34.7-6.3   c-9.1-0.5-18.1-1.3-27.2-1.3c-6,0-12,0.1-18.1,0.2c-0.9,0-1.3,0.4-1.7,1c-8.1,13.3-16.1,26.8-24.5,40c-5.9,9.4-14.6,14.3-25.9,14   c-4-0.1-8,0.1-12-0.4c-4.2-0.5-7.3-3-8-6.6c-0.5-2.7,0.4-5.1,1.7-7.4c3.2-5.3,6.4-10.6,9.6-15.9c15.1-25,30.1-50.1,45.5-74.9   c4.9-7.8,10.2-15.2,17-21.5c8.7-8,19-12.6,30.7-14c3.4-0.4,6.7-0.6,10.1-0.6c44.7,0,89.4,0,134,0c5.9,0,11.7,0.7,17,3.4   c7.5,3.7,12.6,9.6,14.2,18c0.8,4.2,0,8.3-1.4,12.2c-1.5,4.3-3.3,8.4-5.5,12.3c-4.2,7.4-10.9,11.6-19.1,13.5   c-4.9,1.1-9.9,1.4-14.8,0c-3.3-1-6-2.8-6.7-6.5c-0.6-2.8,0.3-5.4,1.9-7.8c1.4-2,2.7-4.1,3.6-6.4c0.5-1.4,0.9-2.8,0.8-4.3   c-0.2-1.8-1.2-2.9-3-3.2c-0.8-0.1-1.6-0.2-2.5-0.2c-38.3,0-76.7,0.1-115,0.1c-5.5,0-10.7,1.1-15.1,4.6c-1.4,1.1-2.6,2.3-3.6,3.8   C439.1,116.4,436.3,121.6,433,126.8z"/>
	<path class="st0" d="M112.8,85.5c-0.3,0.5-0.8,0.6-1.2,0.8c-8,4.2-16,8.3-23.3,13.8c-3.1,2.3-6,4.9-8.3,8.1   c-3.1,4.3-4.4,9.1-3.6,14.3c0.6,3.8,2.9,6.6,5.6,9c5.5,4.8,12,7.9,18.7,10.5c11.5,4.5,23.4,7.4,35.4,9.6   c15.7,2.9,31.5,4.5,47.4,5.3c1,0,1.6,0.4,2.1,1.2c14.1,20.3,28.2,40.5,42.3,60.7c0.2,0.3,0.4,0.7,0.6,1c-0.2,0.4-0.6,0.3-0.9,0.3   c-16.6,0.2-33.2-0.1-49.8-0.9c-14.4-0.7-28.7-1.7-43-3.2c-26.1-2.8-52-6.9-77.3-14c-13-3.6-25.7-8-37.5-14.5   c-4.4-2.4-8.5-5.2-12.2-8.5c-8.1-7.3-10-15.7-6.2-26.4c2.5-7.2,7.4-12.8,13-17.9c7.3-6.7,15.5-12.1,24.1-17   C56,108,74,100.3,92.3,93.1c6.4-2.5,12.8-4.9,19.1-7.3C111.8,85.7,112.3,85.3,112.8,85.5z"/>
	<path class="st0" d="M339,213.3c-6.5-0.1-12.8-1.2-18.9-3.1c-4.6-1.4-9-3.4-13.1-6c-3.8-2.5-7-5.5-9.6-9.2   c-22.8-32-45.7-64-68.5-96c-0.5-0.6-0.9-1.3-1.3-1.9c-3-4.2-2.9-8.5-0.5-12.9c2.8-5.1,7.4-8.1,12.7-10.1c4.9-1.8,10-2.2,15.1-1   c3.6,0.8,6.3,2.8,8.5,5.8c17.4,24.3,34.7,48.5,52.1,72.7c4.4,6.1,8.8,12.2,13.2,18.3c3.7,5.1,8,9.5,13.3,12.8   c0.8,0.5,0.5,0.8,0.2,1.4c-2.6,4.4-5.3,8.7-7.9,13.1c-1.2,1.9-2.1,3.9-2.4,6.2c-0.4,2.8,0.6,5.1,2.8,6.9   C335.8,211.7,337.4,212.4,339,213.3z"/>
	<path class="st0" d="M337.8,3.2c12,0,24,0,36,0c2,0,3.6,0.7,4.5,2.6c0.9,1.9,0.4,3.7-0.8,5.2c-1.3,1.7-3.1,2.6-5.2,2.6   c-0.5,0-0.9,0-1.4,0c-23.1,0-46.2,0-69.3,0c-1.6,0-3,0.3-4.2,1.3c-1.4,1.2-2,3-1.5,4.4c0.5,1.4,1.9,2.3,3.8,2.3c8.7,0,17.3,0,26,0   c12.6,0,25.3,0,37.9,0c1.9,0,3.8,0.2,5.7,0.9c7.1,2.5,10.2,9.8,7.2,17.1c-2.7,6.5-9.7,11-17,11.1c-15.3,0-30.6,0-45.9,0   c-8.2,0-16.4,0-24.6,0c-2.6,0-4.2-0.9-5-2.8c-0.7-1.9,0-4.2,1.7-5.8c1.5-1.3,3.2-1.8,5.1-1.8c23.4,0,46.7,0,70.1,0   c1.8,0,3.3-0.5,4.5-1.8c1.1-1.2,1.5-2.6,0.9-4c-0.5-1.5-1.8-2.1-3.3-2.2c-0.5,0-1,0-1.5,0c-20.9,0-41.9,0-62.8,0   c-1.9,0-3.8-0.1-5.7-0.8c-7.3-2.5-10.5-10.3-6.9-17.5C289.6,7,295.3,3.3,303,3.3C314.6,3.1,326.2,3.2,337.8,3.2z"/>
	<path class="st0" d="M448.3,50.7c-8.5,0-17-0.2-25.5,0.1c-10.5,0.3-16.7-7.6-18-15.7c-0.7-4-0.1-8,0.6-12c0.8-4.8,1.6-9.5,2.4-14.3   c0.6-3.3,3.7-5.7,7-5.5c2.9,0.2,4.7,2.3,4.2,5.2c-0.8,5.3-1.8,10.6-2.6,15.9c-0.3,1.7-0.6,3.4-0.7,5.1c-0.1,6.5,3.5,10.2,9.9,10.6   c0.3,0,0.6,0,1,0c15.7,0,31.3,0,47,0c6.4,0,11.7-3.5,13.9-9c0.9-2.1,1.2-4.4,1.6-6.6c0.9-5.3,1.8-10.7,2.7-16   c0.6-3.5,4.3-5.9,7.7-5.1c2.5,0.6,3.9,2.4,3.5,4.9c-1.1,6.8-1.9,13.8-3.6,20.5c-2.7,10.4-9.1,17.7-19.5,21.1   c-1.8,0.6-3.7,0.7-5.5,0.7C465.7,50.7,457,50.7,448.3,50.7z"/>
	<path class="st0" d="M678.8,50.7c-11.5,0-23.1,0.1-34.6,0c-5.7-0.1-10.2-2.4-12.7-7.9c-1-2.1-1-4.3-0.7-6.6   c1.5-9.2,3.1-18.4,4.6-27.6c0.6-3.5,4.2-5.9,7.6-5.2c2.4,0.4,4,2.6,3.6,5c-1,6.4-2.1,12.9-3.2,19.3c-0.5,2.8-1,5.7-1.4,8.5   c-0.3,2.1,1,3.8,3.2,4.1c0.5,0.1,1.1,0,1.6,0c22.6,0,45.2,0,67.7,0c0.5,0,1.1,0,1.6,0c3.4,0.1,5.3,3.1,4.1,6.2   c-0.9,2.5-3.5,4.2-6.5,4.2C702.2,50.7,690.5,50.7,678.8,50.7z"/>
	<path class="st0" d="M597.5,50.7c-2.5,0-3.9-0.8-4.9-2.5c-6.9-10.9-13.8-21.7-20.7-32.5c-0.6-0.9-1.3-1.8-2-2.6   c-1.5-1.5-3-1.7-4.8-0.6c-1.2,0.8-2.3,1.8-3.3,2.8c-10.6,10.9-21.3,21.8-31.9,32.7c-1.1,1.2-2.4,2.1-4,2.5   c-2.3,0.5-4.6-0.4-5.6-2.2c-1-1.7-0.6-4.2,1-5.8c3.2-3.4,6.5-6.7,9.7-10c8.2-8.5,16.4-17.1,24.8-25.6c4.9-5,10.8-7,17.7-5.3   c3,0.7,5.3,2.5,7,5.1c7.3,11.5,14.6,23,21.9,34.5c1.3,2,1.9,3.9,0.6,6C601.5,49.4,599.5,50.6,597.5,50.7z"/>
	<path class="st0" d="M174.2,52.9c-4.9-0.2-8.8-2-11.5-6.4c-7.2-11.5-14.5-22.9-21.8-34.4c-1.6-2.4-1.3-4.8,0.7-6.8   c2.1-2.1,5.4-2.7,7.5-1.4c0.8,0.5,1.3,1.2,1.8,2c6.9,10.8,13.7,21.5,20.6,32.3c0.6,1,1.3,1.9,2.1,2.6c1.5,1.4,2.9,1.6,4.7,0.5   c1.3-0.8,2.3-1.8,3.3-2.8c10.7-10.9,21.4-21.9,32.1-32.8c1.4-1.4,2.9-2.5,5-2.5c2.2,0,3.9,0.9,4.7,2.6c0.8,1.7,0.3,4-1.1,5.4   c-6,6.2-12.1,12.5-18.1,18.7c-5.4,5.6-10.8,11.2-16.3,16.8C184.1,50.6,179.6,52.7,174.2,52.9z"/>
	<path class="st0" d="M247.9,50.7c-3.2,0-5.2-2.2-4.7-5.3c1.7-10.2,3.4-20.4,5.1-30.6c0.3-1.9,0.7-3.9,1-5.8c0.6-3.7,3.6-6,7.3-5.7   c2.7,0.2,4.5,2.5,4,5.1c-2,12.3-4.1,24.6-6.2,36.9C253.9,48.4,251.1,50.7,247.9,50.7z"/>
	<path class="st0" d="M739,182.6c8.5,0,15.3,6.8,15.3,15.3c0,8.5-6.9,15.4-15.4,15.4c-8.4,0-15.3-7-15.3-15.4   C723.6,189.5,730.5,182.6,739,182.6z M739,184.5c-7.5,0-13.5,6-13.5,13.5c0,7.4,6,13.4,13.4,13.4c7.5,0,13.5-6,13.5-13.4   C752.4,190.5,746.5,184.5,739,184.5z"/>
	<path class="st0" d="M741.6,198.9c2.8,2,4,5.1,5.9,7.7c-1.8,0.5-3,0.1-3.9-1.6c-0.8-1.5-1.8-2.9-2.9-4.3c-1.1-1.5-4.1-2.2-5.7-1.6   c-0.5,0.2-0.3,0.6-0.3,0.9c0,1.9-0.1,3.7,0,5.6c0,1-0.3,1.2-1.2,1.2c-0.9,0-1.1-0.2-1.1-1.1c0-5,0-10,0-15.1c0-0.8,0.1-1.2,1.1-1.2   c2.6,0.1,5.1,0,7.7,0.1c3.2,0.1,4.8,1.5,5.1,4.2c0.3,2.4-1.1,4.2-3.9,5C742.1,198.7,742,198.8,741.6,198.9z M738.2,191.4   C738.2,191.4,738.2,191.4,738.2,191.4c-0.9,0-1.8,0-2.7-0.1c-0.6,0-0.8,0.2-0.8,0.8c0,1.4,0,2.7,0,4.1c0,0.5,0.1,0.9,0.7,0.9   c2-0.1,3.9,0.1,5.9-0.2c1.7-0.3,2.6-1.3,2.6-2.9c0-1.5-1.1-2.5-2.8-2.6C740.1,191.3,739.2,191.4,738.2,191.4z"/>
</g>
</svg>