<svg id="底部logo" xmlns="http://www.w3.org/2000/svg" width="214" height="50" viewBox="0 0 214 50">
  <metadata><?xpacket begin="﻿" id="W5M0MpCehiHzreSzNTczkc9d"?>
<x:xmpmeta xmlns:x="adobe:ns:meta/" x:xmptk="Adobe XMP Core 5.6-c138 79.159824, 2016/09/14-01:09:01        ">
   <rdf:RDF xmlns:rdf="http://www.w3.org/1999/02/22-rdf-syntax-ns#">
      <rdf:Description rdf:about=""/>
   </rdf:RDF>
</x:xmpmeta>
                                                                                                    
                                                                                                    
                                                                                                    
                                                                                                    
                                                                                                    
                                                                                                    
                                                                                                    
                                                                                                    
                                                                                                    
                                                                                                    
                                                                                                    
                                                                                                    
                                                                                                    
                                                                                                    
                                                                                                    
                                                                                                    
                                                                                                    
                                                                                                    
                                                                                                    
                                                                                                    
                           
<?xpacket end="w"?></metadata>
<defs>
    <style>
      .cls-1 {
        fill: #fff;
      }

      .cls-1, .cls-2, .cls-3 {
        fill-rule: evenodd;
      }

      .cls-2 {
        fill: #ffbe41;
      }

      .cls-3 {
        fill: #ffbe40;
      }
    </style>
  </defs>
  <path id="形状_756" data-name="形状 756" class="cls-1" d="M470.971,2541.37a2.694,2.694,0,1,1,2.694,2.76A2.731,2.731,0,0,1,470.971,2541.37Zm33.183-21.49v5.46h-8.209c-2.77,0-4.685.64-5.745,1.9q-1.539,1.785-1.539,5.47,0,4.1,2.513,5.99a6.28,6.28,0,0,0,2.232,1.02,14.71,14.71,0,0,0,3.36.29h7.388v5.47h-9.389a18.255,18.255,0,0,1-6-.79,9.193,9.193,0,0,1-3.9-2.73,13.651,13.651,0,0,1-3.232-9.36q0-6.84,3.848-10.2a9.042,9.042,0,0,1,3.694-1.95,22.476,22.476,0,0,1,5.591-.57h9.389Zm16.775-.37q6.926,0,10.209,4.1a14.45,14.45,0,0,1,3.027,9.41,12.515,12.515,0,0,1-3.8,9.57q-3.49,3.255-9.542,3.26-6.261,0-9.8-3.68-3.284-3.315-3.284-9.68a13.06,13.06,0,0,1,3.13-8.93Q514.362,2519.555,520.929,2519.51Zm0.052,5.36q-6.208,0-6.208,7.89a9.482,9.482,0,0,0,1.026,4.89,5.674,5.674,0,0,0,5.233,2.84q6.1,0,6.1-7.84Q527.136,2524.985,520.981,2524.87Zm18.262-4.99h25.24a19.828,19.828,0,0,1,5.233.52,6.658,6.658,0,0,1,3.027,1.84,10.061,10.061,0,0,1,2.257,6.94v16.3h-6.874v-15.19a14.6,14.6,0,0,0-.154-2.58,2.592,2.592,0,0,0-.718-1.31,4.422,4.422,0,0,0-3.232-1.06h-3.643v20.14h-6.874v-20.14h-7.388v20.14h-6.874v-25.6Zm-107.494,12.79-9.909-13.12h7.873l5.927,8.74,6.426-8.74h7.782l-10.226,13.12,10.226,13.39h-7.556l-6.652-9.1-6.515,9.1h-7.647Zm28.144-8.39H448.3l4.02-4.73h24v4.73h-10v21.78h-6.425v-21.78Z" transform="translate(-361 -2507)"/>
  <path id="形状_756_拷贝" data-name="形状 756 拷贝" class="cls-2" d="M470.971,2541.37a2.694,2.694,0,1,1,2.694,2.76A2.731,2.731,0,0,1,470.971,2541.37Z" transform="translate(-361 -2507)"/>
  <path id="形状_519" data-name="形状 519" class="cls-3" d="M385.811,2557a25,25,0,1,1,24.812-25A24.937,24.937,0,0,1,385.811,2557Zm0-46.29A21.291,21.291,0,1,0,406.948,2532,21.24,21.24,0,0,0,385.811,2510.71Zm0.892,17.86,4.79-5.86a1.44,1.44,0,0,0-1.086-2.35h0a1.427,1.427,0,0,0-1.086.51l-4.456,5.44-4.456-5.44a1.375,1.375,0,0,0-1.086-.51h-3.676a1.432,1.432,0,0,0-1.086,2.35l6.628,8.1-8.466,10.36a1.424,1.424,0,1,0,2.173,1.84l8.131-9.93Zm11.11-8.21a1.434,1.434,0,0,0-1.086.51l-8.1,9.94-3.676,4.5-4.79,5.86a1.423,1.423,0,1,0,2.172,1.84l4.456-5.43,4.455,5.43a1.379,1.379,0,0,0,1.087.51H396a1.43,1.43,0,0,0,1.086-2.35l-6.627-8.09,8.466-10.37a1.449,1.449,0,0,0-1.115-2.35" transform="translate(-361 -2507)"/>
</svg>
